<svg width="12" height="14" viewBox="0 0 12 14" fill="none" xmlns="http://www.w3.org/2000/svg">
<path d="M7.63636 3.81818V12.0718L4.95727 10.92L4.45455 10.7036L3.95182 10.92L1.27273 12.0718V3.81818H7.63636ZM10.1818 0H3.81182C3.11182 0 2.54545 0.572727 2.54545 1.27273H8.90909C9.60909 1.27273 10.1818 1.84545 10.1818 2.54545V10.8182L11.4545 11.4545V1.27273C11.4545 0.572727 10.8818 0 10.1818 0ZM7.63636 2.54545H1.27273C0.572727 2.54545 0 3.11818 0 3.81818V14L4.45455 12.0909L8.90909 14V3.81818C8.90909 3.11818 8.33636 2.54545 7.63636 2.54545Z" fill="black"/>
</svg>
