<svg width="28" height="28" viewBox="0 0 28 28" fill="none" xmlns="http://www.w3.org/2000/svg">
<circle cx="14" cy="14" r="14" fill="#00585E"/>
<path d="M14 23C15.2614 23 16.2846 21.9928 16.2846 20.75H11.7154C11.7154 21.9928 12.7386 23 14 23ZM21.6925 17.7368C21.0025 17.0069 19.7114 15.909 19.7114 12.3125C19.7114 9.58086 17.7657 7.39414 15.1421 6.85766V6.125C15.1421 5.50379 14.6307 5 14 5C13.3693 5 12.8579 5.50379 12.8579 6.125V6.85766C10.2343 7.39414 8.28859 9.58086 8.28859 12.3125C8.28859 15.909 6.99752 17.0069 6.30752 17.7368C6.09324 17.9635 5.99824 18.2346 6.00002 18.5C6.00395 19.0766 6.46359 19.625 7.14645 19.625H20.8536C21.5364 19.625 21.9964 19.0766 22 18.5C22.0018 18.2346 21.9068 17.9632 21.6925 17.7368V17.7368Z" fill="white"/>
</svg>
