<svg width="17" height="16" viewBox="0 0 17 16" fill="none" xmlns="http://www.w3.org/2000/svg">
<path d="M15.5 13V13.8333C15.5 14.75 14.75 15.5 13.8333 15.5H2.16667C1.24167 15.5 0.5 14.75 0.5 13.8333V2.16667C0.5 1.25 1.24167 0.5 2.16667 0.5H13.8333C14.75 0.5 15.5 1.25 15.5 2.16667V3H8C7.075 3 6.33333 3.75 6.33333 4.66667V11.3333C6.33333 12.25 7.075 13 8 13H15.5ZM8 11.3333H16.3333V4.66667H8V11.3333ZM11.3333 9.25C10.6417 9.25 10.0833 8.69167 10.0833 8C10.0833 7.30833 10.6417 6.75 11.3333 6.75C12.025 6.75 12.5833 7.30833 12.5833 8C12.5833 8.69167 12.025 9.25 11.3333 9.25Z" fill="white"/>
</svg>
