<svg width="60" height="60" viewBox="0 0 60 60" fill="none" xmlns="http://www.w3.org/2000/svg">
<path d="M53 55.9998L10.4 55.9998C7.41767 55.9998 5 53.5822 5 50.5998V12.7997C5 9.81733 7.41767 7.39966 10.4 7.39966H48.2002C51.1825 7.39966 53.6002 9.81733 53.6002 12.7997L53.6002 24" stroke="black" stroke-width="4" stroke-linecap="round" stroke-linejoin="round"/>
<path d="M40.4001 4V11" stroke="black" stroke-width="4" stroke-linecap="round" stroke-linejoin="round"/>
<path d="M18.4001 4V11" stroke="black" stroke-width="4" stroke-linecap="round" stroke-linejoin="round"/>
<path d="M5 22H53.6002" stroke="black" stroke-width="4" stroke-linecap="round" stroke-linejoin="round"/>
<path d="M49.6249 41.3685C53.2838 41.3685 56.2499 38.4025 56.2499 34.7436C56.2499 31.0847 53.2838 28.1187 49.6249 28.1187C45.9661 28.1187 43 31.0847 43 34.7436C43 38.4025 45.9661 41.3685 49.6249 41.3685Z" stroke="black" stroke-width="3" stroke-linecap="round" stroke-linejoin="round"/>
<path d="M46.0377 41.3781L44.8926 50L49.6247 47.1607L54.3568 50L53.2116 41.3687" stroke="black" stroke-width="3" stroke-linecap="round" stroke-linejoin="round"/>
<path d="M22.9001 32H26.9001C27.2979 32 27.6795 31.8419 27.9608 31.5606C28.2421 31.2793 28.4001 30.8978 28.4001 30.5C28.4001 30.1022 28.2421 29.7206 27.9608 29.4393C27.6795 29.158 27.2979 29 26.9001 29H22.9001C22.5023 29 22.1208 29.158 21.8395 29.4393C21.5582 29.7206 21.4001 30.1022 21.4001 30.5C21.4001 30.8978 21.5582 31.2793 21.8395 31.5606C22.1208 31.8419 22.5023 32 22.9001 32Z" fill="black"/>
<path d="M32.9001 32H36.9001C37.2979 32 37.6795 31.8419 37.9608 31.5606C38.2421 31.2793 38.4001 30.8978 38.4001 30.5C38.4001 30.1022 38.2421 29.7206 37.9608 29.4393C37.6795 29.158 37.2979 29 36.9001 29H32.9001C32.5023 29 32.1208 29.158 31.8395 29.4393C31.5582 29.7206 31.4001 30.1022 31.4001 30.5C31.4001 30.8978 31.5582 31.2793 31.8395 31.5606C32.1208 31.8419 32.5023 32 32.9001 32Z" fill="black"/>
<path d="M22.9001 40H26.9001C27.2979 40 27.6795 39.8419 27.9608 39.5606C28.2421 39.2793 28.4001 38.8978 28.4001 38.5C28.4001 38.1022 28.2421 37.7206 27.9608 37.4393C27.6795 37.158 27.2979 37 26.9001 37H22.9001C22.5023 37 22.1208 37.158 21.8395 37.4393C21.5582 37.7206 21.4001 38.1022 21.4001 38.5C21.4001 38.8978 21.5582 39.2793 21.8395 39.5606C22.1208 39.8419 22.5023 40 22.9001 40Z" fill="black"/>
<path d="M32.9001 40H36.9001C37.2979 40 37.6795 39.8419 37.9608 39.5606C38.2421 39.2793 38.4001 38.8978 38.4001 38.5C38.4001 38.1022 38.2421 37.7206 37.9608 37.4393C37.6795 37.158 37.2979 37 36.9001 37H32.9001C32.5023 37 32.1208 37.158 31.8395 37.4393C31.5582 37.7206 31.4001 38.1022 31.4001 38.5C31.4001 38.8978 31.5582 39.2793 31.8395 39.5606C32.1208 39.8419 32.5023 40 32.9001 40Z" fill="black"/>
<path d="M22.9001 48H26.9001C27.2979 48 27.6795 47.8419 27.9608 47.5606C28.2421 47.2793 28.4001 46.8978 28.4001 46.5C28.4001 46.1022 28.2421 45.7206 27.9608 45.4393C27.6795 45.158 27.2979 45 26.9001 45H22.9001C22.5023 45 22.1208 45.158 21.8395 45.4393C21.5582 45.7206 21.4001 46.1022 21.4001 46.5C21.4001 46.8978 21.5582 47.2793 21.8395 47.5606C22.1208 47.8419 22.5023 48 22.9001 48Z" fill="black"/>
<path d="M32.9001 48H36.9001C37.2979 48 37.6795 47.8419 37.9608 47.5606C38.2421 47.2793 38.4001 46.8978 38.4001 46.5C38.4001 46.1022 38.2421 45.7206 37.9608 45.4393C37.6795 45.158 37.2979 45 36.9001 45H32.9001C32.5023 45 32.1208 45.158 31.8395 45.4393C31.5582 45.7206 31.4001 46.1022 31.4001 46.5C31.4001 46.8978 31.5582 47.2793 31.8395 47.5606C32.1208 47.8419 32.5023 48 32.9001 48Z" fill="black"/>
<path d="M12.9001 32H16.9001C17.2979 32 17.6795 31.8419 17.9608 31.5606C18.2421 31.2793 18.4001 30.8978 18.4001 30.5C18.4001 30.1022 18.2421 29.7206 17.9608 29.4393C17.6795 29.158 17.2979 29 16.9001 29H12.9001C12.5023 29 12.1208 29.158 11.8395 29.4393C11.5582 29.7206 11.4001 30.1022 11.4001 30.5C11.4001 30.8978 11.5582 31.2793 11.8395 31.5606C12.1208 31.8419 12.5023 32 12.9001 32Z" fill="black"/>
<path d="M12.9001 40H16.9001C17.2979 40 17.6795 39.8419 17.9608 39.5606C18.2421 39.2793 18.4001 38.8978 18.4001 38.5C18.4001 38.1022 18.2421 37.7206 17.9608 37.4393C17.6795 37.158 17.2979 37 16.9001 37H12.9001C12.5023 37 12.1208 37.158 11.8395 37.4393C11.5582 37.7206 11.4001 38.1022 11.4001 38.5C11.4001 38.8978 11.5582 39.2793 11.8395 39.5606C12.1208 39.8419 12.5023 40 12.9001 40Z" fill="black"/>
<path d="M12.9001 48H16.9001C17.2979 48 17.6795 47.8419 17.9608 47.5606C18.2421 47.2793 18.4001 46.8978 18.4001 46.5C18.4001 46.1022 18.2421 45.7206 17.9608 45.4393C17.6795 45.158 17.2979 45 16.9001 45H12.9001C12.5023 45 12.1208 45.158 11.8395 45.4393C11.5582 45.7206 11.4001 46.1022 11.4001 46.5C11.4001 46.8978 11.5582 47.2793 11.8395 47.5606C12.1208 47.8419 12.5023 48 12.9001 48Z" fill="black"/>
</svg>
