<svg width="60" height="60" viewBox="0 0 60 60" fill="none" xmlns="http://www.w3.org/2000/svg">
<path d="M58.8843 53.4968L44.1224 38.7349C43.5854 38.1992 42.9009 37.8357 42.1563 37.6909C41.4117 37.5461 40.6409 37.6265 39.9423 37.9219L35.9231 33.9028C39.1697 30.1837 40.9567 25.413 40.9524 20.4762C40.9524 9.18559 31.7668 0 20.4762 0C9.18559 0 0 9.18559 0 20.4762C0 31.7668 9.18559 40.9524 20.4762 40.9524C25.413 40.9567 30.1837 39.1697 33.9027 35.9231L37.9219 39.9423C37.6265 40.6409 37.5461 41.4117 37.6909 42.1562C37.8356 42.9008 38.1991 43.5853 38.7348 44.1223L53.4967 58.8842C53.8504 59.2379 54.2703 59.5185 54.7325 59.71C55.1947 59.9014 55.6901 60 56.1904 60C56.6907 60 57.186 59.9015 57.6482 59.71C58.1104 59.5186 58.5304 59.238 58.8842 58.8843C59.2379 58.5305 59.5185 58.1106 59.71 57.6484C59.9014 57.1862 60 56.6908 60 56.1905C60 55.6903 59.9015 55.1949 59.71 54.7327C59.5186 54.2705 59.238 53.8505 58.8843 53.4968ZM2.85714 20.4762C2.85714 10.7611 10.7611 2.85714 20.4762 2.85714C30.1913 2.85714 38.0952 10.7611 38.0952 20.4762C38.0952 30.1913 30.1913 38.0952 20.4762 38.0952C10.7611 38.0952 2.85714 30.1913 2.85714 20.4762ZM56.8639 56.8639C56.6847 57.0414 56.4427 57.141 56.1905 57.141C55.9382 57.141 55.6962 57.0414 55.517 56.8639L40.7551 42.102C39.8695 41.2401 41.2408 39.8695 42.102 40.7551L56.8639 55.517C57.0422 55.6958 57.1423 55.938 57.1423 56.1905C57.1423 56.4429 57.0422 56.6851 56.8639 56.8639Z" fill="black"/>
<path d="M20.4763 5.71429C17.5566 5.71429 14.7026 6.58006 12.275 8.20212C9.84741 9.82418 7.95534 12.1297 6.83804 14.8271C5.72075 17.5244 5.42842 20.4926 5.99801 23.3561C6.5676 26.2196 7.97353 28.8499 10.038 30.9144C12.1025 32.9789 14.7328 34.3849 17.5964 34.9545C20.4599 35.524 23.428 35.2317 26.1254 34.1144C28.8228 32.9971 31.1283 31.105 32.7503 28.6775C34.3724 26.2499 35.2382 23.3958 35.2382 20.4762C35.2338 16.5625 33.6771 12.8103 30.9096 10.0428C28.1422 7.27539 24.39 5.71871 20.4763 5.71429ZM20.4763 32.381C18.1217 32.381 15.8201 31.6828 13.8623 30.3746C11.9046 29.0665 10.3787 27.2073 9.4777 25.0319C8.57666 22.8566 8.3409 20.463 8.80025 18.1537C9.2596 15.8444 10.3934 13.7232 12.0583 12.0583C13.7232 10.3933 15.8445 9.25953 18.1538 8.80018C20.4631 8.34084 22.8567 8.57659 25.032 9.47763C27.2073 10.3787 29.0666 11.9045 30.3747 13.8623C31.6828 15.82 32.381 18.1217 32.381 20.4762C32.3775 23.6324 31.1221 26.6584 28.8903 28.8902C26.6585 31.122 23.6325 32.3774 20.4763 32.381Z" fill="black"/>
<path d="M26.1904 13.3333H14.7618C14.3829 13.3333 14.0196 13.4838 13.7517 13.7517C13.4838 14.0196 13.3333 14.383 13.3333 14.7619V26.1905C13.3333 26.5693 13.4838 26.9327 13.7517 27.2006C14.0196 27.4685 14.3829 27.619 14.7618 27.619H26.1904C26.5693 27.619 26.9326 27.4685 27.2005 27.2006C27.4685 26.9327 27.619 26.5693 27.619 26.1905V14.7619C27.619 14.383 27.4685 14.0196 27.2005 13.7517C26.9326 13.4838 26.5693 13.3333 26.1904 13.3333ZM24.7618 24.7619H16.1904V23.8095H20.4761C20.855 23.8095 21.2184 23.659 21.4863 23.3911C21.7542 23.1232 21.9047 22.7598 21.9047 22.3809C21.9047 22.002 21.7542 21.6387 21.4863 21.3708C21.2184 21.1029 20.855 20.9524 20.4761 20.9524H16.1904V16.1905H19.0475V16.6666C19.0475 17.0455 19.198 17.4089 19.466 17.6768C19.7339 17.9447 20.0972 18.0952 20.4761 18.0952C20.855 18.0952 21.2184 17.9447 21.4863 17.6768C21.7542 17.4089 21.9047 17.0455 21.9047 16.6666V16.1905H24.7618V24.7619Z" fill="black"/>
<path d="M44.228 25.5269C44.4959 25.7948 44.8592 25.9453 45.2381 25.9453C45.6169 25.9453 45.9803 25.7948 46.2482 25.5269C47.5858 24.1863 48.3369 22.3699 48.3369 20.4762C48.3369 18.5825 47.5858 16.7661 46.2482 15.4255C45.9795 15.1612 45.6173 15.0137 45.2405 15.0153C44.8636 15.0168 44.5026 15.1672 44.2362 15.4337C43.9697 15.7002 43.8193 16.0612 43.8177 16.438C43.8162 16.8149 43.9637 17.1771 44.228 17.4457C45.0305 18.2501 45.4812 19.34 45.4812 20.4762C45.4812 21.6124 45.0305 22.7023 44.228 23.5067C43.9601 23.7746 43.8096 24.1379 43.8096 24.5168C43.8096 24.8957 43.9601 25.259 44.228 25.5269Z" fill="black"/>
<path d="M48.2686 27.5476C46.9385 28.8397 48.9978 30.8975 50.289 29.568C51.4829 28.3741 52.43 26.9567 53.0761 25.3968C53.7222 23.8369 54.0548 22.165 54.0548 20.4766C54.0548 18.7881 53.7222 17.1162 53.0761 15.5563C52.43 13.9964 51.4829 12.579 50.289 11.3851C50.0196 11.1249 49.6588 10.9808 49.2842 10.984C48.9096 10.9872 48.5513 11.1374 48.2864 11.4022C48.0215 11.667 47.8712 12.0253 47.8678 12.3999C47.8645 12.7744 48.0084 13.1353 48.2686 13.4048C50.1415 15.2816 51.1933 17.8248 51.1933 20.4762C51.1933 23.1276 50.1415 25.6708 48.2686 27.5476Z" fill="black"/>
<path d="M56.9119 20.4762C56.9175 22.5406 56.5137 24.5857 55.7237 26.493C54.9337 28.4003 53.7733 30.132 52.3096 31.5878C50.9796 32.8797 53.0388 34.9377 54.33 33.6082C56.0545 31.8837 57.4225 29.8364 58.3558 27.5832C59.2891 25.33 59.7694 22.915 59.7694 20.4762C59.7694 18.0373 59.2891 15.6224 58.3558 13.3692C57.4225 11.116 56.0545 9.06867 54.33 7.34415C54.062 7.07623 53.6987 6.92572 53.3198 6.92572C52.9409 6.92572 52.5775 7.07623 52.3096 7.34415C52.0417 7.61207 51.8912 7.97544 51.8912 8.35433C51.8912 8.73322 52.0417 9.09659 52.3096 9.36451C53.7733 10.8203 54.9337 12.552 55.7237 14.4594C56.5137 16.3667 56.9175 18.4117 56.9119 20.4762Z" fill="black"/>
</svg>
