<svg width="20" height="16" viewBox="0 0 20 16" fill="none" xmlns="http://www.w3.org/2000/svg">
<path d="M19.1075 3.71875L17.0763 0.46875C16.8888 0.1875 16.5763 0 16.2325 0H3.6075C3.26375 0 2.92 0.1875 2.7325 0.46875L0.7325 3.71875C-0.33 5.40625 0.6075 7.71875 2.545 7.96875C2.70125 8 2.82625 8 2.9825 8C3.92 8 4.7325 7.59375 5.295 6.96875C5.8575 7.59375 6.67 8 7.6075 8C8.51375 8 9.32625 7.59375 9.88875 6.96875C10.4513 7.59375 11.295 8 12.2013 8C13.1388 8 13.9513 7.59375 14.5138 6.96875C15.0763 7.59375 15.8888 8 16.8263 8C16.9825 8 17.1075 8 17.2638 7.96875C19.2013 7.71875 20.1388 5.40625 19.1075 3.71875ZM16.8263 9C16.5138 9 16.2013 8.96875 15.92 8.90625V12H3.92V8.90625C3.6075 8.96875 3.295 9 2.9825 9C2.795 9 2.6075 9 2.42 8.96875C2.2325 8.9375 2.07625 8.90625 1.92 8.875V15C1.92 15.5625 2.3575 16 2.92 16H16.92C17.4513 16 17.92 15.5625 17.92 15V8.875C17.7325 8.90625 17.5763 8.96875 17.3888 8.96875C17.2013 9 17.0138 9 16.8263 9Z" fill="white"/>
</svg>
