<svg width="16" height="16" viewBox="0 0 16 16" fill="none" xmlns="http://www.w3.org/2000/svg">
<path d="M15.1388 9.875C15.3263 9.95833 15.3888 10.1042 15.3263 10.3125C14.9721 11.4167 14.3992 12.3958 13.6075 13.25C13.4825 13.3958 13.3367 13.4271 13.17 13.3438L11.8263 12.5625C11.2638 13.0417 10.6283 13.4062 9.92 13.6562V15.1875C9.92 15.3958 9.82625 15.5208 9.63875 15.5625C8.49292 15.8125 7.3575 15.8125 6.2325 15.5625C6.02417 15.5208 5.92 15.3958 5.92 15.1875V13.6562C5.21167 13.4062 4.57625 13.0417 4.01375 12.5625L2.70125 13.3438C2.51375 13.4271 2.3575 13.3958 2.2325 13.25C1.44083 12.3958 0.867917 11.4167 0.51375 10.3125C0.45125 10.125 0.51375 9.97917 0.70125 9.875L2.01375 9.09375C1.95125 8.73958 1.92 8.375 1.92 8C1.92 7.625 1.95125 7.26042 2.01375 6.90625L0.70125 6.125C0.51375 6.04167 0.45125 5.89583 0.51375 5.6875C0.867917 4.58333 1.44083 3.60417 2.2325 2.75C2.3575 2.60417 2.51375 2.58333 2.70125 2.6875L4.01375 3.4375C4.57625 2.95833 5.21167 2.59375 5.92 2.34375V0.8125C5.92 0.604167 6.01375 0.479167 6.20125 0.4375C7.34708 0.1875 8.49292 0.1875 9.63875 0.4375C9.82625 0.479167 9.92 0.604167 9.92 0.8125V2.34375C10.6283 2.59375 11.2638 2.95833 11.8263 3.4375L13.1388 2.65625C13.3263 2.57292 13.4825 2.60417 13.6075 2.75C14.3992 3.60417 14.9721 4.58333 15.3263 5.6875C15.3888 5.89583 15.3263 6.04167 15.1388 6.125L13.8263 6.90625C13.9513 7.63542 13.9513 8.36458 13.8263 9.09375L15.1388 9.875ZM6.13875 9.78125C6.63875 10.2604 7.2325 10.5 7.92 10.5C8.6075 10.5 9.19083 10.2604 9.67 9.78125C10.17 9.28125 10.42 8.6875 10.42 8C10.42 7.3125 10.17 6.72917 9.67 6.25C9.19083 5.75 8.6075 5.5 7.92 5.5C7.2325 5.5 6.63875 5.75 6.13875 6.25C5.65958 6.72917 5.42 7.3125 5.42 8C5.42 8.6875 5.65958 9.28125 6.13875 9.78125Z" fill="white"/>
</svg>
