<svg width="26" height="29" viewBox="0 0 26 29" fill="none" xmlns="http://www.w3.org/2000/svg">
<path d="M0.75 25.875C0.75 27.3516 1.89844 28.5 3.375 28.5H22.625C24.0469 28.5 25.25 27.3516 25.25 25.875V11H0.75V25.875ZM4.25 15.375C4.25 14.9375 4.63281 14.5 5.125 14.5H10.375C10.8125 14.5 11.25 14.9375 11.25 15.375V20.625C11.25 21.1172 10.8125 21.5 10.375 21.5H5.125C4.63281 21.5 4.25 21.1172 4.25 20.625V15.375ZM22.625 4H20V1.375C20 0.9375 19.5625 0.5 19.125 0.5H17.375C16.8828 0.5 16.5 0.9375 16.5 1.375V4H9.5V1.375C9.5 0.9375 9.0625 0.5 8.625 0.5H6.875C6.38281 0.5 6 0.9375 6 1.375V4H3.375C1.89844 4 0.75 5.20312 0.75 6.625V9.25H25.25V6.625C25.25 5.20312 24.0469 4 22.625 4Z" fill="#2B7D83"/>
</svg>
