<svg width="46" height="60" viewBox="0 0 46 60" fill="none" xmlns="http://www.w3.org/2000/svg">
<path d="M8.64212 52.581H18.3792C19.3501 52.581 20.137 51.7941 20.137 50.8232V41.0865C20.137 40.1156 19.3501 39.3287 18.3792 39.3287H8.64212C7.67166 39.3287 6.88431 40.1156 6.88431 41.0865V50.8232C6.88431 51.7941 7.67166 52.581 8.64212 52.581ZM10.3999 42.8439H16.6214V49.0654H10.3999V42.8439Z" fill="black"/>
<path d="M8.64212 36.6257H10.4485C11.4194 36.6257 12.2063 35.8388 12.2063 34.8679C12.2063 33.8974 11.4194 33.11 10.4485 33.11H10.3999V26.889H18.3792C19.3501 26.889 20.137 26.1017 20.137 25.1312C20.137 24.1603 19.3501 23.3734 18.3792 23.3734H8.64212C7.67166 23.3734 6.88431 24.1603 6.88431 25.1312V34.8679C6.88431 35.8388 7.67166 36.6257 8.64212 36.6257Z" fill="black"/>
<path d="M26.2226 25.0429C25.5002 24.3942 24.3888 24.4542 23.7406 25.177L17.9824 31.5935L16.9007 30.0897C16.3335 29.3019 15.2349 29.1225 14.447 29.6896C13.6588 30.2568 13.4798 31.355 14.047 32.1433L16.4044 35.4199C16.7157 35.8521 17.2055 36.1199 17.737 36.1487C17.7686 36.1501 17.8002 36.151 17.8317 36.151C18.3293 36.151 18.8054 35.9395 19.1396 35.5673L26.3571 27.5249C27.0053 26.8025 26.9454 25.6911 26.2226 25.0429Z" fill="black"/>
<path d="M8.64212 20.6708H10.4485C11.4194 20.6708 12.2063 19.8835 12.2063 18.913C12.2063 17.9421 11.4194 17.1552 10.4485 17.1552H10.3999V10.9337H18.3792C19.3501 10.9337 20.137 10.1468 20.137 9.1759C20.137 8.20499 19.3501 7.41809 18.3792 7.41809H8.64212C7.67166 7.41809 6.88431 8.20499 6.88431 9.1759V18.9125C6.88431 19.8835 7.67166 20.6708 8.64212 20.6708Z" fill="black"/>
<path d="M16.9007 14.1344C16.3335 13.3466 15.2349 13.1676 14.447 13.7343C13.6588 14.3015 13.4798 15.3996 14.047 16.1879L16.4044 19.4646C16.7157 19.8967 17.2055 20.1645 17.737 20.1933C17.7686 20.1952 17.8002 20.1961 17.8317 20.1961C18.3293 20.1961 18.8054 19.9846 19.1396 19.612L26.3571 11.57C27.0053 10.8476 26.9454 9.73618 26.2226 9.08753C25.5002 8.43933 24.3888 8.4993 23.7406 9.22165L17.9824 15.6381L16.9007 14.1344Z" fill="black"/>
<path d="M43.4766 0H1.75781C0.786896 0 0 0.786896 0 1.75781V58.2422C0 59.2131 0.786896 60 1.75781 60H43.4766C44.4475 60 45.2344 59.2131 45.2344 58.2422V1.75781C45.2344 0.786896 44.4475 0 43.4766 0ZM41.7188 56.4844H3.51562V3.51562H41.7188V56.4844Z" fill="black"/>
<path d="M35.7422 39.3283H26.6016C25.6306 39.3283 24.8438 40.1157 24.8438 41.0861C24.8438 42.057 25.6306 42.8439 26.6016 42.8439H35.7422C36.7131 42.8439 37.5 42.057 37.5 41.0861C37.5 40.1157 36.7131 39.3283 35.7422 39.3283Z" fill="black"/>
<path d="M35.7422 46.3596H26.6016C25.6306 46.3596 24.8438 47.1469 24.8438 48.1174C24.8438 49.0883 25.6306 49.8752 26.6016 49.8752H35.7422C36.7131 49.8752 37.5 49.0883 37.5 48.1174C37.5 47.1465 36.7131 46.3596 35.7422 46.3596Z" fill="black"/>
<path d="M35.7422 22.6227H33.0469C32.076 22.6227 31.2891 23.41 31.2891 24.3805C31.2891 25.3514 32.076 26.1383 33.0469 26.1383H35.7422C36.7131 26.1383 37.5 25.3514 37.5 24.3805C37.5 23.41 36.7131 22.6227 35.7422 22.6227Z" fill="black"/>
<path d="M31.1421 33.1696H35.7422C36.7131 33.1696 37.5 32.3827 37.5 31.4117C37.5 30.4408 36.7131 29.6539 35.7422 29.6539H31.1421C30.1717 29.6539 29.3843 30.4408 29.3843 31.4117C29.3843 32.3827 30.1717 33.1696 31.1421 33.1696Z" fill="black"/>
<path d="M33.0469 10.8774H35.7422C36.7131 10.8774 37.5 10.09 37.5 9.11957C37.5 8.14865 36.7131 7.36176 35.7422 7.36176H33.0469C32.076 7.36176 31.2891 8.14865 31.2891 9.11957C31.2891 10.0905 32.076 10.8774 33.0469 10.8774Z" fill="black"/>
<path d="M31.1421 17.9082H35.7422C36.7131 17.9082 37.5 17.1213 37.5 16.1504C37.5 15.1799 36.7131 14.3926 35.7422 14.3926H31.1421C30.1717 14.3926 29.3843 15.1799 29.3843 16.1504C29.3843 17.1213 30.1717 17.9082 31.1421 17.9082Z" fill="black"/>
</svg>
