<svg width="60" height="60" viewBox="0 0 60 60" fill="none" xmlns="http://www.w3.org/2000/svg">
<path d="M30.8636 35.0652H26.7727C26.5919 35.0652 26.4185 34.9942 26.2906 34.8678C26.1627 34.7415 26.0909 34.57 26.0909 34.3913C26.0909 33.8551 25.8754 33.3409 25.4918 32.9617C25.1082 32.5826 24.5879 32.3696 24.0455 32.3696C23.503 32.3696 22.9827 32.5826 22.5991 32.9617C22.2155 33.3409 22 33.8551 22 34.3913C22.0014 35.642 22.5047 36.8411 23.3995 37.7254C24.2942 38.6098 25.5074 39.1073 26.7727 39.1087H27.4545V42.4783C27.4545 43.0145 27.67 43.5287 28.0536 43.9078C28.4372 44.287 28.9575 44.5 29.5 44.5C30.0425 44.5 30.5628 44.287 30.9464 43.9078C31.33 43.5287 31.5455 43.0145 31.5455 42.4783V39.0703C33.1026 38.8963 34.5333 38.14 35.5443 36.9566C36.5553 35.7733 37.07 34.2524 36.9828 32.706C36.8956 31.1595 36.2132 29.7046 35.0754 28.6396C33.9376 27.5746 32.4307 26.9802 30.8636 26.9783H28.1364C27.5939 26.9783 27.0736 26.7653 26.69 26.3861C26.3064 26.007 26.0909 25.4927 26.0909 24.9565C26.0909 24.4203 26.3064 23.9061 26.69 23.5269C27.0736 23.1478 27.5939 22.9348 28.1364 22.9348H32.2273C32.4081 22.9348 32.5815 23.0058 32.7094 23.1322C32.8373 23.2586 32.9091 23.43 32.9091 23.6087C32.9091 24.1449 33.1246 24.6591 33.5082 25.0383C33.8918 25.4174 34.4121 25.6304 34.9545 25.6304C35.497 25.6304 36.0173 25.4174 36.4009 25.0383C36.7845 24.6591 37 24.1449 37 23.6087C36.9986 22.358 36.4953 21.1589 35.6005 20.2746C34.7058 19.3902 33.4926 18.8927 32.2273 18.8913H31.5455V15.5217C31.5455 14.9855 31.33 14.4713 30.9464 14.0922C30.5628 13.713 30.0425 13.5 29.5 13.5C28.9575 13.5 28.4372 13.713 28.0536 14.0922C27.67 14.4713 27.4545 14.9855 27.4545 15.5217V18.9297C25.8974 19.1037 24.4667 19.86 23.4557 21.0434C22.4447 22.2267 21.93 23.7476 22.0172 25.294C22.1044 26.8405 22.7868 28.2954 23.9246 29.3604C25.0624 30.4254 26.5693 31.0198 28.1364 31.0217H30.8636C31.4061 31.0217 31.9264 31.2347 32.31 31.6139C32.6936 31.993 32.9091 32.5073 32.9091 33.0435C32.9091 33.5797 32.6936 34.0939 32.31 34.4731C31.9264 34.8522 31.4061 35.0652 30.8636 35.0652Z" fill="black"/>
<path d="M55 30C55 43.8 43.8 55 30 55C16.2 55 5 43.8 5 30C5 16.2 16.2 5 30 5" stroke="black" stroke-width="3.75" stroke-linecap="round" stroke-linejoin="round"/>
<path d="M55 15V5H45" stroke="black" stroke-width="3.75" stroke-linecap="round" stroke-linejoin="round"/>
<path d="M42.5 17.5L55 5" stroke="black" stroke-width="3.75" stroke-linecap="round" stroke-linejoin="round"/>
</svg>
