<svg width="56" height="56" viewBox="0 0 56 56" fill="none" xmlns="http://www.w3.org/2000/svg">
<circle cx="28" cy="28" r="28" fill="#F3F3F3"/>
<path d="M25.3425 13.0054L12.1669 35.001C11.8953 35.4714 11.7515 36.0048 11.75 36.548C11.7485 37.0912 11.8892 37.6254 12.1582 38.0973C12.4273 38.5693 12.8152 38.9626 13.2834 39.2381C13.7515 39.5136 14.2837 39.6617 14.8269 39.6676H41.178C41.7212 39.6617 42.2534 39.5136 42.7216 39.2381C43.1898 38.9626 43.5777 38.5693 43.8467 38.0973C44.1157 37.6254 44.2565 37.0912 44.2549 36.548C44.2534 36.0048 44.1097 35.4714 43.838 35.001L30.6625 13.0054C30.3852 12.5482 29.9947 12.1703 29.5288 11.9079C29.0628 11.6456 28.5372 11.5078 28.0025 11.5078C27.4678 11.5078 26.9421 11.6456 26.4762 11.9079C26.0102 12.1703 25.6198 12.5482 25.3425 13.0054V13.0054Z" stroke="#00585E" stroke-width="2" stroke-linecap="round" stroke-linejoin="round"/>
<path d="M28 21V27.2222" stroke="#00585E" stroke-width="2" stroke-linecap="round" stroke-linejoin="round"/>
<path d="M28 33.4453H28.0156" stroke="#00585E" stroke-width="2" stroke-linecap="round" stroke-linejoin="round"/>
</svg>
