<svg width="48" height="60" viewBox="0 0 48 60" fill="none" xmlns="http://www.w3.org/2000/svg">
<path d="M23.7517 0C10.655 0 0 10.655 0 23.7517C0 27.6889 1.22048 32.0398 3.62747 36.6838C5.5029 40.3021 8.10644 44.1216 11.3656 48.0362C14.7804 52.1176 18.5142 55.9211 22.5318 59.4109C23.3301 60.1967 24.1737 60.1961 24.9715 59.4109C28.9891 55.9211 32.7229 52.1176 36.1377 48.0362C39.3969 44.1216 42.0004 40.3021 43.8758 36.6838C46.2828 32.0398 47.5033 27.6889 47.5033 23.7517C47.5033 10.655 36.8483 0 23.7517 0ZM41.3453 35.3722C39.564 38.8084 37.0753 42.4556 33.9467 46.2127C30.8095 49.9523 27.402 53.4565 23.7517 56.6972C20.1011 53.4566 16.6934 49.9523 13.556 46.2127C10.428 42.4556 7.93875 38.8084 6.15797 35.3722C3.96308 31.1375 2.8502 27.2278 2.8502 23.7517C2.8502 12.2265 12.2265 2.8502 23.7517 2.8502C35.2768 2.8502 44.6531 12.2265 44.6531 23.7517C44.6531 27.2278 43.5402 31.1375 41.3453 35.3722Z" fill="black"/>
<path d="M23.7517 5.70044C13.7982 5.70044 5.70044 13.7982 5.70044 23.7517C5.70044 33.7052 13.7982 41.803 23.7517 41.803C33.7052 41.803 41.803 33.7052 41.803 23.7517C41.803 13.7982 33.7052 5.70044 23.7517 5.70044ZM23.7517 38.9528C20.7452 38.9528 17.8062 38.0612 15.3064 36.3909C12.8066 34.7206 10.8583 32.3465 9.70775 29.5689C8.55722 26.7913 8.25619 23.7348 8.84272 20.7861C9.42926 17.8374 10.877 15.1288 13.0029 13.0029C15.1288 10.877 17.8374 9.42926 20.7861 8.84272C23.7348 8.25619 26.7913 8.55722 29.5689 9.70775C32.3465 10.8583 34.7206 12.8066 36.3909 15.3064C38.0612 17.8062 38.9528 20.7452 38.9528 23.7517C38.9482 27.7819 37.3452 31.6457 34.4954 34.4954C31.6457 37.3452 27.7819 38.9482 23.7517 38.9528Z" fill="black"/>
<path d="M31.3522 12.5884H19.0014C17.8679 12.5896 16.7812 13.0405 15.9797 13.842C15.1782 14.6435 14.7273 15.7302 14.7261 16.8637V30.1646C14.7273 31.2981 15.1782 32.3848 15.9797 33.1863C16.7812 33.9878 17.8679 34.4386 19.0014 34.4399H31.3522C31.7302 34.4399 32.0927 34.2898 32.3599 34.0225C32.6272 33.7552 32.7773 33.3928 32.7773 33.0148V14.0135C32.7773 13.6355 32.6272 13.273 32.3599 13.0058C32.0927 12.7385 31.7302 12.5884 31.3522 12.5884ZM19.0014 15.4386H20.9015V18.8826C20.9015 19.2605 21.0517 19.623 21.3189 19.8903C21.5862 20.1575 21.9486 20.3077 22.3266 20.3077C22.7046 20.3077 23.067 20.1575 23.3343 19.8903C23.6016 19.623 23.7517 19.2605 23.7517 18.8826V15.4386H29.9271V25.8893H19.0014C18.5158 25.8891 18.0338 25.972 17.5763 26.1344V16.8637C17.5767 16.4858 17.727 16.1236 17.9941 15.8564C18.2613 15.5893 18.6235 15.439 19.0014 15.4386ZM29.9271 31.5897H19.0014C18.6234 31.5897 18.2609 31.4396 17.9937 31.1723C17.7264 30.905 17.5763 30.5426 17.5763 30.1646C17.5763 29.7866 17.7264 29.4242 17.9937 29.1569C18.2609 28.8897 18.6234 28.7395 19.0014 28.7395H29.9271V31.5897Z" fill="black"/>
</svg>
