<svg width="64" height="60" viewBox="0 0 64 60" fill="none" xmlns="http://www.w3.org/2000/svg">
<path d="M31.579 3.94737C30.8532 3.94737 30.1346 4.09031 29.4641 4.36803C28.7936 4.64576 28.1844 5.05282 27.6713 5.56599C27.1581 6.07915 26.751 6.68837 26.4733 7.35886C26.1956 8.02934 26.0526 8.74796 26.0526 9.47368C26.0526 10.1994 26.1956 10.918 26.4733 11.5885C26.751 12.259 27.1581 12.8682 27.6713 13.3814C28.1844 13.8945 28.7936 14.3016 29.4641 14.5793C30.1346 14.8571 30.8532 15 31.579 15C33.0446 15 34.4503 14.4178 35.4866 13.3814C36.523 12.345 37.1053 10.9394 37.1053 9.47368C37.1053 8.00801 36.523 6.60237 35.4866 5.56599C34.4503 4.5296 33.0446 3.94737 31.579 3.94737ZM22.1053 9.47368C22.1053 6.96111 23.1034 4.55144 24.88 2.77478C26.6567 0.998118 29.0664 0 31.579 0C34.0915 0 36.5012 0.998118 38.2779 2.77478C40.0545 4.55144 41.0526 6.96111 41.0526 9.47368C41.0526 11.9863 40.0545 14.3959 38.2779 16.1726C36.5012 17.9492 34.0915 18.9474 31.579 18.9474C29.0664 18.9474 26.6567 17.9492 24.88 16.1726C23.1034 14.3959 22.1053 11.9863 22.1053 9.47368ZM52.1053 7.10526C51.0584 7.10526 50.0543 7.52115 49.3141 8.26142C48.5738 9.0017 48.1579 10.0057 48.1579 11.0526C48.1579 12.0995 48.5738 13.1036 49.3141 13.8438C50.0543 14.5841 51.0584 15 52.1053 15C53.1522 15 54.1562 14.5841 54.8965 13.8438C55.6368 13.1036 56.0526 12.0995 56.0526 11.0526C56.0526 10.0057 55.6368 9.0017 54.8965 8.26142C54.1562 7.52115 53.1522 7.10526 52.1053 7.10526ZM44.2105 11.0526C44.2105 8.95882 45.0423 6.95076 46.5228 5.47021C48.0034 3.98966 50.0115 3.15789 52.1053 3.15789C54.1991 3.15789 56.2071 3.98966 57.6877 5.47021C59.1682 6.95076 60 8.95882 60 11.0526C60 13.1464 59.1682 15.1545 57.6877 16.6351C56.2071 18.1156 54.1991 18.9474 52.1053 18.9474C50.0115 18.9474 48.0034 18.1156 46.5228 16.6351C45.0423 15.1545 44.2105 13.1464 44.2105 11.0526ZM7.10526 11.0526C7.10526 10.0057 7.52115 9.0017 8.26142 8.26142C9.0017 7.52115 10.0057 7.10526 11.0526 7.10526C12.0995 7.10526 13.1036 7.52115 13.8438 8.26142C14.5841 9.0017 15 10.0057 15 11.0526C15 12.0995 14.5841 13.1036 13.8438 13.8438C13.1036 14.5841 12.0995 15 11.0526 15C10.0057 15 9.0017 14.5841 8.26142 13.8438C7.52115 13.1036 7.10526 12.0995 7.10526 11.0526ZM11.0526 3.15789C8.95882 3.15789 6.95076 3.98966 5.47021 5.47021C3.98966 6.95076 3.1579 8.95882 3.1579 11.0526C3.1579 13.1464 3.98966 15.1545 5.47021 16.6351C6.95076 18.1156 8.95882 18.9474 11.0526 18.9474C13.1464 18.9474 15.1545 18.1156 16.6351 16.6351C18.1156 15.1545 18.9474 13.1464 18.9474 11.0526C18.9474 8.95882 18.1156 6.95076 16.6351 5.47021C15.1545 3.98966 13.1464 3.15789 11.0526 3.15789ZM17.3684 28.8158C17.3684 27.036 18.0754 25.3292 19.3339 24.0707C20.5924 22.8123 22.2992 22.1053 24.0789 22.1053H39.079C40.8587 22.1053 42.5655 22.8123 43.824 24.0707C45.0825 25.3292 45.7895 27.036 45.7895 28.8158V45.7895C45.7895 49.5583 44.2923 53.1728 41.6273 55.8378C38.9623 58.5028 35.3478 60 31.579 60C27.8101 60 24.1956 58.5028 21.5306 55.8378C18.8656 53.1728 17.3684 49.5583 17.3684 45.7895V28.8158ZM31.579 56.0526C34.3009 56.0526 36.9114 54.9713 38.8361 53.0466C40.7608 51.1219 41.8421 48.5114 41.8421 45.7895V28.8158C41.8421 28.083 41.551 27.3801 41.0328 26.8619C40.5146 26.3438 39.8118 26.0526 39.079 26.0526H24.0789C23.3461 26.0526 22.6433 26.3438 22.1251 26.8619C21.6069 27.3801 21.3158 28.083 21.3158 28.8158V45.7895C21.3158 48.5114 22.3971 51.1219 24.3218 53.0466C26.2465 54.9713 28.857 56.0526 31.579 56.0526ZM11.0526 51.3158C12.3728 51.3162 13.667 50.9488 14.79 50.2547C15.1358 51.5589 15.63 52.8016 16.2521 53.9653C14.5679 54.8631 12.6799 55.3095 10.7719 55.2611C8.86396 55.2126 7.00105 54.6709 5.36461 53.6887C3.72817 52.7064 2.37396 51.3172 1.43384 49.6562C0.493726 47.9952 -0.000254337 46.1191 1.85776e-07 44.2105V28.8174C-0.000207196 27.936 0.173213 27.0632 0.510356 26.2489C0.847498 25.4345 1.34176 24.6946 1.96491 24.0713C2.58806 23.448 3.32789 22.9536 4.14215 22.6162C4.95642 22.2789 5.82915 22.1053 6.71053 22.1053H15.3947C15.8505 22.1063 16.2932 22.15 16.7226 22.2363C15.7393 23.3338 15.0147 24.638 14.6021 26.0526H6.71053C5.97769 26.0526 5.27487 26.3438 4.75668 26.8619C4.23849 27.3801 3.94737 28.083 3.94737 28.8158V44.2105C3.94737 46.095 4.69596 47.9022 6.02845 49.2347C7.36095 50.5672 9.1682 51.3158 11.0526 51.3158ZM52.1053 55.2632C50.292 55.2641 48.5064 54.8189 46.9058 53.9668C47.5279 52.8016 48.0221 51.5589 48.3679 50.2547C49.4443 50.9204 50.6789 51.2866 51.9442 51.3153C53.2095 51.344 54.4594 51.0342 55.5649 50.4179C56.6703 49.8017 57.5911 48.9014 58.232 47.8101C58.873 46.7188 59.2108 45.4761 59.2105 44.2105V28.8158C59.2105 28.083 58.9194 27.3801 58.4012 26.8619C57.883 26.3438 57.1802 26.0526 56.4474 26.0526H48.5558C48.1428 24.6378 47.4176 23.3337 46.4337 22.2363C46.8653 22.15 47.3084 22.1063 47.7632 22.1053H56.4474C58.2271 22.1053 59.934 22.8123 61.1924 24.0707C62.4509 25.3292 63.1579 27.036 63.1579 28.8158V44.2105C63.1579 47.1419 61.9934 49.9531 59.9207 52.0259C57.8479 54.0987 55.0366 55.2632 52.1053 55.2632Z" fill="black"/>
</svg>
