<svg width="59" height="60" viewBox="0 0 59 60" fill="none" xmlns="http://www.w3.org/2000/svg">
<path d="M53.7559 46.1064C54.5725 44.9419 55.0536 43.526 55.0536 41.9989V38.9305C55.0536 35.2178 52.2179 32.1551 48.5987 31.7937C47.691 30.2433 46.2519 29.0403 44.5323 28.4381C45.3483 27.274 45.829 25.8585 45.829 24.3321V21.2637C45.829 17.3086 42.6112 14.0909 38.6562 14.0909C34.7011 14.0909 31.4835 17.3086 31.4835 21.2637V24.3321C31.4835 25.8585 31.9642 27.274 32.7802 28.4381C31.463 28.8994 30.3105 29.7132 29.435 30.7655C28.5595 29.7132 27.4071 28.8994 26.0899 28.4381C26.9059 27.274 27.3866 25.8585 27.3866 24.3321V21.2637C27.3866 17.3086 24.1689 14.0909 20.2138 14.0909C16.2587 14.0909 13.041 17.3086 13.041 21.2637V24.3321C13.041 25.8585 13.5217 27.274 14.3377 28.4381C12.6182 29.0402 11.1792 30.2429 10.2715 31.7931C6.64898 32.1512 3.80965 35.2153 3.80965 38.9304V41.9988C3.80965 43.5258 4.29082 44.9417 5.10727 46.1061C2.13691 47.146 0 49.9755 0 53.2964V60H58.8629V53.2966C58.8632 49.9759 56.7262 47.1463 53.7559 46.1064ZM38.6562 48.4355C37.7802 47.3815 36.6255 46.5681 35.3068 46.1064C36.1234 44.9419 36.6046 43.526 36.6046 41.9989V38.9305C36.6046 36.1247 34.9843 33.6915 32.6311 32.5134C33.3477 31.9003 34.2762 31.5282 35.2911 31.5282H42.0216C43.0365 31.5282 43.965 31.9004 44.6816 32.5134C42.3284 33.6915 40.7081 36.1247 40.7081 38.9305V41.9989C40.7081 43.5259 41.1893 44.9419 42.0057 46.1062C40.6869 46.5681 39.5321 47.3815 38.6562 48.4355ZM20.2071 48.4355C19.3311 47.3815 18.1765 46.5681 16.8577 46.1064C17.6742 44.942 18.1553 43.526 18.1553 41.9991V38.9306C18.1553 36.1266 16.5369 33.6946 14.186 32.5158C14.903 31.9014 15.8325 31.5283 16.8486 31.5283H23.5791C24.5928 31.5283 25.5203 31.8996 26.2365 32.5114C23.8811 33.6887 22.2588 36.1232 22.2588 38.9306V41.9991C22.2588 43.526 22.74 44.942 23.5564 46.1064C22.2377 46.5681 21.0831 47.3815 20.2071 48.4355ZM33.0888 41.9991C33.0888 44.0156 31.4482 45.6562 29.4316 45.6562C27.4151 45.6562 25.7745 44.0156 25.7745 41.9991V38.9306C25.7745 36.9141 27.4151 35.2734 29.4316 35.2734C31.4482 35.2734 33.0888 36.9141 33.0888 38.9306V41.9991ZM51.538 38.9306V41.9991C51.538 44.0156 49.8974 45.6562 47.8808 45.6562C45.8643 45.6562 44.2236 44.0156 44.2236 41.9991V38.9306C44.2236 36.9141 45.8643 35.2734 47.8808 35.2734C49.8974 35.2734 51.538 36.9141 51.538 38.9306ZM34.9991 21.2639C34.9991 19.2473 36.6396 17.6067 38.6562 17.6067C40.6727 17.6067 42.3134 19.2473 42.3134 21.2639V24.3323C42.3134 26.3489 40.6727 27.9895 38.6562 27.9895C36.6396 27.9895 34.9991 26.3489 34.9991 24.3323V21.2639ZM16.5567 21.2639C16.5567 19.2473 18.1973 17.6067 20.2139 17.6067C22.2305 17.6067 23.8711 19.2473 23.8711 21.2639V24.3323C23.8711 26.3489 22.2305 27.9895 20.2139 27.9895C18.1973 27.9895 16.5567 26.3489 16.5567 24.3323V21.2639ZM7.32539 38.9306C7.32539 36.9141 8.96601 35.2734 10.9826 35.2734C12.9991 35.2734 14.6398 36.9141 14.6398 38.9306V41.9991C14.6398 44.0156 12.9991 45.6562 10.9826 45.6562C8.96601 45.6562 7.32539 44.0156 7.32539 41.9991V38.9306ZM18.4493 56.4844H3.51574V53.2966C3.51574 51.035 5.3557 49.1951 7.6173 49.1951H14.3477C16.6093 49.1951 18.4493 51.035 18.4493 53.2966V56.4844ZM36.8984 56.4844H21.9649V53.2966C21.9649 51.035 23.8049 49.1951 26.0665 49.1951H32.7968C35.0584 49.1951 36.8984 51.035 36.8984 53.2966V56.4844ZM55.3475 56.4844H40.414V53.2966C40.414 51.035 42.2539 49.1951 44.5155 49.1951H51.246C53.5076 49.1951 55.3475 51.035 55.3475 53.2966V56.4844Z" fill="black"/>
<path d="M14.2952 4.31018L16.7104 1.75432L23.04 7.73565L20.6247 10.2915L14.2952 4.31018Z" fill="black"/>
<path d="M27.6738 0H31.1895V7.53937H27.6738V0Z" fill="black"/>
<path d="M35.8418 7.75281L42.1714 1.77148L44.5865 4.32725L38.2569 10.3086L35.8418 7.75281Z" fill="black"/>
</svg>
