<svg width="17" height="17" viewBox="0 0 17 17" fill="none" xmlns="http://www.w3.org/2000/svg">
<path d="M4.32625 7.65625L8.545 3.4375L7.13875 2.0625L5.2325 4C5.17 4.03125 5.1075 4.0625 5.045 4.0625C4.9825 4.0625 4.92 4.03125 4.88875 4L4.51375 3.625C4.42 3.53125 4.42 3.375 4.51375 3.28125L6.45125 1.34375L5.38875 0.3125C5.01375 -0.09375 4.38875 -0.09375 4.01375 0.3125L1.20125 3.09375C0.795 3.5 0.795 4.125 1.20125 4.5L4.32625 7.65625ZM16.4513 4C17.045 3.40625 17.045 2.46875 16.4513 1.875L15.045 0.46875C14.4513 -0.125 13.5138 -0.125 12.92 0.46875L11.4825 1.90625L15.0138 5.4375L16.4513 4ZM10.795 2.59375L1.51375 11.875L0.92 15.25C0.82625 15.6875 1.2325 16.0938 1.67 16L5.045 15.4062L14.3263 6.125L10.795 2.59375ZM16.6075 11.5312L15.5763 10.4688L13.6388 12.4062C13.545 12.5 13.3888 12.5 13.295 12.4062L12.92 12.0312C12.8263 11.9375 12.8263 11.7812 12.92 11.6875L14.8575 9.78125L13.4825 8.375L9.26375 12.5938L12.42 15.7188C12.795 16.125 13.42 16.125 13.8263 15.7188L16.6075 12.9062C17.0138 12.5312 17.0138 11.9062 16.6075 11.5312Z" fill="white"/>
</svg>
