<svg width="18" height="19" viewBox="0 0 18 19" fill="none" xmlns="http://www.w3.org/2000/svg">
<path d="M1.83732 17.2857V14.3929H4.73017V17.2857H1.83732ZM5.37303 17.2857V14.3929H8.58732V17.2857H5.37303ZM1.83732 13.75V10.5357H4.73017V13.75H1.83732ZM5.37303 13.75V10.5357H8.58732V13.75H5.37303ZM1.83732 9.89286V7H4.73017V9.89286H1.83732ZM9.23017 17.2857V14.3929H12.4445V17.2857H9.23017ZM5.37303 9.89286V7H8.58732V9.89286H5.37303ZM13.0873 17.2857V14.3929H15.9802V17.2857H13.0873ZM9.23017 13.75V10.5357H12.4445V13.75H9.23017ZM5.69446 5.07143C5.69446 5.24219 5.54379 5.39286 5.37303 5.39286H4.73017C4.55941 5.39286 4.40874 5.24219 4.40874 5.07143V2.17857C4.40874 2.00781 4.55941 1.85714 4.73017 1.85714H5.37303C5.54379 1.85714 5.69446 2.00781 5.69446 2.17857V5.07143ZM13.0873 13.75V10.5357H15.9802V13.75H13.0873ZM9.23017 9.89286V7H12.4445V9.89286H9.23017ZM13.0873 9.89286V7H15.9802V9.89286H13.0873ZM13.4087 5.07143C13.4087 5.24219 13.2581 5.39286 13.0873 5.39286H12.4445C12.2737 5.39286 12.123 5.24219 12.123 5.07143V2.17857C12.123 2.00781 12.2737 1.85714 12.4445 1.85714H13.0873C13.2581 1.85714 13.4087 2.00781 13.4087 2.17857V5.07143ZM17.2659 4.42857C17.2659 3.72545 16.6833 3.14286 15.9802 3.14286H14.6945V2.17857C14.6945 1.29464 13.9712 0.571427 13.0873 0.571427H12.4445C11.5605 0.571427 10.8373 1.29464 10.8373 2.17857V3.14286H6.98017V2.17857C6.98017 1.29464 6.25696 0.571427 5.37303 0.571427H4.73017C3.84624 0.571427 3.12303 1.29464 3.12303 2.17857V3.14286H1.83732C1.13419 3.14286 0.551601 3.72545 0.551601 4.42857V17.2857C0.551601 17.9888 1.13419 18.5714 1.83732 18.5714H15.9802C16.6833 18.5714 17.2659 17.9888 17.2659 17.2857V4.42857Z" fill="white"/>
</svg>
