<svg width="21" height="14" viewBox="0 0 21 14" fill="none" xmlns="http://www.w3.org/2000/svg">
<path d="M3.92 6C5.01375 6 5.92 5.125 5.92 4C5.92 2.90625 5.01375 2 3.92 2C2.795 2 1.92 2.90625 1.92 4C1.92 5.125 2.795 6 3.92 6ZM17.92 6C19.0138 6 19.92 5.125 19.92 4C19.92 2.90625 19.0138 2 17.92 2C16.795 2 15.92 2.90625 15.92 4C15.92 5.125 16.795 6 17.92 6ZM18.92 7H16.92C16.3575 7 15.8575 7.25 15.4825 7.59375C16.7638 8.28125 17.6388 9.53125 17.8575 11H19.92C20.4513 11 20.92 10.5625 20.92 10V9C20.92 7.90625 20.0138 7 18.92 7ZM10.92 7C12.8263 7 14.42 5.4375 14.42 3.5C14.42 1.59375 12.8263 0 10.92 0C8.9825 0 7.42 1.59375 7.42 3.5C7.42 5.4375 8.9825 7 10.92 7ZM13.295 8H13.045C12.3888 8.3125 11.67 8.5 10.92 8.5C10.1388 8.5 9.42 8.3125 8.76375 8H8.51375C6.51375 8 4.92 9.625 4.92 11.625V12.5C4.92 13.3438 5.57625 14 6.42 14H15.42C16.2325 14 16.92 13.3438 16.92 12.5V11.625C16.92 9.625 15.295 8 13.295 8ZM6.32625 7.59375C5.95125 7.25 5.45125 7 4.92 7H2.92C1.795 7 0.92 7.90625 0.92 9V10C0.92 10.5625 1.3575 11 1.92 11H3.95125C4.17 9.53125 5.045 8.28125 6.32625 7.59375Z" fill="white"/>
</svg>
