<svg width="45" height="62" viewBox="0 0 45 62" fill="none" xmlns="http://www.w3.org/2000/svg">
<path d="M42.4366 53.8646C43.2011 53.2353 43.7915 52.4207 44.1516 51.4984C44.5117 50.5761 44.6294 49.5769 44.4936 48.5962C44.4864 48.5416 44.4742 48.4878 44.4573 48.4354L37.9237 27.8768C38.5213 27.6238 39.017 27.1778 39.3313 26.6101C39.6457 26.0423 39.7607 25.3856 39.6579 24.7448C39.5552 24.104 39.2406 23.5162 38.7644 23.0752C38.2883 22.6342 37.678 22.3655 37.0312 22.3121L38.3118 16.5661C38.3167 16.5419 38.3215 16.5177 38.3251 16.4923C38.3937 16.0121 38.3584 15.5227 38.2214 15.0574C38.0844 14.592 37.849 14.1616 37.5311 13.7951C37.2132 13.4286 36.8203 13.1347 36.379 12.9333C35.9376 12.7319 35.4582 12.6277 34.9731 12.6278H33.892V12.1441C33.891 11.2464 33.5339 10.3858 32.8992 9.75111C32.2644 9.11638 31.4037 8.75936 30.506 8.75837H29.5386C28.6409 8.75936 27.7803 9.11638 27.1455 9.75111C26.5107 10.3858 26.1537 11.2464 26.1527 12.1441V12.6278H23.2057C23.2347 12.3085 23.2505 11.9869 23.2505 11.6604C23.2526 9.27544 22.4542 6.95874 20.9831 5.08146C19.512 3.20417 17.4533 1.87495 15.1369 1.30672C12.8204 0.738485 10.3803 0.964137 8.20733 1.94752C6.03439 2.93091 4.25442 4.61511 3.15255 6.73033C2.05069 8.84555 1.6907 11.2694 2.13027 13.6135C2.56984 15.9576 3.78352 18.0864 5.57688 19.6588C7.37024 21.2311 9.6395 22.1561 12.0211 22.2856C14.4027 22.415 16.7589 21.7414 18.7121 20.3726L19.1438 22.3121C18.5062 22.3641 17.9036 22.6254 17.4299 23.0553C16.9562 23.4853 16.6379 24.0597 16.5245 24.6893C16.4111 25.3188 16.509 25.9682 16.8029 26.5364C17.0969 27.1046 17.5704 27.5597 18.1498 27.8308L13.8218 41.653H7.77188V39.7135C7.77188 39.4569 7.66995 39.2109 7.48853 39.0295C7.3071 38.8481 7.06104 38.7462 6.80447 38.7462H1.96741C1.71084 38.7462 1.46477 38.8481 1.28335 39.0295C1.10192 39.2109 1 39.4569 1 39.7135V55.1911C1 55.4476 1.10192 55.6937 1.28335 55.8751C1.46477 56.0565 1.71084 56.1584 1.96741 56.1584H6.80447C7.06104 56.1584 7.3071 56.0565 7.48853 55.8751C7.66995 55.6937 7.77188 55.4476 7.77188 55.1911V53.2612H9.88446C10.1384 53.2614 10.3823 53.3607 10.5641 53.5381L17.2972 60.1717C17.8396 60.7036 18.5692 61.001 19.3288 61H40.6687C41.4381 60.999 42.1757 60.6929 42.7197 60.1489C43.2638 59.6049 43.5699 58.8673 43.5709 58.098V56.1633C43.571 55.7188 43.4687 55.2802 43.272 54.8816C43.0753 54.483 42.7895 54.135 42.4366 53.8646ZM5.83705 54.2237H2.93482V40.6809H5.83705V54.2237ZM33.892 14.5625H34.9731C35.1782 14.5627 35.3809 14.6064 35.5679 14.6906C35.7549 14.7749 35.9219 14.8977 36.0581 15.0511C36.1942 15.2045 36.2964 15.3849 36.3578 15.5806C36.4192 15.7763 36.4386 15.9827 36.4145 16.1864L35.0517 22.3012H33.892V14.5625ZM26.1527 14.5625V18.4318C26.1527 18.6884 26.2546 18.9345 26.436 19.1159C26.6175 19.2973 26.8635 19.3992 27.1201 19.3992C27.3767 19.3992 27.6227 19.2973 27.8042 19.1159C27.9856 18.9345 28.0875 18.6884 28.0875 18.4318V12.1441C28.0878 11.7593 28.2408 11.3905 28.5129 11.1184C28.7849 10.8464 29.1539 10.6934 29.5386 10.6931H30.506C30.8908 10.6934 31.2597 10.8464 31.5318 11.1184C31.8038 11.3905 31.9568 11.7593 31.9571 12.1441V22.3012H28.0875V21.3339C28.0875 21.0773 27.9856 20.8313 27.8042 20.6499C27.6227 20.4685 27.3767 20.3665 27.1201 20.3665C26.8635 20.3665 26.6175 20.4685 26.436 20.6499C26.2546 20.8313 26.1527 21.0773 26.1527 21.3339V22.3012H21.1234L20.3724 18.9288C21.5344 17.6919 22.3832 16.1947 22.8478 14.5625H26.1527ZM12.6089 20.3665C10.814 20.3654 9.06327 19.8091 7.59683 18.774C6.1304 17.739 5.02 16.2757 4.41783 14.5849C3.81566 12.894 3.75119 11.0583 4.23327 9.32942C4.71534 7.6005 5.72037 6.06298 7.11058 4.9276C8.50078 3.79222 10.2081 3.11455 11.9986 2.98748C13.7891 2.86041 15.575 3.29016 17.1117 4.21782C18.6483 5.14549 19.8604 6.52566 20.5819 8.16917C21.3033 9.81267 21.4988 11.6391 21.1415 13.398C21.1405 13.4003 21.1401 13.4028 21.1403 13.4053C20.7353 15.3695 19.6659 17.1341 18.1119 18.4021C16.558 19.67 14.6146 20.3638 12.6089 20.3665ZM19.3808 24.2359H36.7942C37.0508 24.2359 37.2968 24.3379 37.4783 24.5193C37.6597 24.7007 37.7616 24.9467 37.7616 25.2033C37.7616 25.4598 37.6597 25.7059 37.4783 25.8873C37.2968 26.0687 37.0508 26.1706 36.7942 26.1706H19.3808C19.1242 26.1706 18.8782 26.0687 18.6967 25.8873C18.5153 25.7059 18.4134 25.4598 18.4134 25.2033C18.4134 24.9467 18.5153 24.7007 18.6967 24.5193C18.8782 24.3379 19.1242 24.2359 19.3808 24.2359ZM41.6361 58.098C41.6357 58.3544 41.5337 58.6002 41.3524 58.7816C41.171 58.9629 40.9252 59.0649 40.6687 59.0653H19.3288C19.0763 59.0656 18.8336 58.9671 18.6528 58.7908L11.9221 52.1609C11.3801 51.6241 10.6473 51.324 9.88446 51.3265H7.77671V43.5877H17.452L21.5418 43.5781H21.5442C21.6778 43.5782 21.81 43.606 21.9323 43.6597C22.0547 43.7134 22.1646 43.7918 22.2552 43.89L30.1336 52.445C30.1422 52.4549 30.1515 52.4642 30.1614 52.4728C30.319 52.6308 30.4172 52.8383 30.4397 53.0603C30.4622 53.2823 30.4074 53.5053 30.2847 53.6917H30.2835C30.248 53.7457 30.2071 53.7959 30.1614 53.8416L28.7937 55.2092C28.612 55.3904 28.3659 55.4922 28.1093 55.4922C27.8527 55.4922 27.6065 55.3904 27.4248 55.2092L21.2685 49.0532C21.1795 48.9596 21.0727 48.8848 20.9544 48.8331C20.8361 48.7814 20.7086 48.7539 20.5795 48.7523C20.4504 48.7506 20.3222 48.7748 20.2026 48.8235C20.083 48.8721 19.9744 48.9442 19.8831 49.0355C19.7917 49.1268 19.7196 49.2355 19.671 49.3551C19.6223 49.4747 19.5981 49.6028 19.5998 49.7319C19.6014 49.861 19.6289 49.9885 19.6806 50.1068C19.7323 50.2251 19.8072 50.3319 19.9008 50.4208L26.0572 56.5768C26.6014 57.121 27.3396 57.4267 28.1093 57.4267C28.879 57.4267 29.6171 57.121 30.1614 56.5768L31.5291 55.2092C31.5339 55.2056 31.5375 55.1995 31.5424 55.1959H40.6687C40.9253 55.1959 41.1713 55.2978 41.3527 55.4792C41.5342 55.6606 41.6361 55.9067 41.6361 56.1633V58.098ZM21.3156 40.6809C21.3152 39.3448 21.7101 38.0385 22.4506 36.9263C23.191 35.8142 24.2439 34.946 25.4768 34.4309C26.7096 33.9158 28.0673 33.7769 29.3789 34.0317C30.6906 34.2865 31.8975 34.9236 32.8478 35.8628C33.7981 36.8019 34.4493 38.0012 34.7195 39.3097C34.9897 40.6182 34.8667 41.9773 34.3661 43.216C33.8654 44.4547 33.0095 45.5177 31.9061 46.2711C30.8026 47.0245 29.501 47.4346 28.1649 47.4499L23.6797 42.5805C23.4076 42.2855 23.0775 42.0499 22.71 41.8886C22.3424 41.7274 21.9455 41.6439 21.5442 41.6434H21.5381L21.3858 41.6446C21.34 41.3253 21.3166 41.0033 21.3156 40.6809ZM38.7435 53.2564H32.3768C32.3901 52.8626 32.3233 52.4703 32.1802 52.1032C32.0372 51.7361 31.821 51.4019 31.5448 51.121L29.7926 49.2177C31.4097 48.8948 32.9018 48.1193 34.0954 46.9815C35.2889 45.8437 36.1348 44.3903 36.5345 42.7906C36.9343 41.1908 36.8714 39.5105 36.3534 37.945C35.8353 36.3796 34.8833 34.9934 33.6082 33.9479C32.333 32.9024 30.7871 32.2404 29.1504 32.0391C27.5137 31.8378 25.8535 32.1054 24.3629 32.8108C22.8724 33.5162 21.6128 34.6303 20.7308 36.0236C19.8488 37.4169 19.3807 39.0319 19.3808 40.6809C19.3814 41.004 19.3996 41.327 19.4352 41.6482L17.4508 41.653H15.8498L20.0919 28.1053H23.2505V30.04C23.2505 30.2966 23.3524 30.5426 23.5338 30.724C23.7152 30.9055 23.9613 31.0074 24.2179 31.0074C24.4744 31.0074 24.7205 30.9055 24.9019 30.724C25.0834 30.5426 25.1853 30.2966 25.1853 30.04V28.1053H35.9659L42.5878 48.9372C42.6511 49.4796 42.599 50.0293 42.4347 50.5502C42.2704 51.071 41.9978 51.5512 41.6347 51.9591C41.2716 52.3671 40.8263 52.6936 40.328 52.9172C39.8297 53.1408 39.2897 53.2564 38.7435 53.2564Z" fill="black" stroke="black" stroke-width="0.4"/>
<path d="M26.1527 42.6156C25.8961 42.6156 25.65 42.7175 25.4686 42.8989C25.2872 43.0803 25.1853 43.3263 25.1853 43.5829C25.1853 43.8395 25.2872 44.0855 25.4686 44.2669C25.65 44.4483 25.8961 44.5502 26.1527 44.5502H27.1201C27.1201 44.8068 27.222 45.0529 27.4034 45.2343C27.5849 45.4157 27.8309 45.5176 28.0875 45.5176C28.3441 45.5176 28.5901 45.4157 28.7716 45.2343C28.953 45.0529 29.0549 44.8068 29.0549 44.5502H30.0223C30.2789 44.5502 30.525 44.4483 30.7064 44.2669C30.8878 44.0855 30.9897 43.8395 30.9897 43.5829V40.6809C30.9897 40.4243 30.8878 40.1782 30.7064 39.9968C30.525 39.8154 30.2789 39.7135 30.0223 39.7135H27.1201V38.7462H30.0223C30.2789 38.7462 30.525 38.6442 30.7064 38.4628C30.8878 38.2814 30.9897 38.0354 30.9897 37.7788C30.9897 37.5223 30.8878 37.2762 30.7064 37.0948C30.525 36.9134 30.2789 36.8115 30.0223 36.8115H29.0549C29.0549 36.5549 28.953 36.3089 28.7716 36.1274C28.5901 35.946 28.3441 35.8441 28.0875 35.8441C27.8309 35.8441 27.5849 35.946 27.4034 36.1274C27.222 36.3089 27.1201 36.5549 27.1201 36.8115H26.1527C25.8961 36.8115 25.65 36.9134 25.4686 37.0948C25.2872 37.2762 25.1853 37.5223 25.1853 37.7788V40.6809C25.1853 40.9374 25.2872 41.1835 25.4686 41.3649C25.65 41.5463 25.8961 41.6482 26.1527 41.6482H29.0549V42.6156H26.1527Z" fill="black" stroke="black" stroke-width="0.4"/>
<path d="M16.7619 8.07435L11.5182 13.3177L9.27595 11.8229C9.17027 11.7517 9.05154 11.702 8.92659 11.6767C8.80164 11.6515 8.67293 11.6512 8.54786 11.6758C8.42279 11.7005 8.30383 11.7496 8.19781 11.8204C8.09179 11.8912 8.00081 11.9822 7.93009 12.0883C7.85937 12.1943 7.81031 12.3133 7.78573 12.4384C7.76115 12.5635 7.76154 12.6922 7.78686 12.8171C7.81219 12.942 7.86195 13.0607 7.9333 13.1663C8.00465 13.272 8.09617 13.3625 8.20261 13.4326L11.1048 15.3673C11.2909 15.4914 11.5143 15.5471 11.7368 15.5251C11.9594 15.503 12.1675 15.4045 12.3256 15.2464L18.1301 9.4423C18.3115 9.26088 18.4134 9.01483 18.4134 8.75827C18.4134 8.5017 18.3115 8.25565 18.1301 8.07423C17.9486 7.89281 17.7026 7.79089 17.446 7.79089C17.1894 7.79089 16.9433 7.89281 16.7619 8.07423V8.07435Z" fill="black" stroke="black" stroke-width="0.4"/>
</svg>
