<svg width="13" height="16" viewBox="0 0 13 16" fill="none" xmlns="http://www.w3.org/2000/svg">
<path d="M12.7013 3.28125L9.63875 0.21875C9.4825 0.09375 9.295 0 9.1075 0H8.92V4H12.92V3.8125C12.92 3.625 12.8263 3.4375 12.7013 3.28125ZM4.92 10.5C4.3575 10.5 3.92 10.9062 3.92 11.3438C3.92 11.8125 4.3575 12.1875 4.92 12.1875C5.4825 12.1875 5.92 11.8125 5.92 11.3438C5.92 10.9062 5.4825 10.5 4.92 10.5ZM7.92 4.25V0H5.92V1H4.92V0H1.67C1.2325 0 0.92 0.34375 0.92 0.75V15.25C0.92 15.6875 1.2325 16 1.67 16H12.17C12.5763 16 12.92 15.6875 12.92 15.25V5H8.67C8.2325 5 7.92 4.6875 7.92 4.25ZM3.88875 1H4.88875V2H3.88875V1ZM4.92 13C3.88875 13 3.1075 12.0625 3.295 11.0625L3.92 8V7H4.92V6H3.92V5H4.92V4H3.92V3H4.92V2H5.92V3H4.92V4H5.92V5H4.92V6H5.92V7H4.92V8H5.6075C5.795 8 5.95125 8.15625 5.9825 8.3125L6.51375 11.0625C6.7325 12.0625 5.95125 13 4.92 13Z" fill="white"/>
</svg>
