<svg width="55" height="60" viewBox="0 0 55 60" fill="none" xmlns="http://www.w3.org/2000/svg">
<path d="M39.875 2.72726H30.25V1.36363C30.2501 1.18452 30.2146 1.00715 30.1456 0.841663C30.0765 0.676171 29.9752 0.525803 29.8475 0.399157C29.7198 0.272512 29.5682 0.172072 29.4013 0.103581C29.2344 0.0350907 29.0556 -0.000107314 28.875 2.45769e-07H12.375C12.1944 -0.000107314 12.0156 0.0350907 11.8487 0.103581C11.6818 0.172072 11.5302 0.272512 11.4025 0.399157C11.2748 0.525803 11.1735 0.676171 11.1044 0.841663C11.0354 1.00715 10.9999 1.18452 11 1.36363V2.72726H1.375C1.1944 2.72715 1.01555 2.76235 0.848682 2.83084C0.681811 2.89933 0.530189 2.99977 0.402487 3.12641C0.274785 3.25306 0.173507 3.40343 0.104445 3.56892C0.035383 3.73441 -0.000108209 3.91178 2.47821e-07 4.09088V58.636C-0.000108209 58.8151 0.035383 58.9925 0.104445 59.158C0.173507 59.3234 0.274785 59.4738 0.402487 59.6005C0.530189 59.7271 0.681811 59.8275 0.848682 59.896C1.01555 59.9645 1.1944 59.9997 1.375 59.9996H39.875C40.0556 59.9997 40.2344 59.9645 40.4013 59.896C40.5682 59.8275 40.7198 59.7271 40.8475 59.6005C40.9752 59.4738 41.0765 59.3234 41.1456 59.158C41.2146 58.9925 41.2501 58.8151 41.25 58.636V4.09088C41.2501 3.91178 41.2146 3.73441 41.1456 3.56892C41.0765 3.40343 40.9752 3.25306 40.8475 3.12641C40.7198 2.99977 40.5682 2.89933 40.4013 2.83084C40.2344 2.76235 40.0556 2.72715 39.875 2.72726ZM13.75 2.72726H27.5V5.45451H13.75V2.72726ZM38.5 57.2724H2.75V5.45451H11V6.81814C10.9999 6.99724 11.0354 7.17461 11.1044 7.3401C11.1735 7.50559 11.2748 7.65596 11.4025 7.78261C11.5302 7.90925 11.6818 8.00969 11.8487 8.07818C12.0156 8.14668 12.1944 8.18187 12.375 8.18177H28.875C29.0556 8.18187 29.2344 8.14668 29.4013 8.07818C29.5682 8.00969 29.7198 7.90925 29.8475 7.78261C29.9752 7.65596 30.0765 7.50559 30.1456 7.3401C30.2146 7.17461 30.2501 6.99724 30.25 6.81814V5.45451H38.5V57.2724Z" fill="black"/>
<path d="M50.875 5.45447C49.7814 5.45566 48.7328 5.88704 47.9595 6.65398C47.1862 7.42091 46.7512 8.46075 46.75 9.54535V53.1814C46.7506 53.3931 46.8002 53.6017 46.895 53.7913L49.645 59.2458C49.7592 59.4724 49.9347 59.663 50.152 59.7962C50.3692 59.9294 50.6196 60 50.875 60C51.1304 60 51.3808 59.9294 51.598 59.7962C51.8153 59.663 51.9908 59.4724 52.105 59.2458L54.855 53.7913C54.9498 53.6017 54.9994 53.3931 55 53.1814V9.54535C54.9988 8.46075 54.5638 7.42091 53.7905 6.65398C53.0172 5.88704 51.9686 5.45566 50.875 5.45447ZM50.875 8.18172C51.2395 8.18219 51.589 8.32601 51.8467 8.58164C52.1045 8.83727 52.2495 9.18384 52.25 9.54535V13.6362H49.5V9.54535C49.5005 9.18384 49.6455 8.83727 49.9033 8.58164C50.161 8.32601 50.5105 8.18219 50.875 8.18172ZM50.875 55.5864L49.5 52.8591V16.3635H52.25V52.8591L50.875 55.5864Z" fill="black"/>
<path d="M12.375 13.6362H9.62498C9.26031 13.6362 8.91058 13.7799 8.65271 14.0356C8.39485 14.2914 8.24998 14.6382 8.24998 14.9999C8.24998 15.3615 8.39485 15.7084 8.65271 15.9641C8.91058 16.2198 9.26031 16.3635 9.62498 16.3635H12.375C12.7397 16.3635 13.0894 16.2198 13.3473 15.9641C13.6051 15.7084 13.75 15.3615 13.75 14.9999C13.75 14.6382 13.6051 14.2914 13.3473 14.0356C13.0894 13.7799 12.7397 13.6362 12.375 13.6362Z" fill="black"/>
<path d="M16.5 14.9999C16.4999 15.179 16.5354 15.3563 16.6044 15.5218C16.6735 15.6873 16.7748 15.8377 16.9025 15.9643C17.0302 16.091 17.1818 16.1914 17.3487 16.2599C17.5156 16.3284 17.6944 16.3636 17.875 16.3635H31.625C31.9897 16.3635 32.3394 16.2198 32.5973 15.9641C32.8551 15.7084 33 15.3615 33 14.9999C33 14.6382 32.8551 14.2914 32.5973 14.0356C32.3394 13.7799 31.9897 13.6362 31.625 13.6362H17.875C17.6944 13.6361 17.5156 13.6713 17.3487 13.7398C17.1818 13.8083 17.0302 13.9087 16.9025 14.0354C16.7748 14.162 16.6735 14.3124 16.6044 14.4779C16.5354 14.6434 16.4999 14.8208 16.5 14.9999Z" fill="black"/>
<path d="M12.375 21.818H9.62498C9.26031 21.818 8.91058 21.9617 8.65271 22.2174C8.39485 22.4731 8.24998 22.82 8.24998 23.1816C8.24998 23.5433 8.39485 23.8901 8.65271 24.1459C8.91058 24.4016 9.26031 24.5452 9.62498 24.5452H12.375C12.7397 24.5452 13.0894 24.4016 13.3473 24.1459C13.6051 23.8901 13.75 23.5433 13.75 23.1816C13.75 22.82 13.6051 22.4731 13.3473 22.2174C13.0894 21.9617 12.7397 21.818 12.375 21.818Z" fill="black"/>
<path d="M31.625 21.818H17.875C17.5103 21.818 17.1606 21.9617 16.9027 22.2174C16.6449 22.4731 16.5 22.82 16.5 23.1816C16.5 23.5433 16.6449 23.8901 16.9027 24.1459C17.1606 24.4016 17.5103 24.5452 17.875 24.5452H31.625C31.9897 24.5452 32.3394 24.4016 32.5973 24.1459C32.8551 23.8901 33 23.5433 33 23.1816C33 22.82 32.8551 22.4731 32.5973 22.2174C32.3394 21.9617 31.9897 21.818 31.625 21.818Z" fill="black"/>
<path d="M12.375 29.9998H9.62498C9.26031 29.9998 8.91058 30.1434 8.65271 30.3992C8.39485 30.6549 8.24998 31.0017 8.24998 31.3634C8.24998 31.725 8.39485 32.0719 8.65271 32.3276C8.91058 32.5833 9.26031 32.727 9.62498 32.727H12.375C12.7397 32.727 13.0894 32.5833 13.3473 32.3276C13.6051 32.0719 13.75 31.725 13.75 31.3634C13.75 31.0017 13.6051 30.6549 13.3473 30.3992C13.0894 30.1434 12.7397 29.9998 12.375 29.9998Z" fill="black"/>
<path d="M31.625 29.9998H17.875C17.5103 29.9998 17.1606 30.1434 16.9027 30.3992C16.6449 30.6549 16.5 31.0017 16.5 31.3634C16.5 31.725 16.6449 32.0719 16.9027 32.3276C17.1606 32.5833 17.5103 32.727 17.875 32.727H31.625C31.9897 32.727 32.3394 32.5833 32.5973 32.3276C32.8551 32.0719 33 31.725 33 31.3634C33 31.0017 32.8551 30.6549 32.5973 30.3992C32.3394 30.1434 31.9897 29.9998 31.625 29.9998Z" fill="black"/>
<path d="M12.375 38.1815H9.62498C9.26031 38.1815 8.91058 38.3252 8.65271 38.5809C8.39485 38.8366 8.24998 39.1835 8.24998 39.5451C8.24998 39.9068 8.39485 40.2536 8.65271 40.5094C8.91058 40.7651 9.26031 40.9088 9.62498 40.9088H12.375C12.7397 40.9088 13.0894 40.7651 13.3473 40.5094C13.6051 40.2536 13.75 39.9068 13.75 39.5451C13.75 39.1835 13.6051 38.8366 13.3473 38.5809C13.0894 38.3252 12.7397 38.1815 12.375 38.1815Z" fill="black"/>
<path d="M31.625 38.1815H17.875C17.5103 38.1815 17.1606 38.3252 16.9027 38.5809C16.6449 38.8366 16.5 39.1835 16.5 39.5451C16.5 39.9068 16.6449 40.2536 16.9027 40.5094C17.1606 40.7651 17.5103 40.9088 17.875 40.9088H31.625C31.9897 40.9088 32.3394 40.7651 32.5973 40.5094C32.8551 40.2536 33 39.9068 33 39.5451C33 39.1835 32.8551 38.8366 32.5973 38.5809C32.3394 38.3252 31.9897 38.1815 31.625 38.1815Z" fill="black"/>
<path d="M12.375 46.3633H9.62498C9.26031 46.3633 8.91058 46.5069 8.65271 46.7627C8.39485 47.0184 8.24998 47.3653 8.24998 47.7269C8.24998 48.0886 8.39485 48.4354 8.65271 48.6911C8.91058 48.9469 9.26031 49.0905 9.62498 49.0905H12.375C12.7397 49.0905 13.0894 48.9469 13.3473 48.6911C13.6051 48.4354 13.75 48.0886 13.75 47.7269C13.75 47.3653 13.6051 47.0184 13.3473 46.7627C13.0894 46.5069 12.7397 46.3633 12.375 46.3633Z" fill="black"/>
<path d="M31.625 46.3633H17.875C17.5103 46.3633 17.1606 46.5069 16.9027 46.7627C16.6449 47.0184 16.5 47.3653 16.5 47.7269C16.5 48.0886 16.6449 48.4354 16.9027 48.6911C17.1606 48.9469 17.5103 49.0905 17.875 49.0905H31.625C31.9897 49.0905 32.3394 48.9469 32.5973 48.6911C32.8551 48.4354 33 48.0886 33 47.7269C33 47.3653 32.8551 47.0184 32.5973 46.7627C32.3394 46.5069 31.9897 46.3633 31.625 46.3633Z" fill="black"/>
</svg>
