<svg width="17" height="17" viewBox="0 0 17 17" fill="none" xmlns="http://www.w3.org/2000/svg">
<path d="M10.6133 0.875C11.1966 1.45833 11.4883 2.16667 11.4883 3C11.4883 3.83333 11.1966 4.54167 10.6133 5.125C10.0299 5.70833 9.32161 6 8.48828 6C7.65495 6 6.94661 5.70833 6.36328 5.125C5.77995 4.54167 5.48828 3.83333 5.48828 3C5.48828 2.16667 5.77995 1.45833 6.36328 0.875C6.94661 0.291667 7.65495 0 8.48828 0C9.32161 0 10.0299 0.291667 10.6133 0.875ZM7.80078 7.53125C7.92578 7.61458 7.98828 7.73958 7.98828 7.90625V15.5938C7.98828 15.7396 7.91536 15.8542 7.76953 15.9375C7.64453 16.0208 7.50911 16.0208 7.36328 15.9375C5.90495 15.2083 3.88411 14.7812 1.30078 14.6562C1.07161 14.6354 0.873698 14.5417 0.707031 14.375C0.561198 14.2292 0.488281 14.0417 0.488281 13.8125V6.84375C0.488281 6.59375 0.582031 6.38542 0.769531 6.21875C0.957031 6.05208 1.17578 5.97917 1.42578 6C4.25911 6.16667 6.38411 6.67708 7.80078 7.53125ZM15.5508 6C15.7174 6 15.8737 6.04167 16.0195 6.125C16.1654 6.1875 16.2799 6.28125 16.3633 6.40625C16.4466 6.53125 16.4883 6.67708 16.4883 6.84375V13.8125C16.4883 14.0417 16.4049 14.2292 16.2383 14.375C16.0924 14.5417 15.9049 14.6354 15.6758 14.6562C13.0924 14.8021 11.082 15.2292 9.64453 15.9375C9.54036 16 9.4362 16.0208 9.33203 16C9.22786 15.9792 9.14453 15.9271 9.08203 15.8438C9.01953 15.7604 8.98828 15.6771 8.98828 15.5938V7.90625C8.98828 7.73958 9.05078 7.61458 9.17578 7.53125C10.5924 6.67708 12.7174 6.16667 15.5508 6Z" fill="white"/>
</svg>
