<svg width="16" height="17" viewBox="0 0 16 17" fill="none" xmlns="http://www.w3.org/2000/svg">
<path d="M16 8.73145C16 13.1507 12.418 16.7314 8 16.7314C3.58203 16.7314 0 13.1507 0 8.73145C0 4.31477 3.58203 0.731445 8 0.731445C12.418 0.731445 16 4.31477 16 8.73145ZM8 10.3443C7.18048 10.3443 6.51613 11.0087 6.51613 11.8282C6.51613 12.6477 7.18048 13.3121 8 13.3121C8.81952 13.3121 9.48387 12.6477 9.48387 11.8282C9.48387 11.0087 8.81952 10.3443 8 10.3443ZM6.59119 5.01061L6.83048 9.3977C6.84168 9.60299 7.01142 9.7637 7.217 9.7637H8.783C8.98858 9.7637 9.15832 9.60299 9.16952 9.3977L9.40881 5.01061C9.4209 4.78886 9.24436 4.60241 9.02229 4.60241H6.97768C6.75561 4.60241 6.5791 4.78886 6.59119 5.01061Z" fill="#289B00"/>
</svg>
