<svg width="60" height="60" viewBox="0 0 60 60" fill="none" xmlns="http://www.w3.org/2000/svg">
<path d="M53.5408 0H30.7703C30.3043 0 29.8571 0.185394 29.5275 0.514983L1.88827 28.1533C-0.629423 30.6719 -0.629423 34.7693 1.88827 37.287L22.7123 58.1106C23.9282 59.3265 25.55 59.9962 27.2785 59.9966H27.279C29.0079 59.9966 30.6298 59.3265 31.8461 58.1102L59.4844 30.4714C59.814 30.1418 59.9994 29.6946 59.9994 29.2286L59.9998 6.45811C59.9994 2.89718 57.1017 0 53.5408 0ZM56.4838 28.5007L29.36 55.6245C28.8079 56.1771 28.0686 56.481 27.279 56.481C26.4889 56.481 25.75 56.1771 25.198 55.625L4.37392 34.8014C3.22677 33.6542 3.22677 31.7866 4.37392 30.6389L31.4982 3.51561H53.5408C55.1636 3.51561 56.4842 4.8358 56.4842 6.45857L56.4838 28.5007Z" fill="black"/>
<path d="M44.506 9.97009C43.0307 9.97009 41.6436 10.545 40.6004 11.5883C39.5572 12.6311 38.9827 14.0181 38.9827 15.4935C38.9827 16.9688 39.5572 18.3559 40.6004 19.3991C41.6436 20.4424 43.0307 21.0168 44.506 21.0168C45.981 21.0168 47.368 20.4424 48.4112 19.3991C49.4545 18.3559 50.029 16.9688 50.029 15.4935C50.029 14.0181 49.4545 12.6311 48.4117 11.5883C47.3684 10.545 45.9814 9.97009 44.506 9.97009ZM45.9256 16.913C45.5465 17.2925 45.0421 17.5012 44.506 17.5012C43.9695 17.5012 43.4655 17.2925 43.0865 16.913C42.707 16.534 42.4983 16.0295 42.4983 15.4935C42.4983 14.9574 42.707 14.453 43.0865 14.0739C43.4655 13.6945 43.97 13.4857 44.506 13.4857C45.0421 13.4857 45.5461 13.6945 45.9256 14.0739C46.3051 14.453 46.5138 14.9574 46.5138 15.4935C46.5138 16.0295 46.3046 16.534 45.9256 16.913Z" fill="black"/>
</svg>
