<svg width="58" height="60" viewBox="0 0 58 60" fill="none" xmlns="http://www.w3.org/2000/svg">
<path d="M55.7114 20.9544C56.0903 20.9544 56.4536 20.8039 56.7215 20.536C56.9894 20.2681 57.1399 19.9048 57.1399 19.5259V13.8119C57.1399 13.433 56.9894 13.0697 56.7215 12.8018C56.4536 12.5339 56.0903 12.3834 55.7114 12.3834H51.4259V7.14557C51.4259 6.76671 51.2754 6.40337 51.0075 6.13547C50.7396 5.86758 50.3763 5.71707 49.9974 5.71707H14.1413C13.7879 3.98214 12.8028 2.44028 11.377 1.3906C9.95112 0.340916 8.18623 -0.141767 6.42464 0.0361814C4.66305 0.21413 3.03034 1.04003 1.84324 2.35366C0.656127 3.66729 -0.000759403 5.37502 6.58845e-07 7.14557V52.8575C0.00214315 54.7512 0.755341 56.5666 2.09435 57.9056C3.43337 59.2447 5.24884 59.9979 7.14249 60H42.3788C42.7576 60 43.121 59.8495 43.3889 59.5816C43.6568 59.3137 43.8073 58.9504 43.8073 58.5715V54.286H49.9974C50.3763 54.286 50.7396 54.1355 51.0075 53.8676C51.2754 53.5997 51.4259 53.2364 51.4259 52.8575V35.2394H55.7114C56.0903 35.2394 56.4536 35.0889 56.7215 34.821C56.9894 34.5531 57.1399 34.1897 57.1399 33.8109V28.0969C57.1399 27.718 56.9894 27.3547 56.7215 27.0868C56.4536 26.8189 56.0903 26.6684 55.7114 26.6684H51.4259V20.9544H55.7114ZM51.4259 15.2404H54.2829V18.0974H51.4259V15.2404ZM48.5689 8.57407V45.715H14.285V8.57407H48.5689ZM2.857 7.14557C2.857 6.00899 3.3085 4.91896 4.11219 4.11527C4.91587 3.31158 6.00591 2.86008 7.14249 2.86008C8.27907 2.86008 9.36911 3.31158 10.1728 4.11527C10.9765 4.91896 11.428 6.00899 11.428 7.14557V47.1469C10.1925 46.2175 8.68845 45.715 7.14249 45.715C5.59653 45.715 4.09246 46.2175 2.857 47.1469V7.14557ZM40.9503 57.143H7.14249C6.2949 57.143 5.46634 56.8917 4.7616 56.4208C4.05685 55.9499 3.50757 55.2806 3.18321 54.4975C2.85885 53.7144 2.77398 52.8528 2.93934 52.0215C3.1047 51.1901 3.51285 50.4265 4.11219 49.8272C4.71153 49.2279 5.47513 48.8197 6.30643 48.6544C7.13774 48.489 7.99941 48.5739 8.78248 48.8982C9.56555 49.2226 10.2349 49.7719 10.7057 50.4766C11.1766 51.1814 11.428 52.0099 11.428 52.8575C11.428 53.2364 11.5785 53.5997 11.8464 53.8676C12.1143 54.1355 12.4776 54.286 12.8565 54.286H40.9503V57.143ZM14.285 51.429V48.572H48.5689V51.429H14.285ZM54.2829 29.5254V32.3824H51.4259V29.5254H54.2829Z" fill="black"/>
<path d="M18.5705 31.4301H26.1891C26.568 31.4301 26.9313 31.2796 27.1992 31.0117C27.4671 30.7438 27.6176 30.3804 27.6176 30.0016C27.6176 29.6227 27.4671 29.2594 27.1992 28.9915C26.9313 28.7236 26.568 28.5731 26.1891 28.5731H18.5705C18.1916 28.5731 17.8283 28.7236 17.5604 28.9915C17.2925 29.2594 17.142 29.6227 17.142 30.0016C17.142 30.3804 17.2925 30.7438 17.5604 31.0117C17.8283 31.2796 18.1916 31.4301 18.5705 31.4301Z" fill="black"/>
<path d="M30.4746 30.0016C30.4746 30.3804 30.6251 30.7438 30.893 31.0117C31.1609 31.2796 31.5242 31.4301 31.9031 31.4301H44.2834C44.6623 31.4301 45.0256 31.2796 45.2935 31.0117C45.5614 30.7438 45.7119 30.3804 45.7119 30.0016C45.7119 29.6227 45.5614 29.2594 45.2935 28.9915C45.0256 28.7236 44.6623 28.5731 44.2834 28.5731H31.9031C31.5242 28.5731 31.1609 28.7236 30.893 28.9915C30.6251 29.2594 30.4746 29.6227 30.4746 30.0016Z" fill="black"/>
<path d="M18.5705 37.144H36.6648C37.0436 37.144 37.407 36.9935 37.6749 36.7256C37.9428 36.4578 38.0933 36.0944 38.0933 35.7155C38.0933 35.3367 37.9428 34.9733 37.6749 34.7054C37.407 34.4375 37.0436 34.287 36.6648 34.287H18.5705C18.1916 34.287 17.8283 34.4375 17.5604 34.7054C17.2925 34.9733 17.142 35.3367 17.142 35.7155C17.142 36.0944 17.2925 36.4578 17.5604 36.7256C17.8283 36.9935 18.1916 37.144 18.5705 37.144Z" fill="black"/>
<path d="M18.5705 42.858H32.8554C33.2343 42.858 33.5977 42.7075 33.8655 42.4396C34.1334 42.1717 34.2839 41.8084 34.2839 41.4295C34.2839 41.0507 34.1334 40.6873 33.8655 40.4194C33.5977 40.1515 33.2343 40.001 32.8554 40.001H18.5705C18.1916 40.001 17.8283 40.1515 17.5604 40.4194C17.2925 40.6873 17.142 41.0507 17.142 41.4295C17.142 41.8084 17.2925 42.1717 17.5604 42.4396C17.8283 42.7075 18.1916 42.858 18.5705 42.858Z" fill="black"/>
<path d="M44.2835 40.001H38.6885C38.3096 40.001 37.9463 40.1515 37.6784 40.4194C37.4105 40.6873 37.26 41.0507 37.26 41.4295C37.26 41.8084 37.4105 42.1717 37.6784 42.4396C37.9463 42.7075 38.3096 42.858 38.6885 42.858H44.2835C44.6623 42.858 45.0257 42.7075 45.2936 42.4396C45.5615 42.1717 45.712 41.8084 45.712 41.4295C45.712 41.0507 45.5615 40.6873 45.2936 40.4194C45.0257 40.1515 44.6623 40.001 44.2835 40.001Z" fill="black"/>
<path d="M35.7124 14.2881H44.4025C44.7813 14.2881 45.1447 14.1376 45.4126 13.8697C45.6805 13.6018 45.831 13.2385 45.831 12.8596C45.831 12.4807 45.6805 12.1174 45.4126 11.8495C45.1447 11.5816 44.7813 11.4311 44.4025 11.4311H35.7124C35.3336 11.4311 34.9702 11.5816 34.7023 11.8495C34.4344 12.1174 34.2839 12.4807 34.2839 12.8596C34.2839 13.2385 34.4344 13.6018 34.7023 13.8697C34.9702 14.1376 35.3336 14.2881 35.7124 14.2881Z" fill="black"/>
<path d="M35.7124 20.0021H44.2834C44.6623 20.0021 45.0256 19.8516 45.2935 19.5837C45.5614 19.3158 45.7119 18.9524 45.7119 18.5736C45.7119 18.1947 45.5614 17.8314 45.2935 17.5635C45.0256 17.2956 44.6623 17.1451 44.2834 17.1451H35.7124C35.3336 17.1451 34.9702 17.2956 34.7023 17.5635C34.4344 17.8314 34.2839 18.1947 34.2839 18.5736C34.2839 18.9524 34.4344 19.3158 34.7023 19.5837C34.9702 19.8516 35.3336 20.0021 35.7124 20.0021Z" fill="black"/>
<path d="M35.7124 25.7161H44.2834C44.6623 25.7161 45.0256 25.5656 45.2935 25.2977C45.5614 25.0298 45.7119 24.6664 45.7119 24.2876C45.7119 23.9087 45.5614 23.5454 45.2935 23.2775C45.0256 23.0096 44.6623 22.8591 44.2834 22.8591H35.7124C35.3336 22.8591 34.9702 23.0096 34.7023 23.2775C34.4344 23.5454 34.2839 23.9087 34.2839 24.2876C34.2839 24.6664 34.4344 25.0298 34.7023 25.2977C34.9702 25.5656 35.3336 25.7161 35.7124 25.7161Z" fill="black"/>
<path d="M18.5705 25.7161H29.9985C30.3773 25.7161 30.7407 25.5656 31.0086 25.2977C31.2764 25.0298 31.4269 24.6664 31.4269 24.2876V12.8596C31.4269 12.4807 31.2764 12.1174 31.0086 11.8495C30.7407 11.5816 30.3773 11.4311 29.9985 11.4311H18.5705C18.1916 11.4311 17.8283 11.5816 17.5604 11.8495C17.2925 12.1174 17.142 12.4807 17.142 12.8596V24.2876C17.142 24.6664 17.2925 25.0298 17.5604 25.2977C17.8283 25.5656 18.1916 25.7161 18.5705 25.7161ZM19.999 14.2881H28.57V22.8591H19.999V14.2881Z" fill="black"/>
</svg>
