<svg width="63" height="60" viewBox="0 0 63 60" fill="none" xmlns="http://www.w3.org/2000/svg">
<path d="M63 6.49972C63 6.1019 62.842 5.72037 62.5607 5.43907C62.2794 5.15777 61.8978 4.99973 61.5 4.99973H54.8233C54.4859 3.57627 53.6781 2.30828 52.5306 1.40094C51.383 0.493603 49.9629 0 48.5 0C47.0371 0 45.617 0.493603 44.4695 1.40094C43.322 2.30828 42.5141 3.57627 42.1768 4.99973H39.8234C39.486 3.57627 38.6782 2.30828 37.5307 1.40094C36.3831 0.493603 34.963 0 33.5001 0C32.0372 0 30.6171 0.493603 29.4696 1.40094C28.322 2.30828 27.5142 3.57627 27.1768 4.99973H24.8235C24.4861 3.57627 23.6783 2.30828 22.5307 1.40094C21.3832 0.493603 19.9631 0 18.5002 0C17.0373 0 15.6172 0.493603 14.4697 1.40094C13.3221 2.30828 12.5143 3.57627 12.1769 4.99973H9.49969C9.16391 5.00168 8.83833 5.11543 8.5744 5.32302C8.31046 5.53062 8.12321 5.82022 8.0422 6.1461L0.0422488 39.1459C-0.0112553 39.3665 -0.013977 39.5965 0.0342889 39.8183C0.0825547 40.0401 0.180549 40.2481 0.320885 40.4266C0.461221 40.6051 0.640237 40.7493 0.844441 40.8486C1.04864 40.9478 1.27271 40.9994 1.49974 40.9994H7.9997V46.4994C7.9997 46.8972 8.15774 47.2787 8.43904 47.56C8.72034 47.8413 9.10187 47.9994 9.49969 47.9994H36.0508C36.4308 51.4003 38.0883 54.5299 40.6879 56.7554C43.2875 58.9809 46.6353 60.136 50.0542 59.9872C53.473 59.8384 56.7078 58.3968 59.1042 55.9539C61.5007 53.511 62.88 50.2492 62.9631 46.8281C62.9628 46.6702 63 6.49972 63 6.49972ZM60 38.0658C59.4056 37.3247 58.7353 36.6477 58 36.0461V26.4995C58 26.1017 57.842 25.7201 57.5607 25.4388C57.2794 25.1575 56.8979 24.9995 56.5 24.9995C56.1022 24.9995 55.7207 25.1575 55.4394 25.4388C55.1581 25.7201 55.0001 26.1017 55.0001 26.4995V34.1861C53.9102 33.6945 52.7594 33.3511 51.5783 33.1651L57.6794 7.99971H59.9996L60 38.0658ZM10.6797 7.99971H12.1766C12.5157 9.42226 13.324 10.6892 14.4712 11.5962C15.6183 12.5033 17.0375 12.9977 18.4999 12.9997C18.8977 12.9997 19.2792 12.8417 19.5605 12.5603C19.8418 12.279 19.9999 11.8975 19.9999 11.4997C19.9999 11.1019 19.8418 10.7203 19.5605 10.439C19.2792 10.1577 18.8977 9.9997 18.4999 9.9997C17.8378 9.9991 17.1894 9.81092 16.6298 9.45695C16.0703 9.10299 15.6225 8.59773 15.3383 7.99971H27.1765C27.5157 9.42226 28.324 10.6892 29.4711 11.5962C30.6182 12.5033 32.0374 12.9977 33.4998 12.9997C33.8976 12.9997 34.2792 12.8417 34.5605 12.5603C34.8418 12.279 34.9998 11.8975 34.9998 11.4997C34.9998 11.1019 34.8418 10.7203 34.5605 10.439C34.2792 10.1577 33.8976 9.9997 33.4998 9.9997C32.8377 9.9991 32.1893 9.81092 31.6298 9.45695C31.0702 9.10299 30.6224 8.59773 30.3382 7.99971H42.1764C42.5156 9.42226 43.3239 10.6892 44.471 11.5962C45.6181 12.5033 47.0373 12.9977 48.4997 12.9997C48.8975 12.9997 49.2791 12.8417 49.5604 12.5603C49.8417 12.279 49.9997 11.8975 49.9997 11.4997C49.9997 11.1019 49.8417 10.7203 49.5604 10.439C49.2791 10.1577 48.8975 9.9997 48.4997 9.9997C47.8376 9.9991 47.1892 9.81092 46.6297 9.45695C46.0701 9.10299 45.6223 8.59773 45.3381 7.99971H54.5919L52.8948 14.9997H8.9832L10.6797 7.99971ZM48.4997 2.99974C49.1618 3.0004 49.8101 3.1886 50.3697 3.54256C50.9292 3.89652 51.377 4.40175 51.6612 4.99973H45.3386C45.6228 4.40173 46.0706 3.89647 46.6301 3.54251C47.1896 3.18854 47.838 3.00035 48.5001 2.99974H48.4997ZM33.4998 2.99974C34.1619 3.0004 34.8102 3.1886 35.3698 3.54256C35.9293 3.89652 36.3771 4.40175 36.6613 4.99973H30.3387C30.6229 4.40173 31.0707 3.89647 31.6302 3.54251C32.1897 3.18854 32.8381 3.00035 33.5002 2.99974H33.4998ZM18.4999 2.99974C19.162 3.0004 19.8103 3.1886 20.3698 3.54256C20.9294 3.89652 21.3772 4.40175 21.6614 4.99973H15.3388C15.623 4.40173 16.0707 3.89647 16.6303 3.54251C17.1898 3.18854 17.8382 3.00035 18.5003 2.99974H18.4999ZM8.25483 17.9997H52.1671L48.5228 33.0332C46.6779 33.1629 44.8793 33.6707 43.2389 34.525C41.5985 35.3794 40.1514 36.562 38.9875 37.9994H3.40685L8.25483 17.9997ZM10.9993 40.9995H37.1393C36.571 42.2683 36.2038 43.6178 36.0508 44.9995H10.9997L10.9993 40.9995ZM50.9669 56.8906V55.4994C50.9669 55.1016 50.8089 54.7201 50.5276 54.4388C50.2463 54.1575 49.8648 53.9994 49.467 53.9994C49.0691 53.9994 48.6876 54.1575 48.4063 54.4388C48.125 54.7201 47.967 55.1016 47.967 55.4994V56.8906C45.7253 56.5633 43.6491 55.5212 42.0471 53.9193C40.4452 52.3174 39.4031 50.2412 39.0759 47.9995H40.467C40.8648 47.9995 41.2464 47.8414 41.5277 47.5601C41.809 47.2788 41.967 46.8973 41.967 46.4995C41.967 46.1017 41.809 45.7201 41.5277 45.4388C41.2464 45.1575 40.8648 44.9995 40.467 44.9995H39.0759C39.4032 42.7578 40.4452 40.6816 42.0472 39.0797C43.6491 37.4778 45.7253 36.4358 47.967 36.1086V37.4995C47.967 37.8974 48.125 38.2789 48.4063 38.5602C48.6876 38.8415 49.0691 38.9995 49.467 38.9995C49.8648 38.9995 50.2463 38.8415 50.5276 38.5602C50.8089 38.2789 50.9669 37.8974 50.9669 37.4995V36.1086C53.2086 36.4358 55.2848 37.4778 56.8867 39.0797C58.4887 40.6816 59.5308 42.7578 59.858 44.9995H58.4669C58.0691 44.9995 57.6876 45.1575 57.4062 45.4388C57.1249 45.7201 56.9669 46.1017 56.9669 46.4995C56.9669 46.8973 57.1249 47.2788 57.4062 47.5601C57.6876 47.8414 58.0691 47.9995 58.4669 47.9995H59.858C59.5308 50.2412 58.4887 52.3174 56.8868 53.9193C55.2849 55.5212 53.2087 56.5633 50.9669 56.8906Z" fill="black"/>
<path d="M32.0002 23.4996H36.0002C36.398 23.4996 36.7796 23.3416 37.0609 23.0603C37.3422 22.779 37.5002 22.3974 37.5002 21.9996C37.5002 21.6018 37.3422 21.2203 37.0609 20.939C36.7796 20.6577 36.398 20.4996 36.0002 20.4996H32.0002C31.6024 20.4996 31.2209 20.6577 30.9396 20.939C30.6583 21.2203 30.5002 21.6018 30.5002 21.9996C30.5002 22.3974 30.6583 22.779 30.9396 23.0603C31.2209 23.3416 31.6024 23.4996 32.0002 23.4996Z" fill="black"/>
<path d="M22.0002 23.4996H26.0002C26.398 23.4996 26.7796 23.3416 27.0609 23.0603C27.3422 22.779 27.5002 22.3974 27.5002 21.9996C27.5002 21.6018 27.3422 21.2203 27.0609 20.939C26.7796 20.6577 26.398 20.4996 26.0002 20.4996H22.0002C21.6024 20.4996 21.2209 20.6577 20.9396 20.939C20.6583 21.2203 20.5002 21.6018 20.5002 21.9996C20.5002 22.3974 20.6583 22.779 20.9396 23.0603C21.2209 23.3416 21.6024 23.4996 22.0002 23.4996Z" fill="black"/>
<path d="M12.0004 23.4996H16.0003C16.3982 23.4996 16.7797 23.3416 17.061 23.0603C17.3423 22.779 17.5003 22.3974 17.5003 21.9996C17.5003 21.6018 17.3423 21.2203 17.061 20.939C16.7797 20.6577 16.3982 20.4996 16.0003 20.4996H12.0004C11.6025 20.4996 11.221 20.6577 10.9397 20.939C10.6584 21.2203 10.5004 21.6018 10.5004 21.9996C10.5004 22.3974 10.6584 22.779 10.9397 23.0603C11.221 23.3416 11.6025 23.4996 12.0004 23.4996Z" fill="black"/>
<path d="M42.0001 23.4996H46.0001C46.3979 23.4996 46.7794 23.3416 47.0607 23.0603C47.342 22.779 47.5001 22.3974 47.5001 21.9996C47.5001 21.6018 47.342 21.2203 47.0607 20.939C46.7794 20.6577 46.3979 20.4996 46.0001 20.4996H42.0001C41.6023 20.4996 41.2208 20.6577 40.9395 20.939C40.6582 21.2203 40.5001 21.6018 40.5001 21.9996C40.5001 22.3974 40.6582 22.779 40.9395 23.0603C41.2208 23.3416 41.6023 23.4996 42.0001 23.4996Z" fill="black"/>
<path d="M30.0002 29.4996H34.0002C34.398 29.4996 34.7796 29.3416 35.0609 29.0603C35.3422 28.779 35.5002 28.3974 35.5002 27.9996C35.5002 27.6018 35.3422 27.2203 35.0609 26.939C34.7796 26.6577 34.398 26.4996 34.0002 26.4996H30.0002C29.6024 26.4996 29.2209 26.6577 28.9396 26.939C28.6583 27.2203 28.5002 27.6018 28.5002 27.9996C28.5002 28.3974 28.6583 28.779 28.9396 29.0603C29.2209 29.3416 29.6024 29.4996 30.0002 29.4996Z" fill="black"/>
<path d="M20.0002 29.4996H24.0002C24.398 29.4996 24.7796 29.3416 25.0609 29.0603C25.3422 28.779 25.5002 28.3974 25.5002 27.9996C25.5002 27.6018 25.3422 27.2203 25.0609 26.939C24.7796 26.6577 24.398 26.4996 24.0002 26.4996H20.0002C19.6024 26.4996 19.2209 26.6577 18.9396 26.939C18.6583 27.2203 18.5002 27.6018 18.5002 27.9996C18.5002 28.3974 18.6583 28.779 18.9396 29.0603C19.2209 29.3416 19.6024 29.4996 20.0002 29.4996Z" fill="black"/>
<path d="M10.0004 29.4996H14.0003C14.3982 29.4996 14.7797 29.3416 15.061 29.0603C15.3423 28.779 15.5003 28.3974 15.5003 27.9996C15.5003 27.6018 15.3423 27.2203 15.061 26.939C14.7797 26.6577 14.3982 26.4996 14.0003 26.4996H10.0004C9.60254 26.4996 9.22101 26.6577 8.9397 26.939C8.6584 27.2203 8.50037 27.6018 8.50037 27.9996C8.50037 28.3974 8.6584 28.779 8.9397 29.0603C9.22101 29.3416 9.60254 29.4996 10.0004 29.4996Z" fill="black"/>
<path d="M40.0001 29.4996H44.0001C44.3979 29.4996 44.7794 29.3416 45.0607 29.0603C45.342 28.779 45.5001 28.3974 45.5001 27.9996C45.5001 27.6018 45.342 27.2203 45.0607 26.939C44.7794 26.6577 44.3979 26.4996 44.0001 26.4996H40.0001C39.6023 26.4996 39.2208 26.6577 38.9395 26.939C38.6582 27.2203 38.5001 27.6018 38.5001 27.9996C38.5001 28.3974 38.6582 28.779 38.9395 29.0603C39.2208 29.3416 39.6023 29.4996 40.0001 29.4996Z" fill="black"/>
<path d="M29.0002 35.4995H33.0002C33.398 35.4995 33.7796 35.3415 34.0609 35.0602C34.3422 34.7789 34.5002 34.3973 34.5002 33.9995C34.5002 33.6017 34.3422 33.2202 34.0609 32.9388C33.7796 32.6575 33.398 32.4995 33.0002 32.4995H29.0002C28.6024 32.4995 28.2209 32.6575 27.9396 32.9388C27.6583 33.2202 27.5002 33.6017 27.5002 33.9995C27.5002 34.3973 27.6583 34.7789 27.9396 35.0602C28.2209 35.3415 28.6024 35.4995 29.0002 35.4995Z" fill="black"/>
<path d="M19.0002 35.4995H23.0002C23.398 35.4995 23.7796 35.3415 24.0609 35.0602C24.3422 34.7789 24.5002 34.3973 24.5002 33.9995C24.5002 33.6017 24.3422 33.2202 24.0609 32.9388C23.7796 32.6575 23.398 32.4995 23.0002 32.4995H19.0002C18.6024 32.4995 18.2209 32.6575 17.9396 32.9388C17.6583 33.2202 17.5002 33.6017 17.5002 33.9995C17.5002 34.3973 17.6583 34.7789 17.9396 35.0602C18.2209 35.3415 18.6024 35.4995 19.0002 35.4995Z" fill="black"/>
<path d="M14.5003 33.9995C14.5003 33.6017 14.3423 33.2202 14.061 32.9388C13.7797 32.6575 13.3982 32.4995 13.0003 32.4995H9.00036C8.60254 32.4995 8.22101 32.6575 7.9397 32.9388C7.6584 33.2202 7.50037 33.6017 7.50037 33.9995C7.50037 34.3973 7.6584 34.7789 7.9397 35.0602C8.22101 35.3415 8.60254 35.4995 9.00036 35.4995H13.0003C13.3982 35.4995 13.7797 35.3415 14.061 35.0602C14.3423 34.7789 14.5003 34.3973 14.5003 33.9995Z" fill="black"/>
<path d="M52.4064 41.4389L49.1709 44.6743L46.1378 43.1579C45.782 42.98 45.37 42.9507 44.9926 43.0765C44.6152 43.2024 44.3033 43.473 44.1254 43.8288C43.9475 44.1846 43.9182 44.5966 44.044 44.974C44.1699 45.3514 44.4405 45.6633 44.7963 45.8412L48.7963 47.8412C49.0778 47.982 49.3966 48.0306 49.7073 47.9801C50.018 47.9297 50.305 47.7828 50.5276 47.5602L54.5276 43.5602C54.8077 43.2787 54.9646 42.8976 54.9641 42.5004C54.9636 42.1033 54.8056 41.7226 54.5248 41.4418C54.244 41.161 53.8633 41.003 53.4662 41.0024C53.0691 41.0019 52.688 41.1588 52.4064 41.4389Z" fill="black"/>
</svg>
