<svg width="52" height="60" viewBox="0 0 52 60" fill="none" xmlns="http://www.w3.org/2000/svg">
<path d="M23.1787 7.61783C23.9665 7.61783 24.6051 6.97822 24.6051 6.18922C24.6051 5.40023 23.9665 4.76062 23.1787 4.76062C22.3909 4.76062 21.7523 5.40023 21.7523 6.18922C21.7523 6.97822 22.3909 7.61783 23.1787 7.61783Z" fill="black"/>
<path d="M12.7185 25.7135H18.424C18.8023 25.7135 19.1651 25.563 19.4326 25.295C19.7001 25.0271 19.8504 24.6638 19.8504 24.2849V18.5705C19.8504 18.1916 19.7001 17.8282 19.4326 17.5603C19.1651 17.2924 18.8023 17.1418 18.424 17.1418H12.7185C12.3402 17.1418 11.9774 17.2924 11.7099 17.5603C11.4424 17.8282 11.2921 18.1916 11.2921 18.5705V24.2849C11.2921 24.6638 11.4424 25.0271 11.7099 25.295C11.9774 25.563 12.3402 25.7135 12.7185 25.7135ZM14.1449 19.9991H16.9976V22.8563H14.1449V19.9991Z" fill="black"/>
<path d="M12.7185 38.0947H18.424C18.8023 38.0947 19.1651 37.9442 19.4326 37.6763C19.7001 37.4084 19.8504 37.045 19.8504 36.6661V30.9517C19.8504 30.5728 19.7001 30.2094 19.4326 29.9415C19.1651 29.6736 18.8023 29.5231 18.424 29.5231H12.7185C12.3402 29.5231 11.9774 29.6736 11.7099 29.9415C11.4424 30.2094 11.2921 30.5728 11.2921 30.9517V36.6661C11.2921 37.045 11.4424 37.4084 11.7099 37.6763C11.9774 37.9442 12.3402 38.0947 12.7185 38.0947ZM14.1449 32.3803H16.9976V35.2375H14.1449V32.3803Z" fill="black"/>
<path d="M24.1295 22.8562H32.6878C33.0661 22.8562 33.4289 22.7057 33.6964 22.4378C33.9639 22.1699 34.1142 21.8065 34.1142 21.4276C34.1142 21.0487 33.9639 20.6854 33.6964 20.4175C33.4289 20.1495 33.0661 19.999 32.6878 19.999H24.1295C23.7512 19.999 23.3884 20.1495 23.1209 20.4175C22.8534 20.6854 22.7031 21.0487 22.7031 21.4276C22.7031 21.8065 22.8534 22.1699 23.1209 22.4378C23.3884 22.7057 23.7512 22.8562 24.1295 22.8562Z" fill="black"/>
<path d="M24.1295 35.2376H32.6878C33.0661 35.2376 33.4289 35.0871 33.6964 34.8192C33.9639 34.5512 34.1142 34.1879 34.1142 33.809C34.1142 33.4301 33.9639 33.0667 33.6964 32.7988C33.4289 32.5309 33.0661 32.3804 32.6878 32.3804H24.1295C23.7512 32.3804 23.3884 32.5309 23.1209 32.7988C22.8534 33.0667 22.7031 33.4301 22.7031 33.809C22.7031 34.1879 22.8534 34.5512 23.1209 34.8192C23.3884 35.0871 23.7512 35.2376 24.1295 35.2376Z" fill="black"/>
<path d="M46.4762 38.577V7.61784C46.4753 6.86033 46.1744 6.1341 45.6396 5.59846C45.1048 5.06282 44.3797 4.76151 43.6234 4.76063H29.1932C28.8717 3.40506 28.1031 2.19772 27.0117 1.33383C25.9202 0.469938 24.5698 0 23.1787 0C21.7875 0 20.4371 0.469938 19.3456 1.33383C18.2542 2.19772 17.4856 3.40506 17.1641 4.76063H2.85276C2.09642 4.76148 1.3713 5.06278 0.836492 5.59842C0.30168 6.13407 0.000849447 6.86032 0 7.61784V52.3808C0.000849447 53.1383 0.30168 53.8645 0.836492 54.4002C1.3713 54.9358 2.09642 55.2371 2.85276 55.238H29.8412C30.8625 56.6024 32.1646 57.731 33.6594 58.5474C35.1542 59.3638 36.8067 59.849 38.505 59.97C40.2033 60.091 41.9077 59.8451 43.5028 59.2489C45.098 58.6527 46.5466 57.7201 47.7505 56.5143C48.9544 55.3085 49.8855 53.8576 50.4808 52.26C51.0761 50.6624 51.3216 48.9553 51.2008 47.2544C51.08 45.5534 50.5956 43.8983 49.7804 42.4012C48.9653 40.9041 47.8384 39.5999 46.4762 38.577ZM43.6234 36.9884C42.7059 36.6326 41.7475 36.3933 40.7707 36.276V7.61784H43.6234V36.9884ZM18.4241 7.61784C18.7771 7.61786 19.1177 7.48674 19.3798 7.24983C19.6419 7.01293 19.807 6.68707 19.8431 6.33531C19.848 6.28677 19.8504 6.23802 19.8504 6.18923C19.8504 5.30516 20.2011 4.45729 20.8252 3.83216C21.4494 3.20702 22.296 2.85582 23.1787 2.85582C24.0614 2.85582 24.9079 3.20702 25.5321 3.83216C26.1562 4.45729 26.5069 5.30516 26.5069 6.18923C26.5069 6.56812 26.6571 6.93149 26.9246 7.19941C27.1921 7.46732 27.555 7.61784 27.9333 7.61784H30.3105V11.4274H16.0468V7.61784H18.4241ZM13.194 7.61784V12.8561C13.194 13.2349 13.3443 13.5983 13.6118 13.8662C13.8793 14.1341 14.2421 14.2847 14.6204 14.2847H31.7369C32.1152 14.2847 32.478 14.1341 32.7455 13.8662C33.013 13.5983 33.1633 13.2349 33.1633 12.8561V7.61784H37.9179V36.276C35.2788 36.5996 32.8237 37.7983 30.9437 39.6813C29.0636 41.5642 27.8668 44.0232 27.5437 46.6664H8.43941V7.61784H13.194ZM2.85276 52.3808V7.61784H5.58665V48.095C5.58665 48.4739 5.73693 48.8372 6.00443 49.1051C6.27192 49.3731 6.63473 49.5236 7.01303 49.5236H27.5437C27.6608 50.502 27.8998 51.4618 28.255 52.3808H2.85276ZM39.3443 57.1428C37.5576 57.1428 35.811 56.6121 34.3254 55.618C32.8398 54.6238 31.6819 53.2107 30.9982 51.5574C30.3145 49.9041 30.1356 48.0849 30.4841 46.3298C30.8327 44.5747 31.6931 42.9625 32.9565 41.6972C34.2199 40.4318 35.8295 39.5701 37.5819 39.221C39.3343 38.8719 41.1506 39.0511 42.8013 39.7359C44.452 40.4207 45.8629 41.5804 46.8556 43.0683C47.8482 44.5562 48.378 46.3055 48.378 48.095C48.3753 50.4938 47.4227 52.7935 45.7291 54.4897C44.0355 56.186 41.7393 57.1401 39.3443 57.1428Z" fill="black"/>
<path d="M43.0903 44.2276L38.3934 48.9318L36.5492 47.0848C36.2809 46.8205 35.9193 46.6731 35.543 46.6746C35.1667 46.6761 34.8063 46.8265 34.5402 47.093C34.2741 47.3595 34.124 47.7205 34.1224 48.0974C34.1209 48.4742 34.2681 48.8365 34.532 49.1051L37.3848 51.9623C37.6523 52.2302 38.0151 52.3807 38.3934 52.3807C38.7716 52.3807 39.1344 52.2302 39.4019 51.9623L45.1074 46.2479C45.3713 45.9792 45.5186 45.617 45.517 45.2402C45.5155 44.8633 45.3653 44.5023 45.0993 44.2358C44.8332 43.9693 44.4728 43.8189 44.0965 43.8174C43.7202 43.8159 43.3585 43.9633 43.0903 44.2276Z" fill="black"/>
</svg>
