<svg width="18" height="18" viewBox="0 0 18 18" fill="none" xmlns="http://www.w3.org/2000/svg">
<circle cx="9" cy="9" r="9" fill="#B40C02"/>
<path d="M9.70312 5.60156L9.55811 10.0444H8.50342L8.354 5.60156H9.70312ZM8.31885 11.4199C8.31885 11.2324 8.3833 11.0771 8.51221 10.9541C8.64404 10.8281 8.81689 10.7651 9.03076 10.7651C9.24756 10.7651 9.42041 10.8281 9.54932 10.9541C9.67822 11.0771 9.74268 11.2324 9.74268 11.4199C9.74268 11.6016 9.67822 11.7554 9.54932 11.8813C9.42041 12.0073 9.24756 12.0703 9.03076 12.0703C8.81689 12.0703 8.64404 12.0073 8.51221 11.8813C8.3833 11.7554 8.31885 11.6016 8.31885 11.4199Z" fill="white"/>
</svg>
