<svg width="11" height="18" viewBox="0 0 11 18" fill="none" xmlns="http://www.w3.org/2000/svg">
<path d="M7.66559 8.23487L4.00855 7.16508C3.58528 7.04321 3.29069 6.64711 3.29069 6.20701C3.29069 5.65519 3.73766 5.20831 4.2896 5.20831H6.53462C6.94773 5.20831 7.35406 5.33357 7.69268 5.56378C7.89923 5.70258 8.1769 5.66873 8.35298 5.49607L9.53135 4.34503C9.77177 4.11144 9.73791 3.72211 9.4704 3.5156C8.6408 2.8656 7.60464 2.50336 6.54139 2.49998V0.87498C6.54139 0.577063 6.29759 0.333313 5.9996 0.333313H4.91604C4.61806 0.333313 4.37426 0.577063 4.37426 0.87498V2.49998H4.2896C2.13263 2.49998 0.398922 4.3518 0.598705 6.54894C0.740923 8.10961 1.93285 9.37915 3.43629 9.81925L6.90709 10.8349C7.33036 10.9601 7.62495 11.3528 7.62495 11.7929C7.62495 12.3448 7.17798 12.7916 6.62604 12.7916H4.38103C3.96792 12.7916 3.56158 12.6664 3.22297 12.4362C3.01641 12.2974 2.73875 12.3312 2.56267 12.5039L1.38429 13.6549C1.14387 13.8885 1.17774 14.2778 1.44524 14.4844C2.27485 15.1344 3.31101 15.4966 4.37426 15.5V17.125C4.37426 17.4229 4.61806 17.6666 4.91604 17.6666H5.9996C6.29759 17.6666 6.54139 17.4229 6.54139 17.125V15.4932C8.11933 15.4627 9.59908 14.525 10.1205 13.032C10.8486 10.9466 9.62617 8.80701 7.66559 8.23487Z" fill="white"/>
</svg>
