<svg width="61" height="60" viewBox="0 0 61 60" fill="none" xmlns="http://www.w3.org/2000/svg">
<path d="M10.9112 0C9.35114 0 7.90461 0.838159 7.12926 2.19194L0.183239 14.3235C0.0551933 14.5748 0.00460238 14.7376 0.00460238 14.9813C0.00460238 16.5694 -0.00357957 18.1774 0.00187498 19.7731C0.0114204 22.4546 1.75381 24.7226 4.16203 25.5526V55.9091C4.16203 58.1519 6.01017 60 8.25294 60H51.8203C54.0631 60 55.9112 58.1519 55.9112 55.9091V25.5309C58.2841 24.6814 60.0021 22.4288 60.0021 19.7727V15C60.0021 14.7478 59.9158 14.4918 59.8208 14.3232L52.8747 2.19166C52.0997 0.838159 50.6531 0 49.093 0H10.9112ZM10.9112 2.72727H49.093C49.6798 2.72727 50.2157 3.0384 50.5073 3.54758L56.2868 13.6364H3.71751L9.49698 3.54758C9.78861 3.0384 10.3244 2.72727 10.9112 2.72727ZM2.72941 16.3636H9.54759V19.7727C9.54759 21.685 8.05072 23.1818 6.1385 23.1818C4.22627 23.1818 2.72941 21.685 2.72941 19.7727V16.3636ZM12.2749 16.3636H19.093V19.7727C19.093 21.685 17.5962 23.1818 15.684 23.1818C13.7717 23.1818 12.2749 21.685 12.2749 19.7727V16.3636ZM21.8203 16.3636H28.6385V19.7727C28.6385 21.685 27.1416 23.1818 25.2294 23.1818C23.3172 23.1818 21.8203 21.685 21.8203 19.7727V16.3636ZM31.3658 16.3636H38.184V19.7727C38.184 21.685 36.6871 23.1818 34.7749 23.1818C32.8626 23.1818 31.3658 21.685 31.3658 19.7727V16.3636ZM40.9112 16.3636H47.7294V19.7727C47.7294 21.685 46.2325 23.1818 44.3203 23.1818C42.4081 23.1818 40.9112 21.685 40.9112 19.7727V16.3636ZM50.4567 16.3636H57.2749V19.7727C57.2749 21.685 55.778 23.1818 53.8658 23.1818C51.9535 23.1818 50.4567 21.685 50.4567 19.7727V16.3636ZM10.9086 23.5707C12.0352 24.9825 13.7474 25.9091 15.684 25.9091C17.6192 25.9091 19.33 24.9835 20.4567 23.5733C21.5833 24.9835 23.2942 25.9091 25.2294 25.9091C27.1647 25.9091 28.8755 24.9835 30.0021 23.5733C31.1288 24.9835 32.8396 25.9091 34.7749 25.9091C36.7101 25.9091 38.4209 24.9835 39.5476 23.5733C40.6743 24.9835 42.3851 25.9091 44.3203 25.9091C46.2569 25.9091 47.9691 24.9825 49.0957 23.5707C50.0888 24.7998 51.5324 25.6529 53.184 25.8398V55.9091C53.184 56.6881 52.5994 57.2727 51.8203 57.2727H28.6012V34.0909C28.6011 33.3378 27.9907 32.7274 27.2376 32.7273H13.6385C12.8854 32.7274 12.2749 33.3378 12.2749 34.0909V57.2727H8.2532C7.47415 57.2727 6.88956 56.6881 6.88956 55.9091V25.8319C8.5129 25.6293 9.92938 24.7829 10.9086 23.5707ZM15.0021 35.4545H25.8739V38.1818H15.0021V35.4545ZM15.0021 40.9091H25.8739V57.2727H15.0021V40.9091Z" fill="black"/>
</svg>
