<svg width="61" height="60" viewBox="0 0 61 60" fill="none" xmlns="http://www.w3.org/2000/svg">
<path d="M13.3415 31.4286C14.1305 31.4286 14.7701 30.789 14.7701 30C14.7701 29.211 14.1305 28.5714 13.3415 28.5714C12.5526 28.5714 11.913 29.211 11.913 30C11.913 30.789 12.5526 31.4286 13.3415 31.4286Z" fill="black"/>
<path d="M54.7701 30.4762C54.3912 30.4762 54.0278 30.6267 53.7599 30.8946C53.492 31.1625 53.3415 31.5259 53.3415 31.9048C53.3415 32.2836 53.492 32.647 53.7599 32.9149C54.0278 33.1828 54.3912 33.3333 54.7701 33.3333C55.241 33.3333 55.7013 33.473 56.0929 33.7346C56.4844 33.9962 56.7896 34.3681 56.9698 34.8031C57.15 35.2382 57.1972 35.7169 57.1053 36.1788C57.0134 36.6406 56.7867 37.0649 56.4537 37.3979C56.1207 37.7308 55.6964 37.9576 55.2346 38.0495C54.7727 38.1413 54.294 38.0942 53.8589 37.914C53.4239 37.7338 53.052 37.4286 52.7904 37.0371C52.5288 36.6455 52.3891 36.1852 52.3891 35.7143C52.3891 35.4608 52.3213 35.212 52.1926 34.9936C51.5132 30.4737 49.0833 26.3052 45.1807 23.0531C40.607 19.2418 34.5422 17.1428 28.1034 17.1428C25.8414 17.1402 23.5871 17.4063 21.3878 17.9356L17.8997 12.1221C17.7592 11.8879 17.5544 11.6988 17.3096 11.5774C17.0649 11.456 16.7904 11.4073 16.5189 11.4371C16.2473 11.4669 15.99 11.574 15.7774 11.7456C15.5648 11.9172 15.4059 12.1462 15.3195 12.4053L12.0343 22.2619C9.72378 23.9617 7.77716 26.1071 6.30925 28.5714H1.43675C1.05787 28.5714 0.694507 28.7219 0.426598 28.9898C0.158689 29.2577 0.00817878 29.6211 0.00817878 30V41.4286C0.00807684 41.752 0.117737 42.0659 0.319223 42.3189C0.520708 42.5719 0.802091 42.7491 1.11735 42.8214L4.90199 43.6898C5.81562 46.1402 7.2129 48.3818 9.01068 50.2811L11.4917 58.9644C11.5771 59.2628 11.7574 59.5253 12.0052 59.7121C12.253 59.899 12.555 60 12.8653 60H16.6748C17.0537 60 17.4171 59.8495 17.685 59.5816C17.9529 59.3137 18.1034 58.9503 18.1034 58.5714V56.278C24.5499 58.6965 31.6538 58.7011 38.1034 56.2909V58.5714C38.1034 58.9503 38.2539 59.3137 38.5218 59.5816C38.7897 59.8495 39.1531 60 39.532 60H43.3415C43.6519 60 43.9538 59.8989 44.2017 59.7121C44.4495 59.5252 44.6297 59.2627 44.7151 58.9643L47.1935 50.2899C49.9164 47.3851 51.6309 43.944 52.1885 40.2696C52.8859 40.6648 53.6646 40.8946 54.4648 40.9413C55.2649 40.9881 56.0651 40.8505 56.8038 40.5393C57.5424 40.2281 58.1997 39.7515 58.7251 39.1462C59.2505 38.5409 59.63 37.8231 59.8343 37.0481C60.0386 36.273 60.0623 35.4614 59.9035 34.6758C59.7448 33.8902 59.4078 33.1515 58.9185 32.5166C58.4293 31.8817 57.8009 31.3676 57.0817 31.0138C56.3624 30.6601 55.5716 30.4762 54.7701 30.4762ZM15.2463 57.1428H13.9428L12.9332 53.609C13.6787 54.1108 14.4509 54.5718 15.2463 54.99V57.1428ZM40.9606 57.1428V55.0024C41.7553 54.5833 42.5266 54.1211 43.271 53.618L42.2639 57.1428H40.9606ZM28.1034 55.2381C24.39 55.2535 20.7197 54.4424 17.3587 52.8634C17.315 52.8396 17.27 52.8181 17.224 52.799C15.0657 51.7672 13.1009 50.3721 11.4152 48.6746C11.3521 48.5931 11.2802 48.5186 11.2009 48.4527C9.4402 46.5975 8.11223 44.4321 7.35925 42.045C7.28435 41.8076 7.14871 41.5938 6.96576 41.425C6.78282 41.2561 6.55893 41.138 6.31627 41.0824L2.86532 40.2906V31.4286H7.15008C7.41069 31.4286 7.66633 31.3573 7.88932 31.2224C8.11232 31.0875 8.29417 30.8942 8.4152 30.6634C9.68401 28.2436 11.6414 26.0463 14.0751 24.3092C14.3209 24.1337 14.5048 23.8848 14.6003 23.5982L17.0478 16.2555L19.4894 20.3246C19.651 20.594 19.8969 20.8026 20.189 20.9181C20.4811 21.0336 20.8032 21.0496 21.1053 20.9637C23.3822 20.3201 25.7374 19.9958 28.1034 20C39.9191 20 49.532 27.9039 49.532 37.619C49.532 47.3342 39.9191 55.2381 28.1034 55.2381Z" fill="black"/>
<path d="M33.8177 24.7619H22.3891C22.0103 24.7619 21.6469 24.9124 21.379 25.1803C21.1111 25.4482 20.9606 25.8116 20.9606 26.1905C20.9606 26.5694 21.1111 26.9327 21.379 27.2006C21.6469 27.4685 22.0103 27.619 22.3891 27.619H33.8177C34.1966 27.619 34.56 27.4685 34.8279 27.2006C35.0958 26.9327 35.2463 26.5694 35.2463 26.1905C35.2463 25.8116 35.0958 25.4482 34.8279 25.1803C34.56 24.9124 34.1966 24.7619 33.8177 24.7619Z" fill="black"/>
<path d="M27.1511 37.1429H30.0082C30.1345 37.1429 30.2556 37.193 30.3449 37.2823C30.4342 37.3716 30.4844 37.4928 30.4844 37.6191C30.4844 37.9979 30.6349 38.3613 30.9028 38.6292C31.1707 38.8971 31.5341 39.0476 31.913 39.0476C32.2919 39.0476 32.6552 38.8971 32.9231 38.6292C33.191 38.3613 33.3415 37.9979 33.3415 37.6191C33.3405 36.7353 32.989 35.888 32.3641 35.2631C31.7392 34.6382 30.892 34.2867 30.0082 34.2857H29.532V31.9048C29.532 31.5259 29.3815 31.1625 29.1136 30.8946C28.8457 30.6267 28.4823 30.4762 28.1035 30.4762C27.7246 30.4762 27.3612 30.6267 27.0933 30.8946C26.8254 31.1625 26.6749 31.5259 26.6749 31.9048V34.3129C25.5874 34.4358 24.5881 34.9702 23.882 35.8064C23.1759 36.6425 22.8165 37.7172 22.8774 38.8099C22.9383 39.9027 23.4149 40.9307 24.2095 41.6832C25.0042 42.4358 26.0566 42.8558 27.1511 42.8571H29.0558C29.4347 42.8571 29.7981 43.0077 30.066 43.2756C30.3339 43.5435 30.4844 43.9068 30.4844 44.2857C30.4844 44.6646 30.3339 45.028 30.066 45.2959C29.7981 45.5638 29.4347 45.7143 29.0558 45.7143H26.1987C26.0724 45.7143 25.9513 45.6641 25.862 45.5748C25.7727 45.4855 25.7225 45.3644 25.7225 45.2381C25.7225 44.8592 25.572 44.4959 25.3041 44.2279C25.0362 43.96 24.6728 43.8095 24.2939 43.8095C23.915 43.8095 23.5517 43.96 23.2838 44.2279C23.0159 44.4959 22.8654 44.8592 22.8654 45.2381C22.8664 46.1218 23.2179 46.9691 23.8428 47.594C24.4677 48.2189 25.3149 48.5704 26.1987 48.5714H26.6749V50.9524C26.6749 51.3313 26.8254 51.6946 27.0933 51.9625C27.3612 52.2304 27.7246 52.381 28.1035 52.381C28.4823 52.381 28.8457 52.2304 29.1136 51.9625C29.3815 51.6946 29.532 51.3313 29.532 50.9524V48.5443C30.6195 48.4213 31.6188 47.887 32.3249 47.0508C33.031 46.2146 33.3905 45.14 33.3296 44.0472C33.2687 42.9545 32.792 41.9265 31.9974 41.1739C31.2027 40.4214 30.1503 40.0014 29.0558 40H27.1511C26.7722 40 26.4088 39.8495 26.1409 39.5816C25.873 39.3137 25.7225 38.9503 25.7225 38.5714C25.7225 38.1926 25.873 37.8292 26.1409 37.5613C26.4088 37.2934 26.7722 37.1429 27.1511 37.1429Z" fill="black"/>
<path d="M13.3415 31.4286C14.1305 31.4286 14.7701 30.789 14.7701 30C14.7701 29.211 14.1305 28.5714 13.3415 28.5714C12.5526 28.5714 11.913 29.211 11.913 30C11.913 30.789 12.5526 31.4286 13.3415 31.4286Z" fill="black"/>
<path d="M53.76 19.5815C54.0279 19.8494 54.3913 19.9999 54.7701 19.9999C55.149 19.9999 55.5123 19.8494 55.7802 19.5815L59.5898 15.772C59.7242 15.6398 59.8311 15.4822 59.9043 15.3084C59.9776 15.1346 60.0157 14.9481 60.0164 14.7595C60.0172 14.5709 59.9806 14.3841 59.9088 14.2097C59.837 14.0353 59.7314 13.8769 59.598 13.7435C59.4647 13.6102 59.3063 13.5046 59.1319 13.4327C58.9575 13.3609 58.7706 13.3244 58.5821 13.3251C58.3935 13.3259 58.2069 13.364 58.0331 13.4372C57.8594 13.5104 57.7018 13.6174 57.5695 13.7518L56.1987 15.1225V9.04762C56.1987 8.66874 56.0482 8.30538 55.7803 8.03747C55.5124 7.76956 55.149 7.61905 54.7701 7.61905C54.3912 7.61905 54.0279 7.76956 53.76 8.03747C53.4921 8.30538 53.3416 8.66874 53.3416 9.04762V15.1225L51.9707 13.7518C51.8385 13.6174 51.6809 13.5104 51.5071 13.4372C51.3333 13.364 51.1468 13.3259 50.9582 13.3251C50.7696 13.3244 50.5827 13.3609 50.4084 13.4327C50.234 13.5046 50.0756 13.6102 49.9422 13.7435C49.8089 13.8769 49.7032 14.0353 49.6314 14.2097C49.5596 14.3841 49.523 14.5709 49.5238 14.7595C49.5246 14.9481 49.5627 15.1346 49.6359 15.3084C49.7091 15.4822 49.8161 15.6398 49.9505 15.772L53.76 19.5815Z" fill="black"/>
<path d="M54.7701 4.7619C55.149 4.7619 55.5124 4.6114 55.7803 4.34349C56.0482 4.07558 56.1987 3.71221 56.1987 3.33333V1.42857C56.1987 1.04969 56.0482 0.686328 55.7803 0.418419C55.5124 0.15051 55.149 0 54.7701 0C54.3912 0 54.0279 0.15051 53.76 0.418419C53.4921 0.686328 53.3416 1.04969 53.3416 1.42857V3.33333C53.3416 3.71221 53.4921 4.07558 53.76 4.34349C54.0279 4.6114 54.3912 4.7619 54.7701 4.7619Z" fill="black"/>
<path d="M30.9029 11.9625C31.1708 12.2304 31.5341 12.3809 31.913 12.3809C32.2918 12.3809 32.6552 12.2304 32.9231 11.9625L36.7326 8.15298C36.9969 7.88433 37.1444 7.52213 37.1428 7.14527C37.1413 6.7684 36.9909 6.40741 36.7244 6.14093C36.4579 5.87445 36.097 5.72406 35.7201 5.72252C35.3432 5.72099 34.981 5.86843 34.7124 6.13274L33.3415 7.50345V1.42857C33.3415 1.04969 33.191 0.686328 32.9231 0.418419C32.6552 0.15051 32.2919 0 31.913 0C31.5341 0 31.1707 0.15051 30.9028 0.418419C30.6349 0.686328 30.4844 1.04969 30.4844 1.42857V7.50345L29.1136 6.13274C28.8449 5.86843 28.4827 5.72099 28.1059 5.72252C27.729 5.72406 27.368 5.87445 27.1015 6.14093C26.835 6.40741 26.6847 6.7684 26.6831 7.14527C26.6816 7.52213 26.829 7.88433 27.0933 8.15298L30.9029 11.9625Z" fill="black"/>
<path d="M4.2362 19.5815C4.50411 19.8494 4.86746 19.9999 5.24632 19.9999C5.62519 19.9999 5.98853 19.8494 6.25644 19.5815L10.066 15.772C10.2004 15.6398 10.3073 15.4822 10.3805 15.3084C10.4538 15.1346 10.4919 14.9481 10.4926 14.7595C10.4934 14.5709 10.4568 14.3841 10.385 14.2097C10.3132 14.0353 10.2076 13.8769 10.0742 13.7435C9.94088 13.6102 9.78245 13.5046 9.60807 13.4327C9.4337 13.3609 9.24683 13.3244 9.05825 13.3251C8.86967 13.3259 8.68311 13.364 8.50933 13.4372C8.33555 13.5104 8.17798 13.6174 8.04573 13.7518L6.67489 15.1225V9.04762C6.67489 8.66874 6.52438 8.30538 6.25647 8.03747C5.98856 7.76956 5.6252 7.61905 5.24632 7.61905C4.86744 7.61905 4.50408 7.76956 4.23617 8.03747C3.96826 8.30538 3.81775 8.66874 3.81775 9.04762V15.1225L2.44692 13.7518C2.31466 13.6174 2.1571 13.5104 1.98331 13.4372C1.80953 13.364 1.62297 13.3259 1.43439 13.3251C1.24581 13.3244 1.05894 13.3609 0.884569 13.4327C0.710196 13.5046 0.551766 13.6102 0.418419 13.7435C0.285072 13.8769 0.179445 14.0353 0.107633 14.2097C0.035821 14.3841 -0.000756036 14.5709 1.18441e-05 14.7595C0.000779724 14.9481 0.0388773 15.1346 0.112107 15.3084C0.185337 15.4822 0.29225 15.6398 0.426679 15.772L4.2362 19.5815Z" fill="black"/>
<path d="M5.24632 4.7619C5.6252 4.7619 5.98856 4.6114 6.25647 4.34349C6.52438 4.07558 6.67489 3.71221 6.67489 3.33333V1.42857C6.67489 1.04969 6.52438 0.686328 6.25647 0.418419C5.98856 0.15051 5.6252 0 5.24632 0C4.86744 0 4.50408 0.15051 4.23617 0.418419C3.96826 0.686328 3.81775 1.04969 3.81775 1.42857V3.33333C3.81775 3.71221 3.96826 4.07558 4.23617 4.34349C4.50408 4.6114 4.86744 4.7619 5.24632 4.7619Z" fill="black"/>
</svg>
