<svg width="8" height="19" viewBox="0 0 8 19" fill="none" xmlns="http://www.w3.org/2000/svg">
<path d="M1.28751 15.1914C0.865632 15.1914 0.584382 15.5078 0.584382 15.8945V17.5469C0.584382 17.9688 0.865632 18.25 1.28751 18.25H6.63126C7.01798 18.25 7.33438 17.9688 7.33438 17.5469V15.8945C7.33438 15.5078 7.01798 15.1914 6.63126 15.1914H5.92813V7.70312C5.92813 7.31641 5.61173 7 5.22501 7H1.28751C0.865632 7 0.584382 7.31641 0.584382 7.70312V9.39062C0.584382 9.77734 0.865632 10.0938 1.28751 10.0938H1.99063V15.1914H1.28751ZM3.95938 0.25C2.55313 0.25 1.42813 1.41016 1.42813 2.78125C1.42813 4.1875 2.55313 5.3125 3.95938 5.3125C5.33048 5.3125 6.49063 4.1875 6.49063 2.78125C6.49063 1.41016 5.33048 0.25 3.95938 0.25Z" fill="white"/>
</svg>
