<svg width="61" height="60" viewBox="0 0 61 60" fill="none" xmlns="http://www.w3.org/2000/svg">
    <path d="M58.2584 49.783L45.5089 37.0335C44.378 35.9026 42.8749 35.28 41.2756 35.28C40.2812 35.28 39.3242 35.5212 38.4703 35.975L34.0919 31.5965C40.397 24.0314 40.0028 12.7333 32.906 5.63659C25.3903 -1.87864 13.1615 -1.87909 5.64581 5.63659C2.00495 9.27746 0 14.1179 0 19.2669C0 24.4155 2.00495 29.2564 5.64581 32.8968C9.28667 36.5377 14.1271 38.5426 19.2757 38.5426C23.8341 38.5426 28.1498 36.9704 31.6066 34.0836L35.9842 38.4616C35.53 39.315 35.2892 40.2724 35.2892 41.2664C35.2892 42.8657 35.9119 44.3688 37.0423 45.4997L49.7922 58.2496C50.9593 59.4167 52.4926 60 54.0255 60C55.5584 60 57.0918 59.4167 58.2588 58.2496C59.3893 57.1187 60.0124 55.6151 60.0124 54.0163C60.0124 52.4175 59.3893 50.9139 58.2584 49.783ZM8.13196 30.4107C5.15545 27.4342 3.51633 23.4765 3.51633 19.2669C3.51633 15.0574 5.15545 11.0997 8.13196 8.12321C11.2046 5.051 15.2402 3.5149 19.2757 3.5149C23.3117 3.5149 27.3472 5.051 30.4199 8.12321C36.5643 14.2681 36.5643 24.2658 30.4199 30.4107C27.4429 33.3872 23.4857 35.0268 19.2757 35.0268C15.0666 35.0268 11.1089 33.3872 8.13196 30.4107ZM38.8055 41.2664C38.8055 40.6066 39.0624 39.9862 39.5289 39.5197C39.9955 39.0531 40.6159 38.7963 41.2756 38.7963C41.9354 38.7963 42.5558 39.0531 43.0223 39.5197L44.8945 41.3923L41.4011 44.8858L39.5289 43.0131C39.0624 42.5466 38.8055 41.9262 38.8055 41.2664ZM55.7722 55.763C54.8089 56.7263 53.2417 56.7263 52.2783 55.763L43.8877 47.3719L47.3811 43.8785L55.7722 52.2696C56.2388 52.7361 56.4956 53.3565 56.4956 54.0163C56.4956 54.6761 56.2388 55.2965 55.7722 55.763Z" fill="black"/>
    <path d="M22.5751 24.404L20.6525 25.208V17.0934C20.6525 16.3824 20.224 15.7414 19.567 15.4694C18.9099 15.197 18.154 15.3476 17.6513 15.8504L14.9779 18.5238C14.2911 19.2106 14.2911 20.3236 14.9779 21.01C15.5635 21.5956 16.459 21.6816 17.1362 21.2686V25.9154C17.1362 26.9369 17.6435 27.8847 18.4937 28.4506C19.002 28.7889 19.5889 28.9615 20.1805 28.9615C20.5779 28.9615 20.9776 28.8833 21.3563 28.7248L23.9322 27.6475C24.8277 27.273 25.2503 26.2433 24.8753 25.3472C24.5008 24.4517 23.4711 24.0291 22.5751 24.404Z" fill="black"/>
    <path d="M18.5226 12.263H19.1663C20.1375 12.263 20.9245 11.476 20.9245 10.5049C20.9245 9.53376 20.1375 8.7467 19.1663 8.7467H18.5226C17.5519 8.7467 16.7644 9.53376 16.7644 10.5049C16.7644 11.476 17.5519 12.263 18.5226 12.263Z" fill="black"/>
</svg>