<svg width="17" height="14" viewBox="0 0 17 14" fill="none" xmlns="http://www.w3.org/2000/svg">
<path d="M14.9883 14H1.98828C1.57161 14 1.21745 13.8542 0.925781 13.5625C0.634115 13.2708 0.488281 12.9167 0.488281 12.5V1.5C0.488281 1.08333 0.634115 0.729167 0.925781 0.4375C1.21745 0.145833 1.57161 0 1.98828 0H14.9883C15.4049 0 15.7591 0.145833 16.0508 0.4375C16.3424 0.729167 16.4883 1.08333 16.4883 1.5V12.5C16.4883 12.9167 16.3424 13.2708 16.0508 13.5625C15.7591 13.8542 15.4049 14 14.9883 14ZM5.36328 3.125C5.13411 2.875 4.84245 2.75 4.48828 2.75C4.13411 2.75 3.83203 2.875 3.58203 3.125C3.35286 3.35417 3.23828 3.64583 3.23828 4C3.23828 4.35417 3.35286 4.65625 3.58203 4.90625C3.83203 5.13542 4.13411 5.25 4.48828 5.25C4.84245 5.25 5.13411 5.13542 5.36328 4.90625C5.61328 4.65625 5.73828 4.35417 5.73828 4C5.73828 3.64583 5.61328 3.35417 5.36328 3.125ZM5.36328 6.125C5.13411 5.875 4.84245 5.75 4.48828 5.75C4.13411 5.75 3.83203 5.875 3.58203 6.125C3.35286 6.35417 3.23828 6.64583 3.23828 7C3.23828 7.35417 3.35286 7.65625 3.58203 7.90625C3.83203 8.13542 4.13411 8.25 4.48828 8.25C4.84245 8.25 5.13411 8.13542 5.36328 7.90625C5.61328 7.65625 5.73828 7.35417 5.73828 7C5.73828 6.64583 5.61328 6.35417 5.36328 6.125ZM5.36328 9.125C5.13411 8.875 4.84245 8.75 4.48828 8.75C4.13411 8.75 3.83203 8.875 3.58203 9.125C3.35286 9.35417 3.23828 9.64583 3.23828 10C3.23828 10.3542 3.35286 10.6562 3.58203 10.9062C3.83203 11.1354 4.13411 11.25 4.48828 11.25C4.84245 11.25 5.13411 11.1354 5.36328 10.9062C5.61328 10.6562 5.73828 10.3542 5.73828 10C5.73828 9.64583 5.61328 9.35417 5.36328 9.125ZM13.4883 4.5V3.5C13.4883 3.25 13.3633 3.125 13.1133 3.125H6.86328C6.61328 3.125 6.48828 3.25 6.48828 3.5V4.5C6.48828 4.75 6.61328 4.875 6.86328 4.875H13.1133C13.3633 4.875 13.4883 4.75 13.4883 4.5ZM13.4883 7.5V6.5C13.4883 6.25 13.3633 6.125 13.1133 6.125H6.86328C6.61328 6.125 6.48828 6.25 6.48828 6.5V7.5C6.48828 7.75 6.61328 7.875 6.86328 7.875H13.1133C13.3633 7.875 13.4883 7.75 13.4883 7.5ZM13.4883 10.5V9.5C13.4883 9.25 13.3633 9.125 13.1133 9.125H6.86328C6.61328 9.125 6.48828 9.25 6.48828 9.5V10.5C6.48828 10.75 6.61328 10.875 6.86328 10.875H13.1133C13.3633 10.875 13.4883 10.75 13.4883 10.5Z" fill="white"/>
</svg>
