<svg width="10" height="16" viewBox="0 0 10 16" fill="none" xmlns="http://www.w3.org/2000/svg">
<path d="M6.95125 7.3125L3.57625 6.3125C3.17 6.21875 2.92 5.84375 2.92 5.4375C2.92 4.9375 3.32625 4.5 3.82625 4.5H5.88875C6.295 4.5 6.67 4.625 6.9825 4.84375C7.17 4.96875 7.42 4.9375 7.57625 4.78125L8.67 3.71875C8.88875 3.5 8.8575 3.15625 8.6075 2.9375C7.8575 2.34375 6.88875 2.03125 5.92 2V0.5C5.92 0.25 5.67 0 5.42 0H4.42C4.13875 0 3.92 0.25 3.92 0.5V2H3.82625C1.82625 2 0.2325 3.71875 0.42 5.75C0.545 7.1875 1.63875 8.375 3.045 8.78125L6.2325 9.71875C6.63875 9.8125 6.92 10.1875 6.92 10.5938C6.92 11.0938 6.4825 11.5 5.9825 11.5H3.92C3.545 11.5 3.17 11.4062 2.8575 11.1875C2.63875 11.0625 2.38875 11.0938 2.2325 11.25L1.13875 12.3125C0.92 12.5312 0.95125 12.875 1.20125 13.0625C1.9825 13.6875 2.92 14 3.92 14V15.5C3.92 15.7812 4.13875 16 4.42 16H5.42C5.67 16 5.92 15.7812 5.92 15.5V14C7.3575 13.9688 8.7325 13.125 9.20125 11.75C9.88875 9.8125 8.76375 7.84375 6.95125 7.3125Z" fill="white"/>
</svg>
