<svg width="67" height="60" viewBox="0 0 67 60" fill="none" xmlns="http://www.w3.org/2000/svg">
<path d="M43.1579 41.0526C44.03 41.0526 44.7369 40.3457 44.7369 39.4737C44.7369 38.6016 44.03 37.8947 43.1579 37.8947C42.2859 37.8947 41.579 38.6016 41.579 39.4737C41.579 40.3457 42.2859 41.0526 43.1579 41.0526Z" fill="black"/>
<path d="M52.1053 31.579H49.4737V26.8421C49.4712 24.9671 48.8024 23.1541 47.5868 21.7266C46.3711 20.299 44.6877 19.35 42.8371 19.0488L41.0055 11.7222C40.9552 11.5211 40.8658 11.3318 40.7424 11.1652C40.6189 10.9986 40.4638 10.8579 40.286 10.7512C40.1082 10.6446 39.9111 10.5739 39.706 10.5434C39.5009 10.5129 39.2918 10.5231 39.0907 10.5734L33.9236 11.8653L30.7484 5.11724C30.6534 4.91521 30.5165 4.73564 30.347 4.59037C30.1774 4.44511 29.979 4.33746 29.7648 4.27453C29.5505 4.21159 29.3254 4.19481 29.1042 4.22529C28.883 4.25576 28.6708 4.3328 28.4816 4.45132L5.33579 18.9474H1.57895C1.16018 18.9474 0.758573 19.1137 0.462463 19.4098C0.166353 19.7059 0 20.1076 0 20.5263V58.4211C0 58.8398 0.166353 59.2414 0.462463 59.5375C0.758573 59.8337 1.16018 60 1.57895 60H41.5789C43.672 59.9976 45.6787 59.1651 47.1588 57.6851C48.6388 56.205 49.4713 54.1984 49.4737 52.1053V47.3684H52.1053C52.524 47.3684 52.9256 47.2021 53.2218 46.906C53.5179 46.6099 53.6842 46.2082 53.6842 45.7895V33.1579C53.6842 32.7391 53.5179 32.3375 53.2218 32.0414C52.9256 31.7453 52.524 31.579 52.1053 31.579ZM39.5567 18.9474H18.6154L33.4134 15.2479L33.424 15.2453L38.3249 14.02L39.5567 18.9474ZM28.6488 8.07264L30.8008 12.6459L15.0658 16.5797L28.6488 8.07264ZM46.3158 52.1053C46.3144 53.3611 45.8149 54.5652 44.9269 55.4532C44.0388 56.3412 42.8348 56.8407 41.5789 56.8421H3.15789V22.1053H41.5686H41.5778H41.5825C42.8377 22.1076 44.0408 22.6076 44.9281 23.4955C45.8153 24.3834 46.3144 25.5869 46.3158 26.8421V31.579H39.4737C38.4969 31.5801 37.5605 31.9686 36.8698 32.6593C36.1791 33.3499 35.7906 34.2864 35.7895 35.2632V43.6842C35.7906 44.661 36.1791 45.5974 36.8698 46.2881C37.5605 46.9788 38.4969 47.3673 39.4737 47.3684H46.3158V52.1053ZM50.5263 44.2105H39.4737C39.3341 44.2105 39.2002 44.1551 39.1015 44.0564C39.0028 43.9577 38.9474 43.8238 38.9474 43.6842V35.2632C38.9474 35.1236 39.0028 34.9897 39.1015 34.891C39.2002 34.7923 39.3341 34.7369 39.4737 34.7369H50.5263V44.2105Z" fill="black"/>
<path d="M43.1579 41.0526C44.03 41.0526 44.7369 40.3457 44.7369 39.4737C44.7369 38.6016 44.03 37.8947 43.1579 37.8947C42.2859 37.8947 41.579 38.6016 41.579 39.4737C41.579 40.3457 42.2859 41.0526 43.1579 41.0526Z" fill="black"/>
<path d="M18.4211 32.6316H23.6842C24.1028 32.6321 24.5042 32.7986 24.8002 33.0946C25.0962 33.3906 25.2627 33.7919 25.2632 34.2106C25.2632 34.6293 25.4295 35.0309 25.7256 35.327C26.0217 35.6231 26.4234 35.7895 26.8421 35.7895C27.2609 35.7895 27.6625 35.6231 27.9586 35.327C28.2547 35.0309 28.4211 34.6293 28.4211 34.2106C28.4197 32.9547 27.9202 31.7507 27.0321 30.8626C26.1441 29.9746 24.9401 29.4751 23.6842 29.4737H22.1053V26.8421C22.1053 26.4234 21.9389 26.0218 21.6428 25.7256C21.3467 25.4295 20.9451 25.2632 20.5263 25.2632C20.1076 25.2632 19.706 25.4295 19.4098 25.7256C19.1137 26.0218 18.9474 26.4234 18.9474 26.8421V29.4737H18.4211C16.8856 29.4737 15.413 30.0837 14.3273 31.1694C13.2416 32.2551 12.6316 33.7277 12.6316 35.2632C12.6316 36.7986 13.2416 38.2712 14.3273 39.357C15.413 40.4427 16.8856 41.0527 18.4211 41.0527H22.6316C23.3295 41.0527 23.9989 41.3299 24.4924 41.8234C24.9859 42.3169 25.2632 42.9863 25.2632 43.6842C25.2632 44.3822 24.9859 45.0515 24.4924 45.545C23.9989 46.0386 23.3295 46.3158 22.6316 46.3158H17.3684C16.9498 46.3154 16.5485 46.1489 16.2524 45.8529C15.9564 45.5568 15.7899 45.1555 15.7895 44.7369C15.7895 44.3181 15.6231 43.9165 15.327 43.6204C15.0309 43.3243 14.6293 43.1579 14.2105 43.1579C13.7918 43.1579 13.3902 43.3243 13.0941 43.6204C12.7979 43.9165 12.6316 44.3181 12.6316 44.7369C12.633 45.9927 13.1325 47.1968 14.0205 48.0848C14.9085 48.9728 16.1126 49.4723 17.3684 49.4737H18.9474V52.1053C18.9474 52.5241 19.1137 52.9257 19.4098 53.2218C19.706 53.5179 20.1076 53.6842 20.5263 53.6842C20.9451 53.6842 21.3467 53.5179 21.6428 53.2218C21.9389 52.9257 22.1053 52.5241 22.1053 52.1053V49.4737H22.6316C24.1671 49.4737 25.6396 48.8638 26.7254 47.778C27.8111 46.6923 28.4211 45.2197 28.4211 43.6842C28.4211 42.1488 27.8111 40.6762 26.7254 39.5905C25.6396 38.5047 24.1671 37.8948 22.6316 37.8948H18.4211C17.7231 37.8948 17.0538 37.6175 16.5603 37.124C16.0667 36.6305 15.7895 35.9611 15.7895 35.2632C15.7895 34.5652 16.0667 33.8959 16.5603 33.4024C17.0538 32.9089 17.7231 32.6316 18.4211 32.6316Z" fill="black"/>
<path d="M45.7895 12.6316C45.3708 12.6316 44.9691 12.7979 44.673 13.0941C44.3769 13.3902 44.2106 13.7918 44.2106 14.2105C44.2106 14.6293 44.3769 15.0309 44.673 15.327C44.9691 15.6231 45.3708 15.7895 45.7895 15.7895C47.0454 15.7909 48.2494 16.2904 49.1374 17.1784C50.0255 18.0664 50.525 19.2705 50.5264 20.5263C50.5264 20.9451 50.6927 21.3467 50.9888 21.6428C51.2849 21.9389 51.6865 22.1053 52.1053 22.1053C52.5241 22.1053 52.9257 21.9389 53.2218 21.6428C53.5179 21.3467 53.6843 20.9451 53.6843 20.5263C53.6819 18.4332 52.8494 16.4266 51.3693 14.9465C49.8893 13.4665 47.8826 12.634 45.7895 12.6316Z" fill="black"/>
<path d="M45.7895 6.3158C45.3708 6.3158 44.9691 6.48215 44.673 6.77826C44.3769 7.07437 44.2106 7.47598 44.2106 7.89474C44.2106 8.31351 44.3769 8.71512 44.673 9.01123C44.9691 9.30734 45.3708 9.47369 45.7895 9.47369C48.7198 9.47717 51.529 10.6428 53.6011 12.7148C55.6731 14.7868 56.8387 17.5961 56.8422 20.5263C56.8422 20.9451 57.0085 21.3467 57.3046 21.6428C57.6007 21.9389 58.0023 22.1053 58.4211 22.1053C58.8399 22.1053 59.2415 21.9389 59.5376 21.6428C59.8337 21.3467 60 20.9451 60 20.5263C59.9958 16.7588 58.4972 13.1468 55.8331 10.4827C53.1691 7.81863 49.5571 6.32008 45.7895 6.3158Z" fill="black"/>
<path d="M45.7895 0C45.3708 0 44.9691 0.166353 44.673 0.462463C44.3769 0.758573 44.2106 1.16018 44.2106 1.57895C44.2106 1.99771 44.3769 2.39932 44.673 2.69543C44.9691 2.99154 45.3708 3.15789 45.7895 3.15789C55.3665 3.15789 63.1579 10.9493 63.1579 20.5263C63.1579 20.9451 63.3243 21.3467 63.6204 21.6428C63.9165 21.9389 64.3181 22.1053 64.7369 22.1053C65.1557 22.1053 65.5573 21.9389 65.8534 21.6428C66.1495 21.3467 66.3158 20.9451 66.3158 20.5263C66.3158 9.20803 57.1078 0 45.7895 0Z" fill="black"/>
</svg>
