<svg width="12" height="16" viewBox="0 0 12 16" fill="none" xmlns="http://www.w3.org/2000/svg">
<path d="M6.2325 0C3.7325 0 2.1075 1.03125 0.82625 2.875C0.6075 3.1875 0.67 3.65625 1.01375 3.875L2.3575 4.90625C2.67 5.15625 3.13875 5.09375 3.38875 4.78125C4.17 3.8125 4.76375 3.25 5.9825 3.25C6.95125 3.25 8.13875 3.84375 8.13875 4.78125C8.13875 5.5 7.545 5.84375 6.6075 6.375C5.4825 7 4.01375 7.78125 4.01375 9.71875V10C4.01375 10.4375 4.3575 10.75 4.76375 10.75H7.045C7.45125 10.75 7.795 10.4375 7.795 10V9.84375C7.795 8.5 11.7013 8.4375 11.7013 4.8125C11.7013 2.09375 8.8575 0 6.2325 0ZM5.92 11.6875C4.70125 11.6875 3.7325 12.6562 3.7325 13.8438C3.7325 15.0312 4.70125 16 5.92 16C7.1075 16 8.07625 15.0312 8.07625 13.8438C8.07625 12.6562 7.1075 11.6875 5.92 11.6875Z" fill="white"/>
</svg>
