<svg width="48" height="60" viewBox="0 0 48 60" fill="none" xmlns="http://www.w3.org/2000/svg">
<path d="M39.3915 20.2849V11.9802L46.3983 8.49617C46.66 8.36606 46.876 8.15943 47.0176 7.9037C47.1592 7.64798 47.2197 7.35524 47.191 7.06435C47.1623 6.77346 47.0459 6.49816 46.8571 6.27498C46.6684 6.05181 46.4162 5.89131 46.1341 5.81478L24.8771 0.0501704C24.6287 -0.0170882 24.3669 -0.0167151 24.1187 0.0512512L3.2719 5.76915C2.90633 5.79197 2.56319 5.95323 2.31232 6.22012C2.06145 6.487 1.92171 6.83946 1.92154 7.20574V14.4115H1.44115C1.05894 14.4115 0.692373 14.5633 0.422104 14.8336C0.151835 15.1039 0 15.4704 0 15.8527C0 16.2349 0.151835 16.6014 0.422104 16.8717C0.692373 17.142 1.05894 17.2938 1.44115 17.2938H1.92154V20.6565C1.92154 21.0387 2.07337 21.4053 2.34364 21.6756C2.61391 21.9458 2.98047 22.0977 3.36269 22.0977C3.74491 22.0977 4.11147 21.9458 4.38174 21.6756C4.65201 21.4053 4.80385 21.0387 4.80385 20.6565V17.2938H5.28423C5.66645 17.2938 6.03301 17.142 6.30328 16.8717C6.57355 16.6014 6.72538 16.2349 6.72538 15.8527C6.72538 15.4704 6.57355 15.1039 6.30328 14.8336C6.03301 14.5633 5.66645 14.4115 5.28423 14.4115H4.80385V9.48312L9.60769 11.8986V20.286C7.40736 22.2103 5.59651 24.5387 4.27326 27.1451C2.6697 30.3071 1.83904 33.8045 1.84948 37.3499C1.84948 49.8399 12.0096 60 24.4996 60C36.9896 60 47.1497 49.8399 47.1497 37.3499C47.1531 34.1159 46.4623 30.9189 45.1238 27.9749C43.7854 25.0309 41.8306 22.4085 39.3915 20.2849ZM12.49 18.4467V11.9605C19.506 8.81395 29.4931 8.81395 36.5092 11.9605V18.4467C32.9748 17.0756 28.7956 16.333 24.4996 16.333C20.2037 16.333 16.0244 17.0756 12.49 18.4467ZM24.5018 2.93488L41.7189 7.60398L37.9768 9.46463C34.161 7.69585 29.4075 6.72535 24.4996 6.72535C19.6272 6.72535 14.9063 7.68096 11.1047 9.42523L7.48199 7.60338L24.5018 2.93488ZM24.4996 57.1177C13.5996 57.1177 4.73179 48.2499 4.73179 37.3499C4.71882 31.0547 7.65637 25.3042 12.6581 21.4972C19.5835 18.4598 29.3146 18.4484 36.2612 21.4628C38.7399 23.3053 40.7544 25.7009 42.1443 28.4589C43.5342 31.217 44.2612 34.2614 44.2674 37.3499C44.2674 48.2499 35.3997 57.1177 24.4996 57.1177Z" fill="black"/>
<path d="M23.0585 29.1834H27.5021C28.107 29.1841 28.687 29.4247 29.1148 29.8525C29.5426 30.2802 29.7832 30.8602 29.7839 31.4652C29.7839 31.8474 29.9357 32.214 30.206 32.4843C30.4763 32.7545 30.8428 32.9064 31.2251 32.9064C31.6073 32.9064 31.9738 32.7545 32.2441 32.4843C32.5144 32.214 32.6662 31.8474 32.6662 31.4652C32.6646 30.0961 32.1201 28.7835 31.1519 27.8153C30.1838 26.8472 28.8712 26.3026 27.5021 26.3011H25.9408V23.8992C25.9408 23.5169 25.789 23.1504 25.5187 22.8801C25.2484 22.6098 24.8819 22.458 24.4997 22.458C24.1174 22.458 23.7509 22.6098 23.4806 22.8801C23.2104 23.1504 23.0585 23.5169 23.0585 23.8992V26.3011C21.2748 26.3011 19.5642 27.0096 18.3029 28.2709C17.0417 29.5322 16.3331 31.2428 16.3331 33.0265C16.3331 34.8102 17.0417 36.5208 18.3029 37.782C19.5642 39.0433 21.2748 39.7519 23.0585 39.7519H25.9408C26.9601 39.7519 27.9376 40.1567 28.6583 40.8775C29.379 41.5982 29.7839 42.5757 29.7839 43.5949C29.7839 44.6142 29.379 45.5917 28.6583 46.3124C27.9376 47.0331 26.9601 47.438 25.9408 47.438H21.6174C20.9806 47.4373 20.37 47.184 19.9198 46.7337C19.4695 46.2834 19.2162 45.6729 19.2154 45.0361C19.2154 44.6539 19.0636 44.2873 18.7933 44.017C18.5231 43.7468 18.1565 43.5949 17.7743 43.5949C17.3921 43.5949 17.0255 43.7468 16.7552 44.017C16.485 44.2873 16.3331 44.6539 16.3331 45.0361C16.3347 46.4371 16.8919 47.7802 17.8826 48.7709C18.8732 49.7615 20.2164 50.3188 21.6174 50.3203H23.0585V51.7615C23.0585 52.1437 23.2104 52.5102 23.4806 52.7805C23.7509 53.0508 24.1174 53.2026 24.4997 53.2026C24.8819 53.2026 25.2484 53.0508 25.5187 52.7805C25.789 52.5102 25.9408 52.1437 25.9408 51.7615V50.3203C27.7245 50.3203 29.4351 49.6117 30.6964 48.3505C31.9576 47.0892 32.6662 45.3786 32.6662 43.5949C32.6662 41.8112 31.9576 40.1006 30.6964 38.8394C29.4351 37.5781 27.7245 36.8695 25.9408 36.8695H23.0585C22.0393 36.8695 21.0618 36.4646 20.341 35.7439C19.6203 35.0232 19.2154 34.0457 19.2154 33.0265C19.2154 32.0072 19.6203 31.0297 20.341 30.309C21.0618 29.5883 22.0393 29.1834 23.0585 29.1834Z" fill="black"/>
</svg>
