<svg width="57" height="60" viewBox="0 0 57 60" fill="none" xmlns="http://www.w3.org/2000/svg">
<path d="M54.7626 7.61905H48.5722V5.23809C48.5706 3.84934 48.0183 2.51791 47.0363 1.53591C46.0543 0.553909 44.7228 0.00154399 43.3341 0H5.23885C3.8501 0.00154399 2.51867 0.553909 1.53667 1.53591C0.554668 2.51791 0.00230282 3.84934 0.000758834 5.23809V58.5714C-0.0403126 59.8061 1.596 60.4836 2.43945 59.5815L5.23885 56.7822L8.03826 59.5815C8.27176 59.815 8.57896 59.9605 8.90759 59.993C9.23621 60.0256 9.56597 59.9433 9.84076 59.7601L14.7627 56.4788L19.6846 59.7601C19.9192 59.9165 20.1949 60 20.4769 60C20.759 60 21.0347 59.9165 21.2693 59.7601L26.1912 56.4788L31.1131 59.7601C31.3879 59.9433 31.7177 60.0256 32.0463 59.993C32.3749 59.9605 32.6821 59.815 32.9156 59.5815L35.715 56.7822L38.5144 59.5815C39.3628 60.4849 40.993 59.8047 40.9531 58.5714V33.3333H50.9531C52.3419 33.3318 53.6733 32.7794 54.6553 31.7974C55.6373 30.8154 56.1897 29.484 56.1912 28.0952V9.04762C56.1912 8.66874 56.0407 8.30537 55.7728 8.03746C55.5049 7.76956 55.1415 7.61905 54.7626 7.61905ZM38.096 55.1225L36.7252 53.7518C36.4572 53.4839 36.0939 53.3334 35.715 53.3334C35.3362 53.3334 34.9728 53.4839 34.7049 53.7518L31.7235 56.7332L26.9836 53.5732C26.749 53.4168 26.4732 53.3333 26.1912 53.3333C25.9092 53.3333 25.6335 53.4168 25.3988 53.5732L20.4769 56.8545L15.555 53.5732C15.3204 53.4168 15.0447 53.3333 14.7627 53.3333C14.4806 53.3333 14.2049 53.4168 13.9703 53.5732L9.2304 56.7332L6.24897 53.7518C5.98107 53.4839 5.61772 53.3334 5.23885 53.3334C4.85999 53.3334 4.49664 53.4839 4.22873 53.7518L2.8579 55.1225V5.23809C2.85863 4.60685 3.10971 4.00167 3.55607 3.55531C4.00242 3.10895 4.60761 2.85787 5.23885 2.85714H38.669C38.2914 3.59396 38.095 4.41018 38.096 5.23809V55.1225ZM40.9531 30.4762V5.23809C40.9531 4.60663 41.204 4.00102 41.6505 3.55451C42.097 3.10799 42.7026 2.85714 43.3341 2.85714C43.9655 2.85714 44.5712 3.10799 45.0177 3.55451C45.4642 4.00102 45.715 4.60663 45.715 5.23809V28.0952C45.714 28.9231 45.9104 29.7394 46.288 30.4762H40.9531ZM53.3341 28.0952C53.3341 28.7267 53.0832 29.3323 52.6367 29.7788C52.1902 30.2253 51.5846 30.4762 50.9531 30.4762C50.3217 30.4762 49.7161 30.2253 49.2695 29.7788C48.823 29.3323 48.5722 28.7267 48.5722 28.0952V10.4762H53.3341V28.0952Z" fill="black"/>
<path d="M18.5721 12.3815H23.334C23.7127 12.3819 24.0759 12.5326 24.3437 12.8004C24.6115 13.0682 24.7621 13.4313 24.7626 13.8101C24.7626 14.189 24.9131 14.5523 25.181 14.8202C25.4489 15.0881 25.8122 15.2387 26.1911 15.2387C26.57 15.2387 26.9334 15.0881 27.2013 14.8202C27.4692 14.5523 27.6197 14.189 27.6197 13.8101C27.6184 12.6738 27.1665 11.5845 26.363 10.781C25.5596 9.97756 24.4702 9.52563 23.334 9.52437H21.9054V7.14341C21.9054 6.76453 21.7549 6.40117 21.487 6.13326C21.2191 5.86535 20.8557 5.71484 20.4768 5.71484C20.098 5.71484 19.7346 5.86535 19.4667 6.13326C19.1988 6.40117 19.0483 6.76453 19.0483 7.14341V9.52437H18.5721C17.1828 9.52437 15.8505 10.0762 14.8682 11.0586C13.8859 12.0409 13.334 13.3732 13.334 14.7625C13.334 16.1517 13.8859 17.484 14.8682 18.4664C15.8505 19.4487 17.1828 20.0006 18.5721 20.0006H22.3816C23.0131 20.0006 23.6187 20.2514 24.0652 20.6979C24.5117 21.1444 24.7626 21.75 24.7626 22.3815C24.7626 23.013 24.5117 23.6186 24.0652 24.0651C23.6187 24.5116 23.0131 24.7625 22.3816 24.7625H17.6197C17.2409 24.762 16.8778 24.6114 16.61 24.3436C16.3422 24.0758 16.1915 23.7126 16.1911 23.3339C16.1911 22.955 16.0406 22.5916 15.7727 22.3237C15.5048 22.0558 15.1414 21.9053 14.7626 21.9053C14.3837 21.9053 14.0203 22.0558 13.7524 22.3237C13.4845 22.5916 13.334 22.955 13.334 23.3339C13.3352 24.4701 13.7872 25.5595 14.5906 26.363C15.3941 27.1664 16.4834 27.6183 17.6197 27.6196H19.0483V30.0006C19.0483 30.3794 19.1988 30.7428 19.4667 31.0107C19.7346 31.2786 20.098 31.4291 20.4768 31.4291C20.8557 31.4291 21.2191 31.2786 21.487 31.0107C21.7549 30.7428 21.9054 30.3794 21.9054 30.0006V27.6196H22.3816C23.7708 27.6196 25.1032 27.0677 26.0855 26.0854C27.0678 25.1031 27.6197 23.7707 27.6197 22.3815C27.6197 20.9923 27.0678 19.6599 26.0855 18.6776C25.1032 17.6953 23.7708 17.1434 22.3816 17.1434H18.5721C17.9406 17.1434 17.335 16.8926 16.8885 16.446C16.442 15.9995 16.1911 15.3939 16.1911 14.7625C16.1911 14.131 16.442 13.5254 16.8885 13.0789C17.335 12.6324 17.9406 12.3815 18.5721 12.3815Z" fill="black"/>
<path d="M7.14366 36.1914C6.76478 36.1914 6.40142 36.3419 6.13351 36.6098C5.8656 36.8777 5.71509 37.2411 5.71509 37.62V45.239C5.71509 45.6179 5.8656 45.9813 6.13351 46.2492C6.40142 46.5171 6.76478 46.6676 7.14366 46.6676C7.52254 46.6676 7.8859 46.5171 8.15381 46.2492C8.42172 45.9813 8.57223 45.6179 8.57223 45.239V37.62C8.57223 37.2411 8.42172 36.8777 8.15381 36.6098C7.8859 36.3419 7.52254 36.1914 7.14366 36.1914Z" fill="black"/>
<path d="M10.9532 36.1914C10.5743 36.1914 10.211 36.3419 9.94308 36.6098C9.67517 36.8777 9.52466 37.2411 9.52466 37.62V45.239C9.52466 45.6179 9.67517 45.9813 9.94308 46.2492C10.211 46.5171 10.5743 46.6676 10.9532 46.6676C11.3321 46.6676 11.6955 46.5171 11.9634 46.2492C12.2313 45.9813 12.3818 45.6179 12.3818 45.239V37.62C12.3818 37.2411 12.2313 36.8777 11.9634 36.6098C11.6955 36.3419 11.3321 36.1914 10.9532 36.1914Z" fill="black"/>
<path d="M16.6673 36.1914C16.2885 36.1914 15.9251 36.3419 15.6572 36.6098C15.3893 36.8777 15.2388 37.2411 15.2388 37.62V45.239C15.2388 45.6179 15.3893 45.9813 15.6572 46.2492C15.9251 46.5171 16.2885 46.6676 16.6673 46.6676C17.0462 46.6676 17.4096 46.5171 17.6775 46.2492C17.9454 45.9813 18.0959 45.6179 18.0959 45.239V37.62C18.0959 37.2411 17.9454 36.8777 17.6775 36.6098C17.4096 36.3419 17.0462 36.1914 16.6673 36.1914Z" fill="black"/>
<path d="M20.4769 36.1914C20.098 36.1914 19.7347 36.3419 19.4668 36.6098C19.1989 36.8777 19.0483 37.2411 19.0483 37.62V45.239C19.0483 45.6179 19.1989 45.9813 19.4668 46.2492C19.7347 46.5171 20.098 46.6676 20.4769 46.6676C20.8558 46.6676 21.2192 46.5171 21.4871 46.2492C21.755 45.9813 21.9055 45.6179 21.9055 45.239V37.62C21.9055 37.2411 21.755 36.8777 21.4871 36.6098C21.2192 36.3419 20.8558 36.1914 20.4769 36.1914Z" fill="black"/>
<path d="M24.2865 36.1914C23.9076 36.1914 23.5442 36.3419 23.2763 36.6098C23.0084 36.8777 22.8579 37.2411 22.8579 37.62V45.239C22.8579 45.6179 23.0084 45.9813 23.2763 46.2492C23.5442 46.5171 23.9076 46.6676 24.2865 46.6676C24.6654 46.6676 25.0287 46.5171 25.2966 46.2492C25.5645 45.9813 25.7151 45.6179 25.7151 45.239V37.62C25.7151 37.2411 25.5645 36.8777 25.2966 36.6098C25.0287 36.3419 24.6654 36.1914 24.2865 36.1914Z" fill="black"/>
<path d="M30.0008 36.1914C29.622 36.1914 29.2586 36.3419 28.9907 36.6098C28.7228 36.8777 28.5723 37.2411 28.5723 37.62V45.239C28.5723 45.6179 28.7228 45.9813 28.9907 46.2492C29.2586 46.5171 29.622 46.6676 30.0008 46.6676C30.3797 46.6676 30.7431 46.5171 31.011 46.2492C31.2789 45.9813 31.4294 45.6179 31.4294 45.239V37.62C31.4294 37.2411 31.2789 36.8777 31.011 36.6098C30.7431 36.3419 30.3797 36.1914 30.0008 36.1914Z" fill="black"/>
<path d="M33.8102 36.1914C33.4313 36.1914 33.0679 36.3419 32.8 36.6098C32.5321 36.8777 32.3816 37.2411 32.3816 37.62V45.239C32.3816 45.6179 32.5321 45.9813 32.8 46.2492C33.0679 46.5171 33.4313 46.6676 33.8102 46.6676C34.189 46.6676 34.5524 46.5171 34.8203 46.2492C35.0882 45.9813 35.2387 45.6179 35.2387 45.239V37.62C35.2387 37.2411 35.0882 36.8777 34.8203 36.6098C34.5524 36.3419 34.189 36.1914 33.8102 36.1914Z" fill="black"/>
</svg>
