<svg width="26" height="29" viewBox="0 0 26 29" fill="none" xmlns="http://www.w3.org/2000/svg">
<path d="M24.5938 9.25C24.9219 9.25 25.25 8.97656 25.25 8.59375V6.625C25.25 5.20312 24.0469 4 22.625 4H20V1.15625C20 0.828125 19.6719 0.5 19.3438 0.5H17.1562C16.7734 0.5 16.5 0.828125 16.5 1.15625V4H9.5V1.15625C9.5 0.828125 9.17188 0.5 8.84375 0.5H6.65625C6.27344 0.5 6 0.828125 6 1.15625V4H3.375C1.89844 4 0.75 5.20312 0.75 6.625V8.59375C0.75 8.97656 1.02344 9.25 1.40625 9.25H24.5938ZM1.40625 11C1.02344 11 0.75 11.3281 0.75 11.6562V25.875C0.75 27.3516 1.89844 28.5 3.375 28.5H22.625C24.0469 28.5 25.25 27.3516 25.25 25.875V11.6562C25.25 11.3281 24.9219 11 24.5938 11H1.40625ZM19.6172 16.25C19.8359 16.5234 19.8359 16.9609 19.6172 17.1797L11.7969 24.9453C11.5234 25.2188 11.0859 25.2188 10.8672 24.9453L6.32812 20.4062C6.10938 20.1328 6.10938 19.75 6.32812 19.4766L7.91406 17.9453C8.13281 17.6719 8.57031 17.6719 8.84375 17.9453L11.3594 20.4609L17.1562 14.7188C17.375 14.4453 17.8125 14.4453 18.0859 14.7188L19.6172 16.25Z" fill="#2B7D83"/>
</svg>
