<svg width="9" height="16" viewBox="0 0 9 16" fill="none" xmlns="http://www.w3.org/2000/svg">
<path d="M6.53777 7.29375L3.16204 6.30625C2.77133 6.19375 2.4994 5.82812 2.4994 5.42188C2.4994 4.9125 2.91199 4.5 3.42147 4.5H5.49379C5.87512 4.5 6.2502 4.61562 6.56277 4.82812C6.75344 4.95625 7.00974 4.925 7.17228 4.76562L8.26001 3.70312C8.48193 3.4875 8.45068 3.12812 8.20375 2.9375C7.43796 2.3375 6.4815 2.00312 5.50004 2V0.5C5.50004 0.225 5.27499 0 4.99994 0H3.99972C3.72466 0 3.49961 0.225 3.49961 0.5V2H3.42147C1.43042 2 -0.169925 3.70938 0.0144896 5.7375C0.145768 7.17813 1.246 8.35 2.6338 8.75625L5.83762 9.69375C6.22832 9.80938 6.50026 10.1719 6.50026 10.5781C6.50026 11.0875 6.08767 11.5 5.57818 11.5H3.50586C3.12453 11.5 2.74945 11.3844 2.43688 11.1719C2.24622 11.0437 1.98991 11.075 1.82738 11.2344L0.739645 12.2969C0.517723 12.5125 0.548979 12.8719 0.795907 13.0625C1.5617 13.6625 2.51815 13.9969 3.49961 14V15.5C3.49961 15.775 3.72466 16 3.99972 16H4.99994C5.27499 16 5.50004 15.775 5.50004 15.5V13.9937C6.95661 13.9656 8.32252 13.1 8.80388 11.7219C9.4759 9.79688 8.34753 7.82187 6.53777 7.29375Z" fill="white"/>
</svg>
