<svg width="63" height="60" viewBox="0 0 63 60" fill="none" xmlns="http://www.w3.org/2000/svg">
<path d="M57.5 0H13.5C12.0418 0.00162119 10.6438 0.581604 9.6127 1.6127C8.5816 2.6438 8.00162 4.04181 8 5.5V49H1.5C1.10218 49 0.720644 49.158 0.43934 49.4393C0.158035 49.7206 0 50.1022 0 50.5V54.5C0.00162119 55.9582 0.581604 57.3562 1.6127 58.3873C2.6438 59.4184 4.04181 59.9984 5.5 60H49.5C50.9582 59.9984 52.3562 59.4184 53.3873 58.3873C54.4184 57.3562 54.9984 55.9582 55 54.5V13H61.5C61.8978 13 62.2794 12.842 62.5607 12.5607C62.842 12.2794 63 11.8978 63 11.5V5.5C62.9984 4.04181 62.4184 2.6438 61.3873 1.6127C60.3562 0.581604 58.9582 0.00162119 57.5 0ZM5.5 57C4.83719 56.9992 4.20175 56.7356 3.73307 56.2669C3.2644 55.7982 3.00076 55.1628 3 54.5V52H44V54.5C43.9989 55.3693 44.2052 56.2263 44.6016 57H5.5ZM52 54.5C52 55.163 51.7366 55.7989 51.2678 56.2678C50.7989 56.7366 50.163 57 49.5 57C48.837 57 48.2011 56.7366 47.7322 56.2678C47.2634 55.7989 47 55.163 47 54.5V50.5C47 50.1022 46.842 49.7206 46.5607 49.4393C46.2794 49.158 45.8978 49 45.5 49H11V5.5C11.0008 4.83719 11.2644 4.20175 11.7331 3.73307C12.2017 3.2644 12.8372 3.00076 13.5 3H52.6016C52.2052 3.77365 51.9989 4.63069 52 5.5V54.5ZM60 10H55V5.5C55 4.83696 55.2634 4.20107 55.7322 3.73223C56.2011 3.26339 56.837 3 57.5 3C58.163 3 58.7989 3.26339 59.2678 3.73223C59.7366 4.20107 60 4.83696 60 5.5V10Z" fill="black"/>
<path d="M31.5 17C28.6322 17 25.8287 17.8504 23.4442 19.4437C21.0597 21.037 19.2012 23.3016 18.1038 25.9511C17.0063 28.6006 16.7191 31.5161 17.2786 34.3288C17.8381 37.1415 19.2191 39.7252 21.247 41.753C23.2748 43.7809 25.8585 45.1619 28.6712 45.7214C31.4839 46.2809 34.3994 45.9937 37.0489 44.8963C39.6984 43.7988 41.963 41.9403 43.5563 39.5558C45.1496 37.1713 46 34.3678 46 31.5C45.9956 27.6557 44.4666 23.9701 41.7482 21.2518C39.0299 18.5334 35.3443 17.0044 31.5 17ZM31.5 43C29.2255 43 27.0021 42.3255 25.1109 41.0619C23.2198 39.7983 21.7458 38.0022 20.8754 35.9009C20.005 33.7995 19.7772 31.4872 20.221 29.2565C20.6647 27.0257 21.76 24.9766 23.3683 23.3683C24.9766 21.76 27.0257 20.6647 29.2565 20.221C31.4872 19.7772 33.7995 20.005 35.9009 20.8754C38.0022 21.7458 39.7983 23.2198 41.0619 25.1109C42.3255 27.0021 43 29.2255 43 31.5C42.9967 34.549 41.784 37.4721 39.6281 39.6281C37.4721 41.784 34.549 42.9967 31.5 43Z" fill="black"/>
<path d="M31.3967 24.053C29.9385 24.0546 28.5406 24.6346 27.5095 25.6657C26.4784 26.6968 25.8984 28.0948 25.8967 29.553V37.553C25.8967 37.9508 26.0548 38.3323 26.3361 38.6136C26.6174 38.8949 26.9989 39.053 27.3967 39.053C27.7946 39.053 28.1761 38.8949 28.4574 38.6136C28.7387 38.3323 28.8967 37.9508 28.8967 37.553V35.053H33.8967V37.553C33.8967 37.9508 34.0548 38.3323 34.3361 38.6136C34.6174 38.8949 34.9989 39.053 35.3967 39.053C35.7946 39.053 36.1761 38.8949 36.4574 38.6136C36.7387 38.3323 36.8967 37.9508 36.8967 37.553V29.553C36.8951 28.0948 36.3151 26.6968 35.284 25.6657C34.2529 24.6346 32.8549 24.0546 31.3967 24.053ZM33.8967 32.053H28.8967V29.553C28.8967 28.8899 29.1601 28.2541 29.629 27.7852C30.0978 27.3164 30.7337 27.053 31.3967 27.053C32.0598 27.053 32.6957 27.3164 33.1645 27.7852C33.6333 28.2541 33.8967 28.8899 33.8967 29.553V32.053Z" fill="black"/>
<path d="M47.625 10H45.125V7.5C45.125 7.10218 44.967 6.72064 44.6857 6.43934C44.4044 6.15804 44.0228 6 43.625 6C43.2272 6 42.8456 6.15804 42.5643 6.43934C42.283 6.72064 42.125 7.10218 42.125 7.5V10H39.625C39.2272 10 38.8456 10.158 38.5643 10.4393C38.283 10.7206 38.125 11.1022 38.125 11.5C38.125 11.8978 38.283 12.2794 38.5643 12.5607C38.8456 12.842 39.2272 13 39.625 13H42.125V15.5C42.125 15.8978 42.283 16.2794 42.5643 16.5607C42.8456 16.842 43.2272 17 43.625 17C44.0228 17 44.4044 16.842 44.6857 16.5607C44.967 16.2794 45.125 15.8978 45.125 15.5V13H47.625C48.0228 13 48.4044 12.842 48.6857 12.5607C48.967 12.2794 49.125 11.8978 49.125 11.5C49.125 11.1022 48.967 10.7206 48.6857 10.4393C48.4044 10.158 48.0228 10 47.625 10Z" fill="black"/>
<path d="M15.5 9H35.5C35.8978 9 36.2794 8.84196 36.5607 8.56066C36.842 8.27936 37 7.89782 37 7.5C37 7.10218 36.842 6.72064 36.5607 6.43934C36.2794 6.15804 35.8978 6 35.5 6H15.5C15.1022 6 14.7206 6.15804 14.4393 6.43934C14.158 6.72064 14 7.10218 14 7.5C14 7.89782 14.158 8.27936 14.4393 8.56066C14.7206 8.84196 15.1022 9 15.5 9Z" fill="black"/>
<path d="M26 13.5C26 13.1022 25.842 12.7206 25.5607 12.4393C25.2794 12.158 24.8978 12 24.5 12H15.5C15.1022 12 14.7206 12.158 14.4393 12.4393C14.158 12.7206 14 13.1022 14 13.5C14 13.8978 14.158 14.2794 14.4393 14.5607C14.7206 14.842 15.1022 15 15.5 15H24.5C24.8978 15 25.2794 14.842 25.5607 14.5607C25.842 14.2794 26 13.8978 26 13.5Z" fill="black"/>
</svg>
