<svg width="60" height="60" viewBox="0 0 60 60" fill="none" xmlns="http://www.w3.org/2000/svg">
<g clip-path="url(#clip0_1_2674)">
<path d="M29.9999 0.868164C32.1363 0.868164 34.2723 1.11012 36.3349 1.54688L36.3359 1.54785C37.0435 1.7051 37.4879 2.41165 37.331 3.11816C37.1835 3.78173 36.5531 4.21484 35.8925 4.13672L35.7607 4.11426C33.8804 3.70447 31.928 3.4873 29.9999 3.4873C15.3697 3.48732 3.48726 15.3698 3.48724 30C3.48724 44.6302 15.3697 56.5127 29.9999 56.5127C44.6302 56.5127 56.5126 44.6303 56.5126 30C56.5126 28.0478 56.2955 26.1196 55.8857 24.2393V24.2383C55.7295 23.5321 56.1745 22.8261 56.8818 22.6689C57.5883 22.512 58.2948 22.9564 58.4521 23.6641C58.9134 25.7281 59.1318 27.8643 59.1318 30C59.1318 46.0714 46.0713 59.1318 29.9999 59.1318C13.9286 59.1318 0.868103 46.0713 0.868103 30C0.868121 13.9287 13.9286 0.868182 29.9999 0.868164ZM29.9999 10.5449C31.3124 10.5449 32.6259 10.6668 33.8915 10.9346H33.8925C34.5985 11.0915 35.0435 11.7719 34.913 12.4775L34.912 12.4814C34.7551 13.1875 34.0748 13.6325 33.3691 13.502L33.3681 13.501C32.2609 13.2843 31.13 13.1641 29.9999 13.1641C20.7165 13.1641 13.164 20.7165 13.164 30C13.164 39.2835 20.7165 46.8359 29.9999 46.8359C39.2834 46.8359 46.8359 39.2835 46.8359 30C46.8359 28.8705 46.7154 27.7405 46.499 26.6338C46.3414 25.9226 46.8162 25.244 47.5185 25.0879L47.5224 25.0869C48.2243 24.9571 48.9323 25.3979 49.0654 26.1084L49.1591 26.585C49.3618 27.7023 49.455 28.8515 49.455 30C49.455 40.7246 40.7245 49.4551 29.9999 49.4551C19.2754 49.4551 10.5449 40.7246 10.5449 30C10.5449 19.2754 19.2754 10.5449 29.9999 10.5449ZM28.5829 20.3203C29.3169 20.1914 29.9707 20.6915 30.0751 21.4209C30.1796 22.1524 29.6823 22.8081 28.9745 22.9131L28.9247 22.9209L28.9003 22.8975C25.4184 23.4199 22.8174 26.461 22.8173 29.9756C22.8173 33.9122 26.0389 37.1337 29.9755 37.1338C33.5068 37.1338 36.5615 34.5088 37.0624 31.002L37.0888 30.8711C37.2527 30.2332 37.892 29.8033 38.5546 29.9014C39.2191 29.9998 39.6971 30.604 39.6679 31.2617L39.6552 31.3936C38.9706 36.1847 34.8153 39.7773 29.9755 39.7773C24.5736 39.7772 20.1982 35.4019 20.1982 30C20.1982 25.3114 23.57 21.2652 28.1367 20.3945L28.5829 20.3203ZM47.2275 1.25977C47.592 0.89526 48.1663 0.762414 48.6425 0.972656H48.6435C49.1394 1.18148 49.455 1.65276 49.455 2.17773V10.5449H57.8222C58.3472 10.5449 58.8184 10.8605 59.0273 11.3564C59.2376 11.856 59.1057 12.4069 58.7402 12.7725L52.9091 18.6025C51.7532 19.7585 50.2038 20.3984 48.5566 20.3984H41.4365L30.9413 30.8936C30.681 31.1538 30.3413 31.2851 30.0244 31.2852C29.7118 31.2852 29.3461 31.1566 29.1064 30.8926C28.584 30.3697 28.5838 29.5569 29.1064 29.0342L39.5771 18.5635V11.4434C39.5771 9.79617 40.217 8.24677 41.373 7.09082L47.2275 1.25977ZM43.2324 8.9502C42.5735 9.60902 42.1973 10.5025 42.1972 11.4434V17.8037H48.5566C49.4974 17.8037 50.3909 17.4264 51.0497 16.7676L54.6542 13.1641H48.1454C47.4128 13.1641 46.8359 12.5871 46.8359 11.8545V5.3457L43.2324 8.9502Z" fill="black" stroke="black" stroke-width="0.2"/>
</g>
<defs>
<clipPath id="clip0_1_2674">
<rect width="60" height="60" fill="white"/>
</clipPath>
</defs>
</svg>
