<svg width="62" height="62" viewBox="0 0 62 62" fill="none" xmlns="http://www.w3.org/2000/svg">
<g clip-path="url(#clip0_36_7300)">
<path d="M55.5417 23.25C59.1015 23.25 62 20.3515 62 16.7917C62 13.2318 59.1015 10.3333 55.5417 10.3333C51.9818 10.3333 49.0833 13.2318 49.0833 16.7917C49.0833 20.3515 51.9818 23.25 55.5417 23.25ZM55.5417 12.9167C57.6781 12.9167 59.4167 14.6552 59.4167 16.7917C59.4167 18.9281 57.6781 20.6667 55.5417 20.6667C53.4052 20.6667 51.6667 18.9281 51.6667 16.7917C51.6667 14.6552 53.4052 12.9167 55.5417 12.9167ZM55.5417 25.8333C51.9818 25.8333 49.0833 28.7318 49.0833 32.2917V46.5H41.3333V62H43.9167V49.0833H55.5417C59.1015 49.0833 62 46.1848 62 42.625V32.2917C62 28.7318 59.1015 25.8333 55.5417 25.8333ZM59.4167 42.625C59.4167 44.7614 57.6781 46.5 55.5417 46.5H51.6667V32.2917C51.6667 30.1552 53.4052 28.4167 55.5417 28.4167C57.6781 28.4167 59.4167 30.1552 59.4167 32.2917V42.625ZM43.9167 36.1667H18.0833V33.5833H43.9167V36.1667ZM29.2433 23.8752C29.7471 24.3221 30.38 24.5443 31.0103 24.5443C31.6277 24.5443 32.2426 24.3298 32.7231 23.9036L36.6317 20.6667H43.9167V3.875C43.9167 1.73858 42.1781 0 40.0417 0H21.9583C19.8219 0 18.0833 1.73858 18.0833 3.875V20.6667H25.3683L29.2433 23.8752ZM20.6667 3.875C20.6667 3.162 21.2453 2.58333 21.9583 2.58333H40.0417C40.7547 2.58333 41.3333 3.162 41.3333 3.875V18.0833H35.7017L30.9251 21.9118L26.2983 18.0833H20.6667V3.875ZM49.0833 54.25H62V56.8333H51.6667V62H49.0833V54.25ZM6.45833 23.25C10.0182 23.25 12.9167 20.3515 12.9167 16.7917C12.9167 13.2318 10.0182 10.3333 6.45833 10.3333C2.8985 10.3333 0 13.2318 0 16.7917C0 20.3515 2.8985 23.25 6.45833 23.25ZM6.45833 12.9167C8.59475 12.9167 10.3333 14.6552 10.3333 16.7917C10.3333 18.9281 8.59475 20.6667 6.45833 20.6667C4.32192 20.6667 2.58333 18.9281 2.58333 16.7917C2.58333 14.6552 4.32192 12.9167 6.45833 12.9167ZM12.9167 32.2917C12.9167 28.7318 10.0182 25.8333 6.45833 25.8333C2.8985 25.8333 0 28.7318 0 32.2917V42.625C0 46.1848 2.8985 49.0833 6.45833 49.0833H18.0833V62H20.6667V46.5H12.9167V32.2917ZM6.45833 46.5C4.32192 46.5 2.58333 44.7614 2.58333 42.625V32.2917C2.58333 30.1552 4.32192 28.4167 6.45833 28.4167C8.59475 28.4167 10.3333 30.1552 10.3333 32.2917V46.5H6.45833ZM0 54.25H12.9167V62H10.3333V56.8333H0V54.25Z" fill="black"/>
</g>
<defs>
<clipPath id="clip0_36_7300">
<rect width="62" height="62" fill="white"/>
</clipPath>
</defs>
</svg>
