<svg width="18" height="17" viewBox="0 0 18 17" fill="none" xmlns="http://www.w3.org/2000/svg">
<path d="M2 0.779805V6.4898C2 6.7498 2.2 6.9698 2.44 6.9698H6.35C6.47 6.9698 6.58 7.0198 6.66 7.1098L8.7 9.3298C8.87 9.5198 9.15 9.5198 9.32 9.3298L11.36 7.1098C11.44 7.0198 11.55 6.9698 11.67 6.9698H15.58C15.82 6.9698 16.02 6.7598 16.02 6.4898V0.779805C16.02 0.519805 15.82 0.299805 15.58 0.299805H2.44C2.2 0.299805 2 0.509805 2 0.779805Z" fill="white"/>
<path d="M4.92 14C4.92 13.74 4.95 13.49 5 13.25H0.67C0.3 13.25 0 13.59 0 14C0 14.41 0.3 14.75 0.67 14.75H5C4.95 14.51 4.92 14.26 4.92 14Z" fill="white"/>
<path d="M17.33 13.25H13C13.05 13.49 13.08 13.74 13.08 14C13.08 14.26 13.05 14.51 13 14.75H17.33C17.7 14.75 18 14.41 18 14C18 13.59 17.7 13.25 17.33 13.25Z" fill="white"/>
<path d="M9 16.5C10.3807 16.5 11.5 15.3807 11.5 14C11.5 12.6193 10.3807 11.5 9 11.5C7.61929 11.5 6.5 12.6193 6.5 14C6.5 15.3807 7.61929 16.5 9 16.5Z" fill="white"/>
</svg>
