<svg width="10" height="11" viewBox="0 0 10 11" fill="none" xmlns="http://www.w3.org/2000/svg">
<path d="M5 0.40625C2.32422 0.40625 0.15625 2.57422 0.15625 5.25C0.15625 7.92578 2.32422 10.0938 5 10.0938C7.67578 10.0938 9.84375 7.92578 9.84375 5.25C9.84375 2.57422 7.67578 0.40625 5 0.40625ZM7.20703 4.91797C7.40234 5.11328 7.40234 5.40625 7.20703 5.58203L4.57031 8.23828C4.39453 8.41406 4.08203 8.41406 3.90625 8.23828L3.57422 7.90625C3.39844 7.73047 3.39844 7.41797 3.57422 7.24219L5.56641 5.25L3.57422 3.27734C3.39844 3.10156 3.39844 2.78906 3.57422 2.61328L3.90625 2.28125C4.08203 2.10547 4.39453 2.10547 4.57031 2.28125L7.20703 4.91797Z" fill="#000"/>
</svg>
