<svg width="55" height="60" viewBox="0 0 55 60" fill="none" xmlns="http://www.w3.org/2000/svg">
<path d="M31.4261 28.093C31.4245 26.7044 30.8722 25.373 29.8903 24.3911C28.9083 23.4092 27.577 22.8569 26.1884 22.8553H22.3792C21.7477 22.8553 21.1422 22.6045 20.6957 22.158C20.2492 21.7115 19.9984 21.106 19.9984 20.4746C19.9984 19.8432 20.2492 19.2376 20.6957 18.7911C21.1422 18.3446 21.7477 18.0938 22.3792 18.0938H27.1407C27.5194 18.0942 27.8825 18.2448 28.1503 18.5126C28.4181 18.7804 28.5687 19.1435 28.5691 19.5223C28.5691 19.9011 28.7196 20.2644 28.9875 20.5323C29.2554 20.8002 29.6187 20.9507 29.9976 20.9507C30.3764 20.9507 30.7398 20.8002 31.0077 20.5323C31.2756 20.2644 31.4261 19.9011 31.4261 19.5223C31.4248 18.3861 30.9729 17.2968 30.1695 16.4934C29.3661 15.6901 28.2768 15.2382 27.1407 15.2369H25.7122V12.8561C25.7122 12.4773 25.5617 12.1139 25.2938 11.8461C25.026 11.5782 24.6626 11.4277 24.2838 11.4277C23.9049 11.4277 23.5416 11.5782 23.2737 11.8461C23.0058 12.1139 22.8553 12.4773 22.8553 12.8561V15.2369H22.3792C20.99 15.2369 19.6578 15.7887 18.6756 16.771C17.6933 17.7532 17.1415 19.0855 17.1415 20.4746C17.1415 21.8637 17.6933 23.1959 18.6756 24.1782C19.6578 25.1604 20.99 25.7122 22.3792 25.7122H26.1884C26.8198 25.7122 27.4254 25.9631 27.8718 26.4096C28.3183 26.856 28.5691 27.4616 28.5691 28.093C28.5691 28.7244 28.3183 29.33 27.8718 29.7765C27.4254 30.2229 26.8198 30.4738 26.1884 30.4738H21.4269C21.0481 30.4734 20.685 30.3227 20.4172 30.0549C20.1494 29.7871 19.9988 29.424 19.9984 29.0453C19.9984 28.6665 19.8479 28.3031 19.58 28.0352C19.3121 27.7674 18.9488 27.6169 18.5699 27.6169C18.1911 27.6169 17.8278 27.7674 17.5599 28.0352C17.292 28.3031 17.1415 28.6665 17.1415 29.0453C17.1427 30.1815 17.5946 31.2707 18.398 32.0741C19.2014 32.8775 20.2907 33.3294 21.4269 33.3307H22.8553V35.7114C22.8553 36.0903 23.0058 36.4536 23.2737 36.7215C23.5416 36.9894 23.9049 37.1399 24.2838 37.1399C24.6626 37.1399 25.026 36.9894 25.2938 36.7215C25.5617 36.4536 25.7122 36.0903 25.7122 35.7114V33.3307H26.1884C27.577 33.3291 28.9083 32.7768 29.8903 31.7949C30.8722 30.813 31.4245 29.4817 31.4261 28.093Z" fill="black"/>
<path d="M47.1123 32.5807C48.0796 29.9217 48.5722 27.1133 48.5675 24.2838C48.5675 10.8937 37.6739 0 24.2838 0C10.8937 0 0 10.8937 0 24.2838C0 37.6739 10.8937 48.5675 24.2838 48.5675C24.5678 48.5675 24.8521 48.5611 25.1358 48.5514C25.6832 50.9283 26.811 53.1326 28.4185 54.9672C30.026 56.8017 32.0631 58.2093 34.3476 59.064C36.6321 59.9188 39.0929 60.1941 41.5098 59.8653C43.9267 59.5365 46.2245 58.6139 48.1977 57.18C50.1708 55.746 51.7579 53.8455 52.817 51.6482C53.876 49.4509 54.3741 47.0254 54.2666 44.5886C54.159 42.1518 53.4493 39.7796 52.2009 37.6842C50.9524 35.5887 49.2041 33.8353 47.1123 32.5807ZM24.2838 45.7106C12.469 45.7106 2.85691 36.0985 2.85691 24.2838C2.85691 12.469 12.469 2.85691 24.2838 2.85691C36.0985 2.85691 45.7106 12.469 45.7106 24.2838C45.7143 26.688 45.3113 29.0756 44.5187 31.3455C43.6169 31.0199 42.6853 30.7836 41.7374 30.6402C42.4809 28.6036 42.8588 26.4518 42.8537 24.2838C42.8537 14.0442 34.5233 5.71383 24.2838 5.71383C14.0442 5.71383 5.71383 14.0442 5.71383 24.2838C5.71383 34.5233 14.0442 42.8537 24.2838 42.8537C24.5076 42.8537 24.7313 42.8498 24.9549 42.8418C24.8252 43.6328 24.76 44.433 24.7599 45.2345C24.7599 45.392 24.7633 45.5489 24.7683 45.7052C24.6068 45.7088 24.4453 45.7106 24.2838 45.7106ZM25.7479 39.927C25.2639 39.9717 24.7747 39.9968 24.2838 39.9968C15.6196 39.9968 8.57074 32.948 8.57074 24.2838C8.57074 15.6196 15.6196 8.57074 24.2838 8.57074C32.948 8.57074 39.9968 15.6196 39.9968 24.2838C40.0027 26.4201 39.5683 28.5347 38.7207 30.4957C35.8804 30.6537 33.1459 31.6275 30.8449 33.3003C28.544 34.9731 26.7743 37.2739 25.7479 39.927ZM39.5207 57.1383C37.1663 57.1383 34.8648 56.4401 32.9072 55.1321C30.9497 53.8241 29.4239 51.965 28.523 49.7899C27.622 47.6147 27.3863 45.2213 27.8456 42.9122C28.3049 40.6031 29.4386 38.482 31.1034 36.8172C32.7682 35.1524 34.8892 34.0187 37.1983 33.5594C39.5074 33.1001 41.9009 33.3358 44.076 34.2368C46.2512 35.1378 48.1103 36.6635 49.4183 38.6211C50.7263 40.5786 51.4245 42.8801 51.4245 45.2345C51.4209 48.3905 50.1656 51.4162 47.934 53.6478C45.7024 55.8794 42.6766 57.1347 39.5207 57.1383Z" fill="black"/>
<path d="M43.3299 49.5198H36.6638C36.2851 49.5194 35.922 49.3688 35.6542 49.101C35.3864 48.8332 35.2357 48.4701 35.2353 48.0914V44.2822C35.2357 43.9034 35.3864 43.5403 35.6542 43.2725C35.922 43.0047 36.2851 42.8541 36.6638 42.8537H39.8813L38.5107 44.2244C38.3762 44.3567 38.2693 44.5142 38.1961 44.688C38.1229 44.8618 38.0848 45.0483 38.084 45.2369C38.0833 45.4254 38.1198 45.6123 38.1916 45.7867C38.2635 45.961 38.3691 46.1194 38.5024 46.2528C38.6357 46.3861 38.7942 46.4917 38.9685 46.5635C39.1429 46.6353 39.3297 46.6719 39.5183 46.6711C39.7069 46.6704 39.8934 46.6323 40.0672 46.5591C40.2409 46.4858 40.3985 46.3789 40.5307 46.2445L44.34 42.4353C44.6078 42.1674 44.7583 41.8041 44.7583 41.4253C44.7583 41.0464 44.6078 40.6831 44.34 40.4152L40.5307 36.606C40.2621 36.3417 39.8999 36.1943 39.5231 36.1958C39.1463 36.1973 38.7853 36.3477 38.5189 36.6142C38.2524 36.8806 38.102 37.2416 38.1005 37.6184C38.099 37.9953 38.2464 38.3574 38.5107 38.6261L39.8813 39.9968H36.6638C35.5276 39.9981 34.4384 40.45 33.635 41.2533C32.8316 42.0567 32.3797 43.146 32.3784 44.2822V48.0914C32.3797 49.2275 32.8316 50.3168 33.635 51.1202C34.4384 51.9236 35.5276 52.3755 36.6638 52.3768H43.3299C43.7088 52.3768 44.0721 52.2263 44.34 51.9584C44.6079 51.6905 44.7584 51.3271 44.7584 50.9483C44.7584 50.5694 44.6079 50.2061 44.34 49.9382C44.0721 49.6703 43.7088 49.5198 43.3299 49.5198Z" fill="black"/>
</svg>
