<svg width="17" height="14" viewBox="0 0 17 14" fill="none" xmlns="http://www.w3.org/2000/svg">
<path d="M16.42 11H5.92V10.5C5.92 10.25 5.67 10 5.42 10H4.42C4.13875 10 3.92 10.25 3.92 10.5V11H1.42C1.13875 11 0.92 11.25 0.92 11.5V12.5C0.92 12.7812 1.13875 13 1.42 13H3.92V13.5C3.92 13.7812 4.13875 14 4.42 14H5.42C5.67 14 5.92 13.7812 5.92 13.5V13H16.42C16.67 13 16.92 12.7812 16.92 12.5V11.5C16.92 11.25 16.67 11 16.42 11ZM16.42 6H13.92V5.5C13.92 5.25 13.67 5 13.42 5H12.42C12.1388 5 11.92 5.25 11.92 5.5V6H1.42C1.13875 6 0.92 6.25 0.92 6.5V7.5C0.92 7.78125 1.13875 8 1.42 8H11.92V8.5C11.92 8.78125 12.1388 9 12.42 9H13.42C13.67 9 13.92 8.78125 13.92 8.5V8H16.42C16.67 8 16.92 7.78125 16.92 7.5V6.5C16.92 6.25 16.67 6 16.42 6ZM16.42 1H9.92V0.5C9.92 0.25 9.67 0 9.42 0H8.42C8.13875 0 7.92 0.25 7.92 0.5V1H1.42C1.13875 1 0.92 1.25 0.92 1.5V2.5C0.92 2.78125 1.13875 3 1.42 3H7.92V3.5C7.92 3.78125 8.13875 4 8.42 4H9.42C9.67 4 9.92 3.78125 9.92 3.5V3H16.42C16.67 3 16.92 2.78125 16.92 2.5V1.5C16.92 1.25 16.67 1 16.42 1Z" fill="white"/>
</svg>
