<svg width="13" height="16" viewBox="0 0 13 16" fill="none" xmlns="http://www.w3.org/2000/svg">
<path d="M12.7013 3.28125L9.63875 0.21875C9.4825 0.09375 9.295 0 9.1075 0H8.92V4H12.92V3.8125C12.92 3.625 12.8263 3.4375 12.7013 3.28125ZM7.92 4.25V0H1.67C1.2325 0 0.92 0.34375 0.92 0.75V15.25C0.92 15.6875 1.2325 16 1.67 16H12.17C12.5763 16 12.92 15.6875 12.92 15.25V5H8.67C8.2325 5 7.92 4.6875 7.92 4.25ZM2.92 2.25C2.92 2.125 3.01375 2 3.17 2H5.67C5.795 2 5.92 2.125 5.92 2.25V2.75C5.92 2.90625 5.795 3 5.67 3H3.17C3.01375 3 2.92 2.90625 2.92 2.75V2.25ZM2.92 4.75V4.25C2.92 4.125 3.01375 4 3.17 4H5.67C5.795 4 5.92 4.125 5.92 4.25V4.75C5.92 4.90625 5.795 5 5.67 5H3.17C3.01375 5 2.92 4.90625 2.92 4.75ZM7.42 13V13.75C7.42 13.9062 7.295 14 7.17 14H6.67C6.51375 14 6.42 13.9062 6.42 13.75V13C6.045 13 5.70125 12.875 5.42 12.6562C5.295 12.5625 5.295 12.375 5.42 12.2812L5.76375 11.9375C5.8575 11.8438 5.9825 11.8438 6.07625 11.9062C6.20125 11.9688 6.3575 12 6.4825 12H7.3575C7.57625 12 7.7325 11.8438 7.7325 11.5938C7.7325 11.4062 7.63875 11.25 7.45125 11.2188L6.045 10.7812C5.4825 10.5938 5.07625 10.0625 5.07625 9.4375C5.07625 8.65625 5.67 8.03125 6.38875 8.03125V7.25C6.38875 7.125 6.51375 7 6.63875 7H7.13875C7.295 7 7.38875 7.125 7.38875 7.25V8.03125C7.76375 8.03125 8.1075 8.15625 8.38875 8.375C8.51375 8.46875 8.51375 8.65625 8.38875 8.75L8.045 9.09375C7.95125 9.1875 7.82625 9.1875 7.7325 9.125C7.6075 9.0625 7.45125 9 7.32625 9H6.45125C6.2325 9 6.07625 9.1875 6.07625 9.4375C6.07625 9.625 6.17 9.78125 6.3575 9.8125L7.76375 10.25C8.32625 10.4062 8.7325 10.9688 8.7325 11.5938C8.7325 12.375 8.13875 13 7.42 13Z" fill="white"/>
</svg>
