<svg width="65" height="60" viewBox="0 0 65 60" fill="none" xmlns="http://www.w3.org/2000/svg">
<path d="M34.0678 31.5254C37.1853 31.5254 40.2329 30.601 42.8251 28.8689C45.4172 27.1369 47.4376 24.6751 48.6306 21.7948C49.8236 18.9146 50.1358 15.7452 49.5276 12.6876C48.9194 9.6299 47.4181 6.82125 45.2137 4.6168C43.0092 2.41234 40.2006 0.911091 37.1429 0.302883C34.0852 -0.305324 30.9159 0.00682972 28.0356 1.19987C25.1554 2.39291 22.6936 4.41326 20.9615 7.00542C19.2295 9.59759 18.3051 12.6451 18.3051 15.7627C18.3098 19.9418 19.972 23.9484 22.927 26.9034C25.8821 29.8585 29.8887 31.5207 34.0678 31.5254ZM34.0678 3.05085C36.5819 3.05085 39.0396 3.79639 41.1301 5.19319C43.2206 6.58999 44.8499 8.57531 45.812 10.8981C46.7741 13.2209 47.0259 15.7768 46.5354 18.2427C46.0449 20.7085 44.8342 22.9736 43.0564 24.7514C41.2786 26.5291 39.0136 27.7398 36.5477 28.2303C34.0819 28.7208 31.5259 28.4691 29.2031 27.5069C26.8804 26.5448 24.895 24.9155 23.4982 22.825C22.1014 20.7346 21.3559 18.2769 21.3559 15.7627C21.3597 12.3925 22.7002 9.16138 25.0833 6.77827C27.4664 4.39516 30.6975 3.05466 34.0678 3.05085Z" fill="black"/>
<path d="M35.0848 20.339H32.0339C31.8991 20.339 31.7697 20.2854 31.6744 20.1901C31.579 20.0947 31.5255 19.9654 31.5255 19.8305C31.5255 19.426 31.3647 19.038 31.0787 18.7519C30.7926 18.4658 30.4046 18.3051 30 18.3051C29.5955 18.3051 29.2075 18.4658 28.9214 18.7519C28.6353 19.038 28.4746 19.426 28.4746 19.8305C28.4757 20.7742 28.851 21.6789 29.5183 22.3462C30.1856 23.0134 31.0903 23.3888 32.0339 23.3898H32.5424V25.9322C32.5424 26.3368 32.7031 26.7248 32.9892 27.0108C33.2753 27.2969 33.6633 27.4576 34.0678 27.4576C34.4724 27.4576 34.8604 27.2969 35.1465 27.0108C35.4325 26.7248 35.5933 26.3368 35.5933 25.9322V23.3609C36.7545 23.2295 37.8215 22.659 38.5755 21.7661C39.3294 20.8732 39.7133 19.7257 39.6482 18.5589C39.5832 17.3921 39.0743 16.2944 38.2257 15.4908C37.3772 14.6873 36.2534 14.2388 35.0848 14.2373H33.0509C32.6463 14.2373 32.2583 14.0766 31.9722 13.7905C31.6862 13.5044 31.5255 13.1164 31.5255 12.7119C31.5255 12.3073 31.6862 11.9193 31.9722 11.6332C32.2583 11.3472 32.6463 11.1865 33.0509 11.1865H36.1017C36.2366 11.1865 36.3659 11.24 36.4613 11.3354C36.5566 11.4307 36.6102 11.5601 36.6102 11.6949C36.6102 12.0995 36.7709 12.4875 37.057 12.7736C37.3431 13.0596 37.7311 13.2204 38.1356 13.2204C38.5402 13.2204 38.9282 13.0596 39.2143 12.7736C39.5003 12.4875 39.661 12.0995 39.661 11.6949C39.66 10.7513 39.2846 9.84657 38.6174 9.1793C37.9501 8.51203 37.0454 8.13668 36.1017 8.13561H35.5933V5.59323C35.5933 5.18867 35.4325 4.80067 35.1465 4.5146C34.8604 4.22852 34.4724 4.06781 34.0678 4.06781C33.6633 4.06781 33.2753 4.22852 32.9892 4.5146C32.7031 4.80067 32.5424 5.18867 32.5424 5.59323V8.16459C31.3812 8.2959 30.3142 8.86648 29.5602 9.75935C28.8062 10.6522 28.4224 11.7997 28.4874 12.9665C28.5524 14.1333 29.0614 15.2311 29.9099 16.0346C30.7585 16.8382 31.8822 17.2867 33.0509 17.2881H35.0848C35.4893 17.2881 35.8773 17.4489 36.1634 17.7349C36.4495 18.021 36.6102 18.409 36.6102 18.8136C36.6102 19.2181 36.4495 19.6061 36.1634 19.8922C35.8773 20.1783 35.4893 20.339 35.0848 20.339Z" fill="black"/>
<path d="M53.055 40.839C52.5381 40.5805 47.9249 38.3924 45.1926 41.1248C45.0989 41.2184 45.0055 41.3163 44.9129 41.4172C42.4646 40.7654 40.4223 41.1204 39.0909 42.4512C37.4672 44.0747 35.9141 46.7488 35.1513 48.1603L32.3547 48.7196L24.8686 43.7288H30C33.0671 43.7288 35.4478 42.3459 36.7033 39.8348C37.2755 38.6711 37.5906 37.3979 37.6271 36.1017C37.6271 35.6971 37.4664 35.3092 37.1803 35.0231C36.8943 34.737 36.5063 34.5763 36.1017 34.5763H1.52542C1.12086 34.5763 0.732859 34.737 0.446786 35.0231C0.160714 35.3092 0 35.6971 0 36.1017C0 36.5063 0.160714 36.8943 0.446786 37.1804C0.732859 37.4664 1.12086 37.6271 1.52542 37.6271H34.3093C34.2133 37.9449 34.0882 38.2531 33.9356 38.5479C33.1857 39.9813 31.8985 40.678 30 40.678H19.8305C18.3658 40.6306 17.7399 42.7002 18.9844 43.4726L31.1878 51.6082C31.3545 51.7193 31.5414 51.7965 31.7379 51.8354C31.9344 51.8743 32.1367 51.8741 32.3331 51.8348L42.5026 49.8009C42.7303 49.7553 42.9446 49.6583 43.1292 49.5173C43.3137 49.3763 43.4636 49.1951 43.5675 48.9874C43.5843 48.9539 45.0344 46.0747 46.6125 44.1134C46.6191 44.105 46.6261 44.0968 46.6326 44.0879C46.8575 43.8068 47.0968 43.5375 47.3498 43.2812C47.9607 42.6704 49.187 42.7648 50.2474 43.0423L45.2205 53.0975L29.979 56.9077L12.0254 52.9177C11.9169 52.8936 11.8061 52.8814 11.6949 52.8814H1.52542C1.12086 52.8814 0.732859 53.0421 0.446786 53.3282C0.160714 53.6142 0 54.0022 0 54.4068C0 54.8114 0.160714 55.1994 0.446786 55.4854C0.732859 55.7715 1.12086 55.9322 1.52542 55.9322H11.5275L29.6695 59.9637C29.9007 60.0151 30.1407 60.0119 30.3704 59.9545L46.6416 55.8867C46.8551 55.8334 47.0545 55.7344 47.2262 55.5967C47.3978 55.4591 47.5376 55.2859 47.636 55.089L53.7377 42.8857C53.9162 42.5233 53.9446 42.1052 53.8168 41.7221C53.689 41.3389 53.4153 41.0216 53.055 40.839ZM41.1891 46.9523L39.1576 47.3591C39.8385 46.2928 40.5754 45.2812 41.2481 44.6085C41.6294 44.2271 42.2269 44.1279 42.8382 44.1567C42.1271 45.2511 41.5394 46.2994 41.1891 46.9523Z" fill="black"/>
<path d="M63.621 22.8197C63.3349 22.5336 62.9469 22.3729 62.5424 22.3729C62.1378 22.3729 61.7498 22.5336 61.4638 22.8197L60 24.2833V17.7966C60 17.392 59.8393 17.004 59.5532 16.718C59.2671 16.4319 58.8791 16.2712 58.4746 16.2712C58.07 16.2712 57.682 16.4319 57.3959 16.718C57.1099 17.004 56.9491 17.392 56.9491 17.7966V24.2833L55.4854 22.8197C55.1985 22.5375 54.8118 22.38 54.4093 22.3817C54.0069 22.3833 53.6215 22.5439 53.3369 22.8284C53.0524 23.113 52.8918 23.4985 52.8901 23.9009C52.8885 24.3033 53.046 24.69 53.3282 24.9769L57.396 29.0447C57.682 29.3307 58.07 29.4914 58.4746 29.4914C58.8791 29.4914 59.2671 29.3307 59.5532 29.0447L63.621 24.9769C63.907 24.6908 64.0677 24.3028 64.0677 23.8983C64.0677 23.4937 63.907 23.1058 63.621 22.8197Z" fill="black"/>
<path d="M58.4745 13.2204C58.8791 13.2204 59.2671 13.0597 59.5532 12.7736C59.8392 12.4875 59.9999 12.0995 59.9999 11.6949V9.66104C59.9999 9.25648 59.8392 8.86848 59.5532 8.58241C59.2671 8.29633 58.8791 8.13562 58.4745 8.13562C58.07 8.13562 57.682 8.29633 57.3959 8.58241C57.1098 8.86848 56.9491 9.25648 56.9491 9.66104V11.6949C56.9491 12.0995 57.1098 12.4875 57.3959 12.7736C57.682 13.0597 58.07 13.2204 58.4745 13.2204Z" fill="black"/>
<path d="M8.58237 29.0447C8.86844 29.3307 9.25642 29.4914 9.66097 29.4914C10.0655 29.4914 10.4535 29.3307 10.7396 29.0447L14.8074 24.9769C15.0896 24.69 15.247 24.3033 15.2454 23.9009C15.2438 23.4985 15.0832 23.113 14.7986 22.8284C14.5141 22.5439 14.1286 22.3833 13.7262 22.3817C13.3238 22.38 12.937 22.5375 12.6502 22.8197L11.1864 24.2833V17.7966C11.1864 17.392 11.0257 17.004 10.7396 16.718C10.4535 16.4319 10.0655 16.2712 9.66097 16.2712C9.25641 16.2712 8.86841 16.4319 8.58234 16.718C8.29626 17.004 8.13555 17.392 8.13555 17.7966V24.2833L6.67178 22.8197C6.38492 22.5375 5.99816 22.38 5.59575 22.3817C5.19334 22.3833 4.80787 22.5439 4.52332 22.8284C4.23877 23.113 4.07819 23.4985 4.07655 23.9009C4.07491 24.3033 4.23235 24.69 4.51458 24.9769L8.58237 29.0447Z" fill="black"/>
<path d="M9.66104 13.2204C10.0656 13.2204 10.4536 13.0597 10.7397 12.7736C11.0258 12.4875 11.1865 12.0995 11.1865 11.6949V9.66104C11.1865 9.25648 11.0258 8.86848 10.7397 8.58241C10.4536 8.29633 10.0656 8.13562 9.66104 8.13562C9.25648 8.13562 8.86848 8.29633 8.58241 8.58241C8.29633 8.86848 8.13562 9.25648 8.13562 9.66104V11.6949C8.13562 12.0995 8.29633 12.4875 8.58241 12.7736C8.86848 13.0597 9.25648 13.2204 9.66104 13.2204Z" fill="black"/>
</svg>
