<svg width="17" height="17" viewBox="0 0 17 17" fill="none" xmlns="http://www.w3.org/2000/svg">
<path d="M3.4375 7.625L0.3125 4.5C0.125 4.3125 0.03125 4.08333 0.03125 3.8125C0.03125 3.52083 0.125 3.28125 0.3125 3.09375L3.125 0.28125C3.3125 0.09375 3.54167 0 3.8125 0C4.10417 0 4.34375 0.09375 4.53125 0.28125L5.59375 1.34375L3.65625 3.28125C3.53125 3.38542 3.53125 3.5 3.65625 3.625L4 3.96875C4.04167 4.01042 4.09375 4.03125 4.15625 4.03125C4.23958 4.03125 4.30208 4.01042 4.34375 3.96875L6.28125 2.03125L7.65625 3.40625L3.4375 7.625ZM15.5938 3.96875L14.1562 5.40625L10.625 1.875L12.0625 0.4375C12.3542 0.145833 12.7083 0 13.125 0C13.5417 0 13.8958 0.145833 14.1875 0.4375L15.5938 1.84375C15.8854 2.13542 16.0312 2.48958 16.0312 2.90625C16.0312 3.32292 15.8854 3.67708 15.5938 3.96875ZM9.90625 2.59375L13.4375 6.125L4.15625 15.4062L0.8125 16C0.583333 16.0417 0.385417 15.9792 0.21875 15.8125C0.0520833 15.6458 -0.0104167 15.4479 0.03125 15.2188L0.625 11.875L9.90625 2.59375ZM15.75 11.5C15.9375 11.6875 16.0312 11.9271 16.0312 12.2188C16.0312 12.4896 15.9375 12.7188 15.75 12.9062L12.9375 15.7188C12.75 15.9062 12.5104 16 12.2188 16C11.9479 16 11.7188 15.9062 11.5312 15.7188L8.40625 12.5625L12.625 8.375L14 9.75L12.0625 11.6875C11.9375 11.7917 11.9375 11.9062 12.0625 12.0312L12.4062 12.375C12.5312 12.5 12.6458 12.5 12.75 12.375L14.6875 10.4375L15.75 11.5Z" fill="white"/>
</svg>
