<svg width="67" height="54" viewBox="0 0 67 54" fill="none" xmlns="http://www.w3.org/2000/svg">
<style>
  :root {
    --color-primary: var(--color-primary-lighten);
    --color-secondary: var(--color-primary);
    --color-tertiary: var(--color-primary-darker);
    --color-text: white;
  }
</style>

<path d="M60.1782 15.5076C61.7845 17.0643 63.1411 18.8606 64.1998 20.8329C64.0783 16.2529 62.6086 12.065 59.0826 9.50774C55.0634 6.59608 51.2216 4.79989 47.5583 3.82568L47.6701 3.89144C53.6593 7.49844 57.7477 11.6035 60.1782 15.5076Z" fill="var(--color-primary)"/>
<path d="M62.8419 22.3818C63.5087 27.2528 62.5139 31.8803 60.7698 35.6262C62.882 31.3019 64.3383 25.8342 64.1986 20.8328C63.1399 18.8605 61.7833 17.0642 60.177 15.5076C61.6832 17.9273 62.554 20.2727 62.8419 22.3818Z" fill="var(--color-secondary)"/>
<path d="M47.5584 3.8293C36.7422 -2.62482 26.6864 -0.200259 26.39 5.76798C28.3844 5.08238 30.5416 4.44062 32.8761 3.85731C37.3969 2.72723 42.293 2.42888 47.5584 3.8293Z" fill="var(--color-primary)"/>
<path d="M66.2234 26.1449C65.7795 24.2944 65.0994 22.509 64.1999 20.833C64.3396 25.8343 62.8832 31.3057 60.771 35.6263C60.0055 37.2867 59.0395 38.8465 57.8948 40.2709L57.8219 40.361L57.6555 40.5619C57.5583 40.6837 57.4612 40.7908 57.3628 40.9004C57.2644 41.0113 57.166 41.1184 57.0676 41.2231L57.0178 41.278L56.9838 41.312C56.9583 41.3388 56.9328 41.3644 56.9085 41.3912C55.4927 42.8678 53.8986 44.1613 52.163 45.2417C45.6879 49.4211 39.0731 51.8944 33.0012 53.0902C35.2841 53.5136 37.5904 53.7983 39.9075 53.9426C57.1114 54.9132 70.409 43.5089 66.2234 26.1449Z" fill="var(--color-primary)"/>
<path d="M15.8945 10.8023C24.5329 10.9374 26.2722 8.26447 26.3888 5.78146C26.3888 5.78146 26.3888 5.77294 26.3888 5.76807C22.038 7.26591 18.4634 8.98294 15.5301 10.8023H15.8945Z" fill="var(--color-primary)"/>
<path d="M6.38042 38.2322C6.00875 37.8766 5.64437 37.5145 5.28727 37.1459C3.96246 35.7827 2.82525 34.2482 1.90578 32.583C1.65071 41.3436 5.88001 49.153 13.5661 52.2267C18.1221 54.046 25.0965 54.6488 32.989 53.0937C22.6526 51.2196 10.0996 46.4033 6.38042 38.2322Z" fill="var(--color-primary)"/>
<path d="M52.1618 45.2428C48.3564 47.6211 44.1453 48.879 40.2695 49.4636C28.7391 51.2013 15.0893 46.5726 6.38166 38.2322C10.1008 46.4033 22.6575 51.2196 32.9963 53.0888C39.0694 51.893 45.683 49.4197 52.1581 45.2404L52.1618 45.2428Z" fill="var(--color-secondary)"/>
<path d="M15.5314 10.8022C4.74798 10.8753 -4.00819 21.6659 1.91064 32.5831C1.98072 30.3473 2.3242 28.1286 2.93335 25.9767C4.10424 21.8193 7.29746 15.9059 15.5314 10.8022Z" fill="var(--color-primary)"/>
<path d="M6.38041 38.2322C5.22652 35.6968 4.92286 32.8375 5.79982 29.6433C8.61165 19.4142 17.5634 9.27268 37.3799 8.29239C47.7333 7.78093 55.3027 10.773 60.1794 15.5076C57.7502 11.5998 53.6606 7.49841 47.6689 3.89506L47.5571 3.8293C42.2918 2.42888 37.3957 2.73332 32.8749 3.85731C30.5404 4.44062 28.3808 5.08238 26.3888 5.76798C26.3888 5.76798 26.3888 5.77772 26.3888 5.78137C26.2673 8.26438 24.5329 10.9374 15.8945 10.8022H15.5301C7.29622 15.9058 4.103 21.8192 2.93211 25.9767C2.32295 28.1286 1.97948 30.3472 1.90939 32.583C2.82886 34.2482 3.96609 35.7827 5.2909 37.1459C5.64476 37.5153 6.00792 37.8774 6.38041 38.2322Z" fill="var(--color-secondary)"/>
<path d="M63.0272 22.3375C62.7368 20.222 61.8621 17.8695 60.3504 15.4425C55.4521 10.6936 47.8489 7.69255 37.4495 8.20556C17.5461 9.18881 8.55454 19.3621 5.72897 29.621C4.8469 32.8248 5.15313 35.6927 6.31214 38.2357C15.0597 46.6013 28.7703 51.244 40.3507 49.501C44.2462 48.9147 48.4736 47.653 52.2959 45.2675C53.4988 44.4907 54.6493 43.3816 55.8339 42.49C56.2675 42.1599 56.6753 41.7973 57.054 41.4053C57.0784 41.3785 57.104 41.3528 57.1296 41.3259C57.1552 41.2991 57.1857 41.2661 57.2138 41.2368C57.3126 41.1305 57.4126 41.0242 57.5102 40.9131C57.6091 40.8019 57.7067 40.6884 57.8043 40.5736C57.8604 40.5064 57.9165 40.4404 57.9714 40.372L58.0446 40.2816C59.1745 38.839 60.1433 37.2768 60.9336 35.6231C62.699 31.8647 63.6982 27.2208 63.0272 22.3375Z" fill="var(--color-tertiary)"/>
<path d="M14.1509 31.1759C14.4918 31.1759 14.7319 31.1201 14.8711 31.0085C15.0103 30.897 15.0799 30.7715 15.0799 30.632C15.0799 30.4925 15.0242 30.3845 14.9129 30.3078C14.8015 30.2241 14.6449 30.1474 14.4431 30.0776L14.0047 29.9312C13.6011 29.7918 13.2427 29.6453 12.9296 29.4919C12.6234 29.3315 12.3833 29.1258 12.2093 28.8748C12.0353 28.6238 11.9483 28.2961 11.9483 27.8916C11.9483 27.2989 12.1745 26.8248 12.6268 26.4691C13.0861 26.1135 13.7264 25.9357 14.5475 25.9357C14.9511 25.9357 15.3095 25.9741 15.6227 26.0508C15.9358 26.1275 16.1829 26.246 16.3638 26.4064C16.5447 26.5598 16.6352 26.7585 16.6352 27.0026C16.6352 27.1769 16.5934 27.3303 16.5099 27.4628C16.4264 27.5953 16.3255 27.7068 16.2072 27.7975C16.0541 27.6999 15.8488 27.6162 15.5914 27.5465C15.3339 27.4698 15.052 27.4314 14.7458 27.4314C14.4327 27.4314 14.203 27.4767 14.0569 27.5674C13.9108 27.6511 13.8377 27.7591 13.8377 27.8916C13.8377 27.9962 13.8829 28.0834 13.9734 28.1531C14.0708 28.2159 14.2065 28.2751 14.3805 28.3309L14.9337 28.5087C15.5948 28.7179 16.0994 28.9899 16.4473 29.3246C16.7952 29.6523 16.9692 30.0951 16.9692 30.6529C16.9692 31.2456 16.7326 31.7302 16.2594 32.1068C15.7932 32.4764 15.1112 32.6611 14.2135 32.6611C13.789 32.6611 13.4062 32.6158 13.0653 32.5252C12.7243 32.4345 12.4529 32.2985 12.2511 32.1172C12.0493 31.9359 11.9483 31.7163 11.9483 31.4583C11.9483 31.2561 12.0075 31.0852 12.1258 30.9458C12.2441 30.7994 12.3728 30.6878 12.512 30.6111C12.7069 30.7645 12.9435 30.897 13.2218 31.0085C13.5072 31.1201 13.8168 31.1759 14.1509 31.1759Z" fill="var(--color-text)"/>
<path d="M14.1509 31.1759C14.4918 31.1759 14.7319 31.1201 14.8711 31.0085C15.0103 30.897 15.0799 30.7715 15.0799 30.632C15.0799 30.4925 15.0242 30.3845 14.9129 30.3078C14.8015 30.2241 14.6449 30.1474 14.4431 30.0776L14.0047 29.9312C13.6011 29.7918 13.2427 29.6453 12.9296 29.4919C12.6234 29.3315 12.3833 29.1258 12.2093 28.8748C12.0353 28.6238 11.9483 28.2961 11.9483 27.8916C11.9483 27.2989 12.1745 26.8248 12.6268 26.4691C13.0861 26.1135 13.7264 25.9357 14.5475 25.9357C14.9511 25.9357 15.3095 25.9741 15.6227 26.0508C15.9358 26.1275 16.1829 26.246 16.3638 26.4064C16.5447 26.5598 16.6352 26.7585 16.6352 27.0026C16.6352 27.1769 16.5934 27.3303 16.5099 27.4628C16.4264 27.5953 16.3255 27.7068 16.2072 27.7975C16.0541 27.6999 15.8488 27.6162 15.5914 27.5465C15.3339 27.4698 15.052 27.4314 14.7458 27.4314C14.4327 27.4314 14.203 27.4767 14.0569 27.5674C13.9108 27.6511 13.8377 27.7591 13.8377 27.8916C13.8377 27.9962 13.8829 28.0834 13.9734 28.1531C14.0708 28.2159 14.2065 28.2751 14.3805 28.3309L14.9337 28.5087C15.5948 28.7179 16.0994 28.9899 16.4473 29.3246C16.7952 29.6523 16.9692 30.0951 16.9692 30.6529C16.9692 31.2456 16.7326 31.7302 16.2594 32.1068C15.7932 32.4764 15.1112 32.6611 14.2135 32.6611C13.789 32.6611 13.4062 32.6158 13.0653 32.5252C12.7243 32.4345 12.4529 32.2985 12.2511 32.1172C12.0493 31.9359 11.9483 31.7163 11.9483 31.4583C11.9483 31.2561 12.0075 31.0852 12.1258 30.9458C12.2441 30.7994 12.3728 30.6878 12.512 30.6111C12.7069 30.7645 12.9435 30.897 13.2218 31.0085C13.5072 31.1201 13.8168 31.1759 14.1509 31.1759Z" fill="white"/>
<path d="M17.4367 27.8498H19.2634V32.4624C19.1868 32.4833 19.0685 32.5042 18.9085 32.5252C18.7484 32.5461 18.5849 32.5565 18.4179 32.5565C18.056 32.5565 17.802 32.4938 17.6559 32.3683C17.5097 32.2358 17.4367 32.0092 17.4367 31.6884V27.8498ZM19.2634 30.2659H17.4367V26.1135C17.5202 26.0996 17.642 26.0821 17.802 26.0612C17.969 26.0333 18.1291 26.0194 18.2822 26.0194C18.6301 26.0194 18.8806 26.0786 19.0337 26.1972C19.1868 26.3157 19.2634 26.5458 19.2634 26.8875V30.2659Z" fill="white"/>
<path d="M25.8259 29.3036V31.4583C25.8259 31.6745 25.7876 31.8348 25.7111 31.9394C25.6345 32.044 25.5127 32.1451 25.3457 32.2428C25.1509 32.3543 24.8656 32.4519 24.4898 32.5356C24.1209 32.6193 23.7521 32.6611 23.3833 32.6611C22.7152 32.6611 22.1063 32.5461 21.5566 32.316C21.0138 32.0859 20.5823 31.7233 20.2622 31.2282C19.9421 30.7331 19.782 30.0951 19.782 29.3141C19.782 28.5819 19.9421 27.9648 20.2622 27.4628C20.5893 26.9607 21.0242 26.5807 21.567 26.3227C22.1168 26.0647 22.7292 25.9357 23.4042 25.9357C23.8426 25.9357 24.2218 25.9845 24.542 26.0821C24.869 26.1728 25.1196 26.3053 25.2935 26.4796C25.4675 26.6469 25.5545 26.8457 25.5545 27.0758C25.5545 27.2501 25.5093 27.407 25.4188 27.5465C25.3283 27.6789 25.2239 27.7835 25.1056 27.8602C24.9317 27.7556 24.7125 27.6545 24.448 27.5569C24.1836 27.4593 23.8809 27.4105 23.5399 27.4105C23.171 27.4105 22.844 27.4907 22.5587 27.6511C22.2733 27.8045 22.0507 28.0241 21.8906 28.31C21.7375 28.5889 21.661 28.9201 21.661 29.3036C21.661 29.722 21.734 30.0742 21.8802 30.3601C22.0333 30.639 22.242 30.8482 22.5065 30.9876C22.7709 31.1271 23.0736 31.1968 23.4146 31.1968C23.5677 31.1968 23.6999 31.1829 23.8113 31.155C23.9296 31.1201 24.02 31.0887 24.0827 31.0608V30.0567H22.9658C22.924 29.98 22.8823 29.8789 22.8405 29.7534C22.8057 29.6279 22.7883 29.4954 22.7883 29.3559C22.7883 29.1049 22.844 28.9236 22.9553 28.8121C23.0736 28.7005 23.2232 28.6447 23.4042 28.6447H25.1683C25.377 28.6447 25.5371 28.704 25.6484 28.8225C25.7667 28.9341 25.8259 29.0945 25.8259 29.3036Z" fill="white"/>
<path d="M30.4158 27.6065H32.1904V32.1669C32.1138 32.1878 32.0025 32.2087 31.8563 32.2296C31.7102 32.2505 31.5536 32.261 31.3866 32.261C31.0874 32.261 30.8508 32.1738 30.6768 31.9995C30.5028 31.8252 30.4158 31.5881 30.4158 31.2883V27.6065ZM32.1904 30.5456H30.4158V26.8639C30.4158 26.5641 30.5028 26.327 30.6768 26.1527C30.8508 25.9784 31.0874 25.8912 31.3866 25.8912C31.5536 25.8912 31.7102 25.9016 31.8563 25.9226C32.0025 25.9435 32.1138 25.9644 32.1904 25.9853V30.5456ZM31.3866 29.7194V28.2969H34.539C34.5877 28.3736 34.6295 28.4712 34.6643 28.5897C34.706 28.7083 34.7269 28.8408 34.7269 28.9872C34.7269 29.2452 34.6712 29.4335 34.5599 29.552C34.4485 29.6636 34.2954 29.7194 34.1006 29.7194H31.3866ZM31.3866 32.261V30.8176H34.873C34.9217 30.8943 34.9635 30.9954 34.9983 31.1209C35.04 31.2464 35.0609 31.3824 35.0609 31.5288C35.0609 31.7868 35.0053 31.9751 34.8939 32.0936C34.7826 32.2052 34.6295 32.261 34.4346 32.261H31.3866ZM31.3866 27.3241V25.8912H34.8313C34.88 25.9679 34.9217 26.0655 34.9565 26.1841C34.9983 26.3026 35.0192 26.4351 35.0192 26.5815C35.0192 26.8395 34.9635 27.0278 34.8522 27.1463C34.7408 27.2649 34.5877 27.3241 34.3929 27.3241H31.3866Z" fill="white"/>
<path d="M39.7567 30.713C39.7567 31.2429 39.5548 31.6578 39.1512 31.9577C38.7546 32.2575 38.1735 32.4074 37.408 32.4074C36.8165 32.4074 36.3294 32.3238 35.9466 32.1564C35.5709 31.9821 35.383 31.7136 35.383 31.351C35.383 31.1837 35.4178 31.0407 35.4873 30.9222C35.5569 30.8036 35.6404 30.7095 35.7379 30.6398C35.9397 30.7514 36.1693 30.8525 36.4268 30.9431C36.6912 31.0268 36.994 31.0686 37.3349 31.0686C37.7803 31.0686 38.003 30.9536 38.003 30.7235C38.003 30.6258 37.9612 30.5491 37.8777 30.4934C37.7942 30.4376 37.6551 30.3922 37.4602 30.3574L37.1471 30.2946C36.5486 30.1761 36.0997 29.9878 35.8005 29.7298C35.5013 29.4718 35.3516 29.1092 35.3516 28.642C35.3516 28.1191 35.5639 27.7111 35.9884 27.4183C36.4129 27.1254 36.9661 26.979 37.6481 26.979C37.9891 26.979 38.2988 27.0138 38.5771 27.0836C38.8624 27.1463 39.0886 27.2509 39.2556 27.3974C39.4226 27.5368 39.5061 27.7181 39.5061 27.9412C39.5061 28.0946 39.4748 28.2306 39.4122 28.3492C39.3565 28.4677 39.2834 28.5653 39.193 28.642C39.1164 28.5932 38.9946 28.5444 38.8276 28.4956C38.6676 28.4468 38.4936 28.4049 38.3057 28.3701C38.1178 28.3352 37.9508 28.3178 37.8047 28.3178C37.575 28.3178 37.3976 28.3457 37.2723 28.4015C37.1471 28.4503 37.0844 28.5305 37.0844 28.642C37.0844 28.7187 37.1192 28.7815 37.1888 28.8303C37.2584 28.8791 37.3906 28.9244 37.5855 28.9663L37.9091 29.0395C38.5771 29.1929 39.0503 29.4056 39.3287 29.6775C39.614 29.9425 39.7567 30.2876 39.7567 30.713Z" fill="white"/>
<path d="M43.0037 28.391C42.6558 28.391 42.3531 28.5026 42.0956 28.7257C41.8451 28.9488 41.7198 29.2766 41.7198 29.7089C41.7198 30.1412 41.8416 30.462 42.0852 30.6712C42.3287 30.8804 42.6314 30.9849 42.9933 30.9849C43.2021 30.9849 43.3865 30.9605 43.5465 30.9117C43.7135 30.8559 43.8527 30.8002 43.9641 30.7444C44.0963 30.842 44.1937 30.9466 44.2563 31.0582C44.3259 31.1697 44.3607 31.3057 44.3607 31.4661C44.3607 31.745 44.2215 31.9681 43.9432 32.1355C43.6718 32.3028 43.2821 32.3865 42.7741 32.3865C42.1965 32.3865 41.692 32.2854 41.2605 32.0832C40.836 31.881 40.5055 31.5811 40.2689 31.1837C40.0392 30.7792 39.9244 30.2876 39.9244 29.7089C39.9244 29.0953 40.0531 28.5897 40.3106 28.1923C40.5681 27.7878 40.9091 27.488 41.3336 27.2928C41.7581 27.0905 42.2209 26.9894 42.7219 26.9894C43.216 26.9894 43.5987 27.0801 43.8701 27.2614C44.1485 27.4427 44.2877 27.6763 44.2877 27.9622C44.2877 28.0946 44.2563 28.2202 44.1937 28.3387C44.1311 28.4503 44.058 28.5479 43.9745 28.6316C43.8562 28.5758 43.7135 28.5235 43.5465 28.4747C43.3795 28.4189 43.1986 28.391 43.0037 28.391Z" fill="white"/>
<path d="M49.8264 29.688C49.8264 30.2458 49.7116 30.7269 49.4819 31.1314C49.2592 31.5358 48.9426 31.8496 48.532 32.0727C48.1284 32.2889 47.6482 32.397 47.0915 32.397C46.5418 32.397 46.0616 32.2889 45.651 32.0727C45.2404 31.8566 44.9203 31.5463 44.6907 31.1418C44.468 30.7374 44.3566 30.2528 44.3566 29.688C44.3566 29.1371 44.4715 28.6595 44.7011 28.255C44.9308 27.8506 45.2509 27.5403 45.6614 27.3241C46.072 27.101 46.5487 26.9894 47.0915 26.9894C47.6413 26.9894 48.118 27.101 48.5216 27.3241C48.9321 27.5473 49.2523 27.8611 49.4819 28.2655C49.7116 28.6699 49.8264 29.1441 49.8264 29.688ZM47.0915 28.3805C46.8062 28.3805 46.58 28.4956 46.413 28.7257C46.253 28.9488 46.1729 29.2696 46.1729 29.688C46.1729 30.1203 46.253 30.448 46.413 30.6712C46.5731 30.8943 46.7992 31.0059 47.0915 31.0059C47.3838 31.0059 47.61 30.8943 47.77 30.6712C47.9301 30.4411 48.0101 30.1133 48.0101 29.688C48.0101 29.2766 47.9266 28.9558 47.7596 28.7257C47.5995 28.4956 47.3768 28.3805 47.0915 28.3805Z" fill="white"/>
<path d="M50.2224 29.4683H51.9969V32.2192C51.9204 32.2401 51.809 32.261 51.6629 32.2819C51.5237 32.3028 51.3706 32.3133 51.2036 32.3133C50.8626 32.3133 50.6121 32.254 50.452 32.1355C50.2989 32.0169 50.2224 31.7973 50.2224 31.4765V29.4683ZM51.9969 30.3992H50.2224V25.4101C50.2989 25.3891 50.4068 25.3682 50.546 25.3473C50.6921 25.3264 50.8487 25.3159 51.0157 25.3159C51.3636 25.3159 51.6142 25.3752 51.7673 25.4937C51.9204 25.6053 51.9969 25.8249 51.9969 26.1527V30.3992Z" fill="white"/>
<path d="M54.7858 31.1C54.9041 31.1 55.0329 31.0895 55.1721 31.0686C55.3182 31.0407 55.4261 31.0059 55.4957 30.964V30.1273L54.7441 30.19C54.5492 30.204 54.3892 30.2458 54.2639 30.3155C54.1387 30.3853 54.076 30.4899 54.076 30.6293C54.076 30.7688 54.1282 30.8838 54.2326 30.9745C54.3439 31.0582 54.5284 31.1 54.7858 31.1ZM54.7023 26.9894C55.4609 26.9894 56.0663 27.1463 56.5186 27.4601C56.9779 27.7669 57.2076 28.2481 57.2076 28.9035V31.2464C57.2076 31.4277 57.1554 31.5776 57.051 31.6962C56.9535 31.8078 56.8352 31.9054 56.6961 31.9891C56.4734 32.1215 56.202 32.2226 55.8819 32.2924C55.5618 32.3621 55.1964 32.397 54.7858 32.397C54.0552 32.397 53.4671 32.2575 53.0217 31.9786C52.5833 31.6927 52.3641 31.2639 52.3641 30.6921C52.3641 30.2109 52.5068 29.8414 52.7921 29.5834C53.0844 29.3254 53.5263 29.165 54.1178 29.1022L55.4852 28.9558V28.8826C55.4852 28.6804 55.3947 28.5374 55.2138 28.4538C55.0398 28.3631 54.7858 28.3178 54.4518 28.3178C54.1943 28.3178 53.9369 28.3457 53.6794 28.4015C53.4288 28.4572 53.2027 28.527 53.0009 28.6106C52.9104 28.5479 52.8339 28.4538 52.7712 28.3282C52.7086 28.1958 52.6773 28.0598 52.6773 27.9203C52.6773 27.5856 52.8547 27.3485 53.2096 27.2091C53.4114 27.1324 53.6481 27.0766 53.9195 27.0417C54.1978 27.0069 54.4588 26.9894 54.7023 26.9894Z" fill="white"/>
<path d="M29.5437 32.2296H26.4604C26.427 32.1631 26.3984 32.0784 26.3746 31.9755C26.3507 31.8787 26.3388 31.7698 26.3388 31.6487C26.3388 31.4249 26.3793 31.2615 26.4604 31.1586C26.5415 31.0618 26.6464 31.0134 26.7752 31.0134H29.8585C29.8871 31.0739 29.9133 31.1586 29.9372 31.2675C29.9658 31.3825 29.9801 31.5005 29.9801 31.6215C29.9801 31.8454 29.9395 32.0027 29.8585 32.0935C29.7774 32.1842 29.6725 32.2296 29.5437 32.2296Z" fill="white"/>
</svg>