<svg width="275" height="146" viewBox="0 0 275 146" fill="none" xmlns="http://www.w3.org/2000/svg">
<path d="M33.2082 86.1547L43.4523 83.4098C45.5526 82.847 47.4417 82.6778 49.1195 82.9023C50.8098 83.1234 52.2289 83.7407 53.3767 84.7542C54.5244 85.7677 55.3393 87.1737 55.8212 88.9722C56.2155 90.4438 56.3026 91.7752 56.0826 92.9665C55.8718 94.1418 55.408 95.203 54.6912 96.1499C53.9836 97.0809 53.0817 97.9157 51.9855 98.6543L50.446 100.078L41.5413 102.464L40.3207 98.0593L46.9426 96.285C47.9362 96.0188 48.7128 95.622 49.2725 95.0945C49.8321 94.5671 50.1912 93.9452 50.3497 93.2287C50.5208 92.5089 50.4951 91.7339 50.2727 90.9038C50.0368 90.0234 49.6694 89.3063 49.1705 88.7525C48.6716 88.1987 48.0434 87.8413 47.2858 87.6803C46.5282 87.5193 45.6464 87.5737 44.6402 87.8433L40.0558 89.0716L46.228 112.107L40.5683 113.623L33.2082 86.1547ZM55.925 109.508L46.3809 98.9428L52.3512 97.3026L61.9102 107.622L61.9809 107.886L55.925 109.508ZM70.3872 81.2274L69.0179 106L62.9997 107.613L65.8459 77.4095L69.6756 76.3833L70.3872 81.2274ZM82.6955 102.335L69.1044 81.5712L67.242 77.0354L71.1094 75.9991L88.7326 100.718L82.6955 102.335ZM79.6161 92.201L80.804 96.6345L66.2963 100.522L65.1083 96.0884L79.6161 92.201ZM103.654 89.0156C103.522 88.5251 103.329 88.1052 103.073 87.7557C102.827 87.3903 102.465 87.0963 101.988 86.8738C101.507 86.6387 100.871 86.452 100.079 86.3137C99.2867 86.1754 98.2839 86.0802 97.0701 86.0279C95.7172 85.9591 94.4136 85.8231 93.1594 85.62C91.9178 85.4134 90.7801 85.0915 89.7462 84.654C88.7216 84.2007 87.8444 83.5932 87.1146 82.8317C86.3974 82.0667 85.8804 81.0932 85.5636 79.9109C85.2569 78.7664 85.2305 77.6614 85.4842 76.5959C85.7345 75.5178 86.2231 74.5241 86.9501 73.6149C87.6736 72.6931 88.6028 71.8847 89.7377 71.1897C90.8851 70.4913 92.2008 69.9433 93.6849 69.5456C95.7099 69.003 97.5747 68.8943 99.2794 69.2193C100.984 69.5444 102.422 70.2309 103.592 71.2788C104.775 72.3233 105.586 73.663 106.024 75.298L100.402 76.8045C100.186 75.9995 99.8277 75.3407 99.3264 74.828C98.8342 74.2993 98.2014 73.9499 97.4279 73.7797C96.6669 73.6062 95.7771 73.6559 94.7583 73.9289C93.7773 74.1917 93.0002 74.5617 92.4271 75.0388C91.8506 75.5033 91.4663 76.0309 91.2741 76.6216C91.0785 77.1998 91.0633 77.797 91.2284 78.4132C91.3531 78.8786 91.5792 79.2696 91.9067 79.5863C92.2467 79.8995 92.6932 80.1573 93.2462 80.3597C93.7992 80.562 94.454 80.7168 95.2107 80.8241C95.9674 80.9314 96.8293 81.0037 97.7964 81.0411C99.4144 81.0929 100.865 81.2501 102.149 81.5128C103.445 81.7721 104.571 82.1511 105.527 82.6498C106.483 83.1486 107.275 83.7922 107.905 84.5807C108.534 85.3692 109 86.3295 109.303 87.4614C109.623 88.6562 109.677 89.7876 109.465 90.8556C109.252 91.9236 108.793 92.9025 108.088 93.7924C107.383 94.6824 106.466 95.4606 105.337 96.127C104.208 96.7935 102.889 97.329 101.379 97.7334C100.021 98.0973 98.6344 98.2802 97.2194 98.2818C95.8011 98.271 94.4534 98.0457 93.1763 97.606C91.9118 97.163 90.8071 96.4615 89.8624 95.5014C88.9177 94.5413 88.238 93.2878 87.8235 91.7408L93.5021 90.2192C93.7313 91.0745 94.0571 91.7623 94.4796 92.2826C94.9021 92.803 95.4012 93.1815 95.9769 93.4182C96.5651 93.6515 97.2144 93.7606 97.9248 93.7455C98.6478 93.727 99.4118 93.6099 100.217 93.3942C101.198 93.1314 101.966 92.7773 102.52 92.3321C103.088 91.8836 103.456 91.3736 103.627 90.8022C103.81 90.2274 103.819 89.6319 103.654 89.0156ZM128.569 80.2771L134.21 78.7657C134.592 80.6448 134.523 82.4226 134.001 84.0991C133.492 85.7721 132.541 87.2268 131.147 88.4631C129.765 89.6961 127.949 90.6141 125.697 91.2174C123.937 91.6892 122.277 91.8103 120.719 91.5807C119.158 91.3384 117.727 90.7782 116.427 89.8999C115.139 89.0183 114.02 87.8353 113.07 86.351C112.12 84.8667 111.375 83.1184 110.836 81.1061L110.325 79.2006C109.786 77.1883 109.563 75.3001 109.657 73.5361C109.759 71.7562 110.154 70.1608 110.841 68.7501C111.54 67.3359 112.506 66.1337 113.737 65.1433C114.968 64.153 116.445 63.427 118.168 62.9653C120.457 62.3519 122.498 62.2497 124.293 62.6585C126.1 63.064 127.633 63.8799 128.892 65.1063C130.163 66.3294 131.136 67.848 131.811 69.6623L126.151 71.1788C125.792 70.0888 125.321 69.2108 124.738 68.5447C124.152 67.866 123.423 67.4345 122.551 67.2502C121.689 67.0499 120.628 67.1183 119.371 67.4553C118.427 67.7081 117.651 68.1049 117.041 68.6458C116.431 69.1866 115.983 69.8796 115.697 70.7245C115.411 71.5695 115.296 72.5711 115.35 73.7293C115.413 74.8716 115.64 76.1723 116.031 77.6312L116.552 79.5744C116.933 80.9956 117.375 82.2184 117.879 83.2427C118.379 84.2545 118.949 85.0724 119.588 85.6965C120.236 86.3047 120.963 86.7031 121.768 86.8916C122.583 87.0643 123.493 87.0158 124.499 86.7462C125.682 86.4294 126.606 85.9796 127.272 85.3967C127.938 84.8138 128.373 84.0974 128.576 83.2475C128.793 82.3943 128.79 81.4041 128.569 80.2771ZM148.176 55.3492L153.817 53.8377L158.68 71.9866C159.246 74.0995 159.27 76.0005 158.752 77.6895C158.247 79.3752 157.299 80.795 155.91 81.9491C154.533 83.0999 152.82 83.9499 150.77 84.4992C148.72 85.0485 146.798 85.1724 145.006 84.871C143.225 84.5661 141.689 83.8118 140.396 82.6081C139.115 81.401 138.192 79.741 137.626 77.628L132.763 59.4792L138.422 57.9626L143.285 76.1115C143.616 77.344 144.08 78.298 144.679 78.9733C145.278 79.6486 145.991 80.0709 146.818 80.2402C147.658 80.4061 148.581 80.3542 149.587 80.0846C150.618 79.8083 151.444 79.3917 152.063 78.8349C152.694 78.2747 153.095 77.5541 153.263 76.6732C153.444 75.789 153.369 74.7306 153.039 73.498L148.176 55.3492ZM180.833 46.5989L188.193 74.0674L182.533 75.5839L166.563 60.1282L171.497 78.5411L165.837 80.0576L158.477 52.5891L164.136 51.0726L180.131 66.5422L175.192 48.1103L180.833 46.5989ZM207.073 51.5584L208.256 55.973L193.918 59.8148L192.735 55.4003L207.073 51.5584ZM191.416 43.763L198.776 71.2315L193.117 72.748L185.757 45.2795L191.416 43.763ZM208.112 39.2893L215.473 66.7578L209.832 68.2692L202.472 40.8007L208.112 39.2893ZM239.108 45.0169L239.457 46.3186C240.016 48.4064 240.235 50.3562 240.114 52.1681C239.993 53.9799 239.574 55.6088 238.856 57.0548C238.134 58.4883 237.139 59.7052 235.871 60.7057C234.615 61.7028 233.119 62.4339 231.383 62.8989C229.66 63.3606 227.999 63.4754 226.4 63.2433C224.814 63.0079 223.344 62.4515 221.99 61.5741C220.632 60.6841 219.442 59.4865 218.419 57.9814C217.408 56.4728 216.623 54.6747 216.063 52.5869L215.714 51.2851C215.152 49.1847 214.933 47.2349 215.057 45.4357C215.178 43.6238 215.598 41.9949 216.316 40.5489C217.046 39.0995 218.039 37.8762 219.295 36.8792C220.564 35.8787 222.06 35.1476 223.783 34.6859C225.519 34.2208 227.18 34.106 228.766 34.3415C230.365 34.5736 231.837 35.1363 233.182 36.0297C234.539 36.9196 235.723 38.1189 236.734 39.6274C237.754 41.12 238.545 42.9165 239.108 45.0169ZM233.74 47.8503L233.382 46.5108C232.991 45.0519 232.515 43.8044 231.954 42.7684C231.393 41.7323 230.754 40.9061 230.036 40.2896C229.318 39.6732 228.538 39.2757 227.695 39.0972C226.848 38.9062 225.947 38.9387 224.991 39.1948C224.035 39.4509 223.239 39.8734 222.601 40.4621C221.973 41.0349 221.502 41.7677 221.188 42.6605C220.887 43.5499 220.753 44.5834 220.786 45.7609C220.818 46.9385 221.03 48.2568 221.421 49.7157L221.78 51.0552C222.167 52.5016 222.643 53.749 223.207 54.7976C223.768 55.8337 224.409 56.6662 225.13 57.2952C225.848 57.9117 226.63 58.3154 227.476 58.5065C228.323 58.6976 229.224 58.665 230.18 58.4089C231.136 58.1528 231.933 57.7304 232.57 57.1416C233.208 56.5529 233.677 55.8138 233.978 54.9244C234.275 54.0224 234.408 52.9826 234.376 51.805C234.34 50.6149 234.128 49.2966 233.74 47.8503Z" fill="#E65050" fill-opacity="0.4"/>
<rect x="4.51017" y="70.4858" width="256" height="74" rx="9" transform="rotate(-15 4.51017 70.4858)" stroke="#E65050" stroke-opacity="0.4" stroke-width="6"/>
</svg>
