<svg width="339" height="163" viewBox="0 0 339 163" fill="none" xmlns="http://www.w3.org/2000/svg">
<rect x="3.67423" y="87.2728" width="323" height="74" rx="9" transform="rotate(-15 3.67423 87.2728)" stroke="#A5A5A5" stroke-opacity="0.4" stroke-width="6"/>
<path d="M48.4429 121.929L49.0904 98.462L55.3916 96.7736L53.1868 126.805L49.0364 127.917L48.4429 121.929ZM36.6579 101.793L48.9334 121.798L51.4512 127.27L47.263 128.392L30.3945 103.472L36.6579 101.793ZM63.9755 94.4735L71.3357 121.942L65.6948 123.454L58.3346 95.985L63.9755 94.4735ZM89.0112 109.502C88.8798 109.011 88.6863 108.592 88.4309 108.242C88.1848 107.877 87.8229 107.583 87.3454 107.36C86.8645 107.125 86.2281 106.938 85.4362 106.8C84.6442 106.662 83.6414 106.567 82.4276 106.514C81.0747 106.445 79.7711 106.309 78.5169 106.106C77.2753 105.9 76.1376 105.578 75.1037 105.14C74.0791 104.687 73.2019 104.08 72.4721 103.318C71.7549 102.553 71.2379 101.58 70.9211 100.397C70.6144 99.2527 70.588 98.1477 70.8417 97.0822C71.092 96.0041 71.5806 95.0105 72.3076 94.1012C73.0311 93.1794 73.9604 92.371 75.0952 91.676C76.2426 90.9776 77.5583 90.4296 79.0425 90.032C81.0674 89.4894 82.9322 89.3806 84.6369 89.7057C86.3416 90.0308 87.7792 90.7172 88.9497 91.7651C90.1327 92.8096 90.9433 94.1494 91.3814 95.7844L85.7594 97.2908C85.5437 96.4859 85.1852 95.827 84.6839 95.3143C84.1918 94.7857 83.5589 94.4363 82.7854 94.2661C82.0244 94.0925 81.1346 94.1422 80.1158 94.4152C79.1348 94.6781 78.3577 95.0481 77.7846 95.5252C77.2081 95.9897 76.8238 96.5173 76.6316 97.108C76.436 97.6861 76.4208 98.2833 76.5859 98.8996C76.7106 99.365 76.9367 99.756 77.2642 100.073C77.6042 100.386 78.0508 100.644 78.6037 100.846C79.1567 101.048 79.8115 101.203 80.5682 101.31C81.3249 101.418 82.1868 101.49 83.1539 101.528C84.7719 101.579 86.2227 101.736 87.5063 101.999C88.8025 102.258 89.9285 102.637 90.8845 103.136C91.8404 103.635 92.6329 104.279 93.2621 105.067C93.8913 105.856 94.3575 106.816 94.6608 107.948C94.981 109.143 95.0347 110.274 94.8221 111.342C94.6095 112.41 94.1506 113.389 93.4455 114.279C92.7403 115.169 91.8233 115.947 90.6943 116.613C89.5653 117.28 88.2461 117.815 86.7369 118.22C85.3785 118.584 83.9919 118.767 82.5769 118.768C81.1586 118.757 79.8109 118.532 78.5338 118.092C77.2693 117.649 76.1646 116.948 75.2199 115.988C74.2752 115.028 73.5955 113.774 73.181 112.227L78.8596 110.706C79.0888 111.561 79.4146 112.249 79.8371 112.769C80.2596 113.289 80.7587 113.668 81.3344 113.905C81.9226 114.138 82.5719 114.247 83.2823 114.232C84.0053 114.213 84.7693 114.096 85.5742 113.881C86.5552 113.618 87.3231 113.264 87.8778 112.819C88.4451 112.37 88.814 111.86 88.9844 111.289C89.1674 110.714 89.1763 110.118 89.0112 109.502ZM108.253 82.6093L113.894 81.0979L118.757 99.2467C119.323 101.36 119.347 103.261 118.829 104.95C118.324 106.635 117.377 108.055 115.987 109.209C114.611 110.36 112.897 111.21 110.847 111.759C108.797 112.309 106.876 112.433 105.083 112.131C103.303 111.826 101.766 111.072 100.473 109.868C99.1926 108.661 98.2692 107.001 97.703 104.888L92.8401 86.7393L98.4998 85.2228L103.363 103.372C103.693 104.604 104.158 105.558 104.756 106.233C105.355 106.909 106.068 107.331 106.895 107.5C107.735 107.666 108.658 107.614 109.664 107.345C110.696 107.068 111.521 106.652 112.14 106.095C112.772 105.535 113.172 104.814 113.34 103.933C113.521 103.049 113.447 101.991 113.116 100.758L108.253 82.6093ZM130.566 81.6654L129.197 106.438L123.179 108.051L126.025 77.8474L129.855 76.8213L130.566 81.6654ZM142.875 102.773L129.283 82.0092L127.421 77.4734L131.288 76.4371L148.912 101.156L142.875 102.773ZM139.795 92.639L140.983 97.0725L126.475 100.96L125.287 96.5264L139.795 92.639ZM167.934 91.3271L169.117 95.7417L155.288 99.447L154.105 95.0325L167.934 91.3271ZM149.758 71.4882L157.118 98.9567L151.458 100.473L144.098 73.0047L149.758 71.4882ZM171.02 65.7911L178.38 93.2596L172.739 94.7711L165.379 67.3026L171.02 65.7911ZM202.364 82.1016L203.547 86.5162L184.077 91.733L182.894 87.3184L202.364 82.1016ZM196.748 62.2741L186.586 91.0607L182.606 92.1273L181.736 88.8824L192.055 60.1547L195.904 59.1235L196.748 62.2741ZM193.96 59.6442L195.148 64.0776L176.452 69.0872L175.264 64.6537L193.96 59.6442ZM212.481 59.7164L211.112 84.4891L205.094 86.1017L207.94 55.8984L211.77 54.8722L212.481 59.7164ZM224.79 80.8242L211.198 60.0601L209.336 55.5243L213.203 54.488L230.827 79.2066L224.79 80.8242ZM221.71 70.69L222.898 75.1234L208.39 79.0107L207.202 74.5773L221.71 70.69ZM246.515 65.2365L252.156 63.7251C252.538 65.6042 252.468 67.382 251.947 69.0585C251.438 70.7315 250.487 72.1862 249.093 73.4225C247.711 74.6555 245.895 75.5735 243.643 76.1768C241.882 76.6486 240.223 76.7697 238.665 76.54C237.104 76.2978 235.673 75.7376 234.373 74.8593C233.085 73.9776 231.966 72.7947 231.016 71.3104C230.066 69.8261 229.321 68.0778 228.782 66.0655L228.271 64.16C227.732 62.1477 227.509 60.2595 227.602 58.4955C227.705 56.7156 228.1 55.1202 228.787 53.7095C229.486 52.2953 230.452 51.0931 231.683 50.1027C232.913 49.1124 234.39 48.3864 236.114 47.9247C238.403 47.3113 240.444 47.2091 242.239 47.6179C244.046 48.0234 245.579 48.8393 246.838 50.0657C248.109 51.2888 249.082 52.8074 249.757 54.6217L244.097 56.1382C243.738 55.0482 243.267 54.1702 242.684 53.5041C242.098 52.8254 241.369 52.3939 240.497 52.2096C239.634 52.0093 238.574 52.0777 237.317 52.4147C236.373 52.6675 235.597 53.0643 234.987 53.6052C234.377 54.146 233.929 54.839 233.643 55.6839C233.357 56.5289 233.241 57.5305 233.296 58.6887C233.359 59.831 233.586 61.1317 233.977 62.5906L234.498 64.5338C234.879 65.955 235.321 67.1778 235.825 68.2021C236.325 69.2139 236.894 70.0318 237.533 70.6559C238.182 71.2641 238.909 71.6624 239.714 71.851C240.529 72.0237 241.439 71.9752 242.445 71.7056C243.627 71.3888 244.552 70.939 245.218 70.3561C245.884 69.7732 246.319 69.0568 246.522 68.2069C246.739 67.3537 246.736 66.3635 246.515 65.2365ZM241.503 76.2649L245.597 75.168L245.688 76.3366C246.438 76.2703 247.173 76.3969 247.893 76.7165C248.612 77.036 249.118 77.7429 249.411 78.8371C249.59 79.5037 249.607 80.1461 249.462 80.7645C249.331 81.3794 249.04 81.956 248.591 82.4942C248.146 83.0449 247.535 83.5321 246.759 83.9558C245.986 84.392 245.059 84.755 243.977 85.0449L243.036 82.0617C243.439 81.9539 243.788 81.7996 244.085 81.5988C244.382 81.3979 244.592 81.1528 244.717 80.8633C244.845 80.5863 244.858 80.2592 244.757 79.8819C244.663 79.5297 244.494 79.2783 244.252 79.1276C244.009 78.9769 243.673 78.9052 243.244 78.9124C242.827 78.9163 242.293 78.9853 241.641 79.1194L241.503 76.2649ZM263.381 46.0778L262.012 70.8506L255.994 72.4631L258.84 42.2598L262.669 41.2337L263.381 46.0778ZM275.689 67.1856L262.098 46.4216L260.236 41.8858L264.103 40.8495L281.726 65.568L275.689 67.1856ZM272.61 57.0514L273.798 61.4849L259.29 65.3722L258.102 60.9388L272.61 57.0514ZM263.534 33.2171L266.722 32.5855C266.968 33.5037 267.009 34.3889 266.847 35.2413C266.681 36.081 266.338 36.8133 265.818 37.4379C265.294 38.05 264.617 38.4672 263.787 38.6897C263.184 38.8514 262.64 38.9095 262.156 38.864C261.684 38.815 261.238 38.7325 260.816 38.6165C260.39 38.4878 259.961 38.394 259.527 38.3349C259.106 38.2725 258.65 38.307 258.16 38.4385C257.719 38.5564 257.384 38.8147 257.154 39.2134C256.936 39.6087 256.907 40.102 257.065 40.6931L253.869 41.3675C253.626 40.4619 253.586 39.583 253.749 38.7306C253.911 37.8782 254.253 37.1397 254.773 36.5151C255.29 35.8779 255.957 35.4497 256.774 35.2307C257.29 35.0925 257.785 35.0542 258.26 35.1157C258.731 35.1646 259.191 35.2437 259.638 35.3531C260.098 35.459 260.557 35.5382 261.016 35.5904C261.475 35.6427 261.937 35.6065 262.402 35.4819C262.842 35.3639 263.178 35.1056 263.408 34.7069C263.647 34.2923 263.689 33.7957 263.534 33.2171ZM302.645 44.555L302.994 45.8568C303.553 47.9446 303.773 49.8944 303.651 51.7062C303.53 53.5181 303.111 55.147 302.393 56.593C301.672 58.0265 300.677 59.2434 299.408 60.2439C298.152 61.241 296.656 61.9721 294.92 62.4371C293.197 62.8988 291.536 63.0136 289.937 62.7815C288.351 62.5461 286.881 61.9896 285.527 61.1123C284.17 60.2223 282.979 59.0247 281.956 57.5196C280.945 56.011 280.16 54.2129 279.6 52.1251L279.252 50.8233C278.689 48.7229 278.47 46.7731 278.594 44.9739C278.715 43.162 279.135 41.5331 279.853 40.0871C280.583 38.6377 281.577 37.4144 282.833 36.4173C284.101 35.4169 285.597 34.6858 287.32 34.2241C289.056 33.759 290.717 33.6442 292.303 33.8797C293.902 34.1118 295.374 34.6745 296.719 35.5678C298.076 36.4578 299.26 37.6571 300.271 39.1656C301.291 40.6582 302.082 42.4547 302.645 44.555ZM297.278 47.3885L296.919 46.049C296.528 44.59 296.052 43.3426 295.491 42.3065C294.931 41.2705 294.291 40.4443 293.573 39.8278C292.856 39.2114 292.075 38.8139 291.232 38.6354C290.385 38.4444 289.484 38.4769 288.528 38.733C287.572 38.9891 286.776 39.4116 286.138 40.0003C285.51 40.5731 285.039 41.3058 284.725 42.1986C284.425 43.0881 284.29 44.1216 284.323 45.2991C284.355 46.4767 284.567 47.795 284.958 49.2539L285.317 50.5934C285.704 52.0397 286.18 53.2872 286.744 54.3358C287.305 55.3718 287.946 56.2044 288.667 56.8334C289.385 57.4499 290.167 57.8536 291.014 58.0447C291.86 58.2357 292.761 58.2032 293.717 57.9471C294.673 57.691 295.47 57.2685 296.107 56.6798C296.745 56.0911 297.214 55.352 297.515 54.4626C297.813 53.5606 297.945 52.5208 297.913 51.3432C297.877 50.1531 297.665 48.8348 297.278 47.3885Z" fill="#A5A5A5" fill-opacity="0.4"/>
</svg>
