<svg width="24" height="24" viewBox="0 0 24 24" fill="none" xmlns="http://www.w3.org/2000/svg">
<g clip-path="url(#clip0_486_667)">
<path d="M17.1333 3H6.86667C5.84 3 5 3.85263 5 4.89474V19.1053C5 20.1474 5.84 21 6.86667 21H17.1333C18.16 21 19 20.1474 19 19.1053V4.89474C19 3.85263 18.16 3 17.1333 3ZM7.8 5.36842H16.2C16.4613 5.36842 16.6667 5.57684 16.6667 5.84211C16.6667 6.10737 16.4613 6.31579 16.2 6.31579H7.8C7.53867 6.31579 7.33333 6.10737 7.33333 5.84211C7.33333 5.57684 7.53867 5.36842 7.8 5.36842ZM7.8 8.21053H13.4C13.6613 8.21053 13.8667 8.41895 13.8667 8.68421C13.8667 8.94947 13.6613 9.1579 13.4 9.1579H7.8C7.53867 9.1579 7.33333 8.94947 7.33333 8.68421C7.33333 8.41895 7.53867 8.21053 7.8 8.21053ZM7.33333 11.5263C7.33333 11.2611 7.53867 11.0526 7.8 11.0526H11.2253C11.4867 11.0526 11.692 11.2611 11.692 11.5263C11.692 11.7916 11.4867 12 11.2253 12H7.8C7.53867 12 7.33333 11.7916 7.33333 11.5263ZM16.928 11.7347L10.7587 17.9968C10.6653 18.0916 10.5533 18.1484 10.432 18.1768L8.99467 18.4421L9.21867 17.0495C9.23733 16.9168 9.30267 16.7937 9.396 16.6989L15.612 10.3895C15.976 10.02 16.564 10.02 16.928 10.3895C17.292 10.7589 17.292 11.3558 16.928 11.7253V11.7347Z" fill="white"/>
</g>
<defs>
<clipPath id="clip0_486_667">
<rect width="14" height="18" fill="white" transform="translate(5 3)"/>
</clipPath>
</defs>
</svg>
